<?xml version="1.0" encoding="UTF-8"?> <svg xmlns="http://www.w3.org/2000/svg" width="973" height="889" viewBox="0 0 973 889" fill="none"> <path d="M138.836 824.166C138.184 827.419 146.989 829.372 147.967 825.793C148.946 821.563 139.488 819.936 138.836 824.166Z" fill="#010202"></path> <path d="M458.329 134.206C446.342 132.848 435.202 132.303 421.584 132.637C439.489 129.026 460.044 126.831 481.05 128.202C481.05 128.202 481.05 128.202 481.337 126.473C442.244 115.759 395.588 117.706 356.284 136.357L356.424 136.992C392.311 127.09 431.268 120.509 471.222 126.035C439.294 122.073 401.323 130.102 370.905 145.13C408.627 137.489 446.723 136.095 486.505 139.327L486.684 138.622C478.659 137.058 468.971 135.526 458.329 134.206Z" fill="#010202"></path> <path d="M370.97 795.316C346.05 789.928 318.913 779.463 295.692 765.476L295.193 766.007C320.705 790.938 359.721 805.351 397.726 800.027L397.807 799.303C389.532 798.536 379.889 796.886 370.97 795.316Z" fill="#010202"></path> <path d="M593.377 5.14094C582.891 3.87434 572.428 3.25808 561.695 4.2789L561.717 4.92924C602.019 9.72661 643.208 21.3301 681.013 38.9102L681.317 38.2486C656.234 20.5559 625.497 9.24346 593.377 5.14094Z" fill="#010202"></path> <path d="M119.435 335.444C122.697 323.405 127.262 311.692 134.763 298.678C118.131 318.525 109.652 348.784 106.391 376.44C110.956 363.425 116.827 349.109 124.327 338.047C123.023 351.712 122.697 361.147 123.023 394.335C135.415 337.721 161.831 285.663 203.575 244.017C171.941 269.395 143.569 312.018 127.915 351.061C127.262 341.626 128.893 327.96 131.828 319.826C124.98 327.31 123.023 331.539 118.131 339.673C118.783 338.047 118.457 339.348 119.435 335.444Z" fill="#010202"></path> <path d="M7.81919 403.686H8.47144C14.3416 371.149 25.4298 338.288 40.7575 307.053L40.1052 306.728C19.2335 333.082 6.84083 367.896 7.81919 403.686Z" fill="#010202"></path> <path d="M919.329 493.152C917.046 516.253 912.154 541.632 904.654 565.708L905.306 566.034C919.655 542.933 926.504 512.349 920.96 482.741H920.307C920.307 485.344 919.655 489.573 919.329 493.152Z" fill="#010202"></path> <path d="M725.656 554.086L726.309 554.411C750.442 509.836 752.725 451.271 728.265 404.093L727.613 404.418C742.941 452.247 742.289 504.63 725.656 554.086Z" fill="#010202"></path> <path d="M749.137 492.592C748.811 495.846 748.811 500.075 748.159 504.956H748.811C758.269 486.735 760.226 459.405 747.833 438.582H747.181C749.137 455.826 750.116 473.07 749.137 492.592Z" fill="#010202"></path> <path d="M614.123 695.944C615.101 694.643 616.08 694.643 620.971 688.461L620.645 687.81C599.447 701.475 575.314 712.538 549.877 720.672L550.203 721.322C572.053 721.322 595.86 712.212 614.123 695.944Z" fill="#010202"></path> <path d="M601.73 712.212C582.163 721.973 559.987 730.107 536.832 735.638V736.289C560.313 738.241 587.707 729.782 605.97 710.585L605.644 709.935L601.73 712.212Z" fill="#010202"></path> <path d="M194.692 535.124C193.062 519.181 193.062 500.961 194.692 482.741H194.04C192.083 485.344 177.408 513.65 194.692 542.608H195.345C195.345 540.981 195.018 538.378 194.692 535.124Z" fill="#010202"></path> <path d="M628.565 203.596C643.241 210.103 659.547 218.888 674.222 229.299L674.548 228.649C673.244 227.347 655.633 201.969 621.717 200.017L621.39 200.667C623.347 201.318 625.956 202.294 628.565 203.596Z" fill="#010202"></path> <path d="M203.498 558.225C208.063 577.096 216.869 597.919 231.218 614.187L231.87 613.862C212.303 578.722 202.845 537.401 205.128 496.08H204.476C198.932 514.3 198.932 537.401 203.498 558.225Z" fill="#010202"></path> <path d="M824.575 214.178C829.467 219.384 836.316 224.589 843.164 229.145C832.402 260.379 841.86 289.011 872.189 303.978C872.515 304.304 880.342 308.533 880.994 308.859L874.472 301.701C855.231 274.37 875.124 262.006 856.535 237.929C865.993 255.824 853.926 277.949 865.666 295.844C843.816 280.227 841.207 256.475 848.708 233.049C878.711 249.642 900.235 271.116 915.563 299.423C918.824 305.28 919.477 312.438 917.52 318.945C905.127 358.314 946.219 375.558 935.783 412.65C954.698 386.295 958.937 371.654 941.327 346.275C964.481 361.242 966.112 364.496 971.982 381.74C977.2 315.366 937.087 333.912 925.021 304.304C923.716 292.59 923.716 280.877 920.781 268.839C930.239 275.346 943.283 277.949 955.024 276.648C941.653 275.346 928.608 270.466 918.824 260.379C913.28 237.604 903.497 214.829 888.169 196.283C918.498 200.838 920.781 223.613 942.631 232.398C932.521 233.374 920.129 230.771 911.976 222.312C920.129 236.628 939.044 237.279 954.372 234.025C917.52 220.685 925.673 194.981 885.234 193.029C836.642 138.043 774.352 156.263 824.575 214.178ZM928.934 316.667C949.154 332.61 965.46 334.237 967.743 360.266C950.784 341.72 930.565 338.792 925.999 313.088C926.977 314.715 927.956 315.691 928.934 316.667ZM922.086 314.39C923.716 332.935 941.001 348.228 945.566 367.099C947.197 375.233 946.545 384.668 942.305 393.128C938.392 362.218 909.041 346.275 922.086 314.39ZM911.976 251.92C895.017 226.867 880.994 194.656 849.36 183.919C887.191 212.876 890.778 243.135 915.563 264.609C918.172 275.346 920.129 287.385 920.781 299.098C916.215 289.337 910.345 279.251 903.497 270.466C900.235 266.236 897.953 261.356 896.974 256.15C895.996 251.269 894.691 247.69 889.473 245.738C878.385 243.786 875.124 235.652 872.189 228.819C858.818 210.273 841.533 234.35 816.748 195.958C783.484 125.028 895.017 177.412 911.976 251.92Z" fill="#010202"></path> <path d="M822.619 194.33C826.206 191.728 820.01 184.244 816.749 186.847C814.14 189.125 819.684 196.283 822.619 194.33Z" fill="#010202"></path> <path d="M145.032 778.29C153.838 749.007 141.771 725.906 110.463 715.495C110.137 715.495 102.636 712.566 101.984 712.241C130.357 734.04 113.725 742.825 129.052 767.227C100.68 749.332 74.59 723.303 63.5018 690.767C61.219 684.26 61.219 676.776 63.1757 670.269C74.9161 628.297 38.7166 620.163 47.1958 586C37.4121 603.895 29.2591 621.465 40.3472 640.661C24.3672 628.623 7.73503 613.981 4.79993 593.158C-14.7674 654.652 30.5635 659.532 49.8047 679.054C53.3921 682.958 55.3488 688.164 55.0227 693.37C54.6966 696.624 54.6965 700.203 54.6965 703.456C44.9129 692.068 29.9113 683.609 14.5836 680.681C30.5635 687.188 45.239 698.901 55.0227 714.193C56.6533 747.055 68.3937 780.893 91.8744 805.295C80.4602 797.486 54.0443 807.247 35.1293 778.94C35.4554 779.917 38.3905 787.725 38.7166 788.376C51.7615 824.817 83.7214 836.204 116.334 825.793C130.683 835.879 184.167 850.846 178.623 817.008C173.405 801.065 158.729 788.376 145.032 778.29ZM54.3704 681.006C37.086 652.7 1.86484 653.35 5.12605 611.053C16.5403 637.733 56.9794 648.47 56.001 681.006C55.6749 681.657 54.6965 681.657 54.3704 681.006ZM59.9145 667.341C56.9794 653.35 43.2823 643.264 40.0211 628.623C38.3905 621.79 39.3688 614.307 41.9778 606.823C49.1525 630.575 66.7631 641.962 59.9145 667.341ZM127.422 758.117C124.813 746.404 127.096 732.088 117.312 722.002C140.14 733.39 146.337 753.562 142.423 776.338C132.314 770.156 129.705 768.529 127.422 758.117ZM105.898 823.841C83.0691 828.07 56.6533 817.984 45.8913 795.859C77.5251 816.683 81.1124 792.606 111.442 822.865C109.485 823.19 107.854 823.515 105.898 823.841ZM116.986 818.635C112.42 815.707 110.463 810.501 108.833 805.295C102.636 785.122 98.723 788.376 86.6565 779.591C83.7214 776.988 84.0475 772.433 84.3736 767.878C79.4818 749.007 64.1541 766.577 60.2406 722.327C75.5683 751.935 100.027 778.94 133.292 787.075C84.6997 760.395 82.743 740.548 58.61 708.337C58.2839 701.504 58.2839 697.925 58.9361 690.116C82.0908 770.156 172.1 780.567 176.014 823.841C170.796 846.616 134.27 830.673 116.986 818.635Z" fill="#010202"></path> <path d="M831.131 768.732C864.069 677.956 791.67 652.903 779.277 750.186C739.816 749.21 742.425 787.929 707.204 790.532C741.447 799.316 756.449 797.69 772.429 766.129C756.775 784.675 744.056 794.436 723.184 790.206C746.013 780.771 750.579 754.416 778.299 755.718C774.059 786.302 762.319 818.838 736.229 837.384C731.011 841.288 724.815 843.24 718.292 843.566C668.396 845.843 679.484 874.475 626 871.222C639.045 877.078 654.373 883.585 668.396 882.935C707.857 901.806 716.988 867.643 728.076 852.025C730.359 848.772 734.272 846.494 738.186 846.169C746.339 845.193 754.818 843.24 762.971 839.661C759.058 849.748 757.753 861.461 760.688 872.848C763.623 812.331 796.888 845.843 829.174 772.311C840.914 803.546 820.369 814.934 823.956 839.987C812.868 828.924 812.868 811.355 818.738 797.039C804.389 814.934 811.889 838.685 829.174 849.097L827.543 844.216C825.586 810.379 849.719 802.895 831.131 768.732ZM648.502 874.801C681.115 869.92 681.441 848.772 717.966 847.795C688.615 867.317 686.333 885.863 648.502 874.801ZM725.141 850.724C711.118 872.198 702.639 889.767 676.549 881.959C699.051 877.404 704.595 857.882 727.098 848.446C726.445 849.097 725.793 849.748 725.141 850.724ZM827.217 762.876C817.433 786.302 802.758 809.077 780.582 824.044C801.127 802.57 817.76 773.938 817.107 742.703C803.41 797.364 781.56 806.149 766.558 832.829C756.123 838.035 744.056 842.915 731.663 843.566C746.991 836.082 753.187 826.647 768.189 811.355C777.647 803.221 784.169 803.546 782.865 792.484C780.256 768.732 799.823 768.732 787.756 748.56C785.474 744.981 786.452 743.028 787.43 739.124C807.324 648.022 853.633 702.683 827.217 762.876Z" fill="#010202"></path> <path d="M802.106 707.564C798.845 706.262 795.257 714.396 798.519 716.023C802.432 718.301 806.019 709.191 802.106 707.564Z" fill="#010202"></path> <path d="M106.099 161.978C103.164 160.026 97.6201 166.859 100.555 169.462C103.49 172.39 109.36 164.581 106.099 161.978Z" fill="#010202"></path> <path d="M276.335 33.4595C240.787 11.9855 227.416 40.6174 215.35 56.2349C211.436 61.1153 205.566 63.7183 199.37 63.0675C189.912 61.7661 179.803 62.4168 170.019 64.0436C180.129 54.9334 185.999 39.316 186.325 25C171.976 78.3596 133.167 64.0436 102.512 95.2785C108.708 79.3357 99.5766 60.4646 111.969 45.1725C111.969 44.8472 119.796 36.0624 119.796 35.737C119.47 36.0624 110.339 42.895 109.686 43.2204C86.5317 59.8139 74.1391 80.6372 87.5101 110.896C30.4388 182.476 90.119 229.003 130.884 144.083C170.671 151.892 173.932 111.872 209.48 114.475C176.867 101.135 161.54 100.484 141.32 129.442C154.691 116.752 173.606 104.063 193.174 112.523C168.388 119.03 161.214 144.408 133.167 139.203C180.781 44.5218 230.351 75.7567 248.614 65.9958C277.965 54.6081 278.617 44.1964 317.752 49.0769C305.686 41.9189 288.401 33.4595 276.335 33.4595ZM103.164 52.6559C95.6631 66.3212 104.468 82.5893 99.5766 97.5561C95.6631 100.81 92.0758 104.714 88.8146 108.618C88.8146 108.293 88.4884 107.642 88.4884 107.317C83.2705 88.4459 87.8362 66.3212 103.164 52.6559ZM188.934 71.527C185.02 73.1538 181.433 74.7806 177.846 77.0582C174.585 79.0103 170.997 79.6611 167.41 79.3357C146.864 78.0342 160.561 97.2307 136.428 100.81C133.167 101.786 131.21 103.087 129.254 105.039C122.079 115.451 132.515 130.418 123.71 143.758C62.7248 253.731 34.0261 125.212 138.059 77.0582C115.883 91.6995 97.2937 115.451 89.7929 141.48C113.6 98.8575 161.54 55.9095 205.892 66.6465C200.022 67.948 194.478 69.2494 188.934 71.527ZM223.829 51.6798C235.569 33.7848 250.245 25.3254 268.834 33.4595C245.679 35.737 238.178 54.9334 214.371 62.0914C217.307 60.1393 221.22 55.2588 223.829 51.6798ZM263.942 53.632C253.832 59.4885 244.375 65.0197 223.829 63.7183C256.115 45.4979 261.333 28.9044 296.554 43.2204C281.226 43.8711 272.421 48.7515 263.942 53.632Z" fill="#010202"></path> </svg> 