<?xml version="1.0" encoding="UTF-8"?> <!-- Generator: Adobe Illustrator 23.0.1, SVG Export Plug-In . SVG Version: 6.00 Build 0) --> <svg xmlns="http://www.w3.org/2000/svg" xmlns:xlink="http://www.w3.org/1999/xlink" id="Слой_1" x="0px" y="0px" viewBox="0 0 210 152.1" style="enable-background:new 0 0 210 152.1;" xml:space="preserve"> <style type="text/css"> .st0{fill:#FFFFFF;} </style> <path class="st0" d="M137.1,65.3l1.2-0.5C137.6,65,137.1,65.3,137.1,65.3z"></path> <g> <path class="st0" d="M64.1,119.9c-3.3,0.1-4.7-5.4-10.7-2.8c1-0.1,2.2,0,2.7,0.1C59.6,118.1,61.3,122.5,64.1,119.9"></path> <path class="st0" d="M106.6,96c-3.2-1.9-6.9-2.6-9.5-5.1c4.7-2.8,9.2-9.3,5.6-16.6c-1.8-3.8-4.7-6.7-5.5-10.9 c-0.9-4.9,1.6-9.1-0.9-14.7C94.1,43.6,80.2,28.3,66,27.4c-3.6-0.2-6,0.5-8.6,1.8c-8.3-0.7-16.9,6.1-19,13.9c-1.8-4.3-0.4-8.9,1-13 c-5.7,4-10.8,9-7.1,17.6c-2.7-4.4-3.3-10.2-1.5-14.9c1.1-2.8,3.5-4.8,6.4-5.4c21.2-4,8.2-19.9,26.9-23.3C56.6,2,50.7,2.1,45.8,9.5 l0-0.1c-8.8,3-9.6,7-13,15.7c-0.4,1.1-1.1,2.1-2,2.9c-2,1.8-4.3,3.1-5.7,5.2c1.3-5.6,2.7-12.8-1.5-17.6c2.7,8-2.3,15.1-2.8,23 c-3.9,8.7-2.9,19.1,2.4,27c-2.2-1.5-4.9-2.4-7.3-2.6c-1.8-6-6.6-11-14-12.4C8.4,57.5,5,67.8,16.7,69.9c3.8,0.6,7.6,0.1,11,1.6 C15.2,86.6,41,93.4,33.1,103c11.6-4.5,5.8-10.3,5.8-16.9c1.5,6.7,6.7,6.8,9.7,10c4,3.7,2.1,10.7-4.1,12.5 c-4.6,1.3-9.4,1.8-12.6,7.3c8.4-6.5,24.5-1.3,20.1-24.1c6.6,7.9,16.5,7.9,20.5,3.7c0,3.8,0.7,7.1,1.9,9.6 c-4.8,7.8-3.2,14.2,0.8,22.5c-0.8-9.6,0.6-8.5,5-17.1c1.7,1.1,3.7,1.5,5.4,1.7c-0.5,5-3,10-6.6,13.9c-4.2,4.3-7.3,0.5-15.3,4.3 c-9,4.4-6.9,16.5-22,15.3c6.6,4.6,12.7,6,19.8-1.4c8.4-0.6,9.8-4.8,13.2-11c1.2-2.2,3.3-3.8,5.8-4.3c1.4-0.3,3.2-0.7,5.6-1.7 c-4.7,3.7-9.3,8.8-9.5,15c5.8-14.7,20.1-10.6,22.7-29.9c1.6-5.2,1.3-10.2,0.1-15.1c1.4,2.1,3.5,3.6,5.5,4.6 c-0.3,5.9,2.3,11.7,8.2,15.3C109.4,108.2,115.7,101.8,106.6,96 M56.2,4.9c-9.6,6.2-2.4,16.9-20.6,22c5-2.7,7.3-6.6,9.7-11.9 C47.4,10.1,50.5,5.7,56.2,4.9 M44.2,12.5c-2.1,4.9-4,10.5-11.2,14.1C36,21.9,35.8,15.7,44.2,12.5 M48.4,147.3 c11.6-2.9,8.4-17,23.9-17.7c-4.5,2.1-7.5,6.2-10,10C59.6,144.6,54.2,149.4,48.4,147.3 M63.3,142c3.3-4.8,6.7-9.9,12.4-11.7 C72,133.1,73,140.2,63.3,142 M96.2,89.6c2.9-8.2-1.4-11-2.3-17C96,78.1,103.1,82.5,96.2,89.6 M95.9,63c0.6,6,4.1,8.3,5.4,13.7 C97.9,70.8,95.4,70,95.9,63 M93.1,59.4c0.5-7.5-1.6-12.7-3.8-16.2C94.8,48.4,95.4,52.8,93.1,59.4 M65.6,52.8 c-4.7-1.4-8.2-5.3-10.1-11.2C58.3,45.8,62.4,50.5,65.6,52.8 M35.8,35.7C34,43.3,42.5,48.7,40.7,56c-0.6-0.4-1.3-0.9-1.7-1.2 c-1.2-3.6-5.7-5.9-6.2-10.4C32.3,41.1,33.7,37.8,35.8,35.7 M6.5,54.1c3.6,1.8,6.3,5.1,7.6,8.7c-1.5-0.1-2.9-0.5-3.9-1.3 C8,59.7,8.1,56.3,6.5,54.1 M10.5,63.9c6.5,2.1,8.5-1.4,16,5.9C21.2,68,13.9,69.7,10.5,63.9 M30.5,87.4c-2-3.2-1.5-7,1.5-9.6 C30.9,79.9,29.7,83.2,30.5,87.4 M36.5,96.1c-1.3-4.8-5.2-5.6-4.3-12.7C32.2,88.6,37.4,90.8,36.5,96.1 M43.9,76.6 c-5.6,0.2-12.3-1.6-12.1-9c-0.9,1.5-0.9,3.5-0.4,4.9c-2.9-1.6-4.1-3.9-4.6-6.6c-0.4-2-0.1-4.8-0.6-6.6c-0.6-2.3-3.7-3-4.1-5.1 c-0.3-1.7,0.6-2.5,0.2-4.3c-0.6-2.4-2.8-2.7-1.4-6.2c1.4,4.9,5.3,9.1,9.5,11.4c-4.2-5-7-10.5-6.2-17.9c0.6-3.1,5.6-7.2,7.2-8.2 c-5.3,6.6-4.1,16.6,1.2,22.7c5.5,6.7,16.7,10,17.5,19.7C52.7,72.5,47.9,76.7,43.9,76.6 M58.5,94.8C50.9,92,45.9,84.1,44.3,77.9 c5.1-0.8,9.9-4.9,6.5-6.8c0.3-1.3,0-2.7-0.3-3.7c1.9,0.5,3.9,0.2,5.6-0.2c0.8,0.4,1.1,0.7,1.6,0.9c-0.4-1-0.8-1.4-1.4-2 c-2.3,0-4.5-0.1-6.5-0.5c-1.6-3.5-3.9-3.7-3.9-8.7c4.4-0.2,8.5,0.3,12.3,2.3c-2.5-5-5.8-4.9-12.2-3.9c0.4-4.5,2.5-9.5,5.1-13 c3.8,8.1,10.7,12.3,18.4,14c-0.8,0.6-1.5,1.5-2.1,2.9c4.8-3.1,10.8-1.3,14.2,3.2C88.1,72.5,75.6,100.3,58.5,94.8 M74.4,96.9 c0.2-1.8,1.4-3,2.7-1.8c0,0,0,0,0.1,0.1c1.1,1.3,1.4,3.2,0.6,4.8c-0.7,1.4-1.4,2.2-2.2,3.4c-0.2-0.4-0.4-0.9-0.5-1.1 C74.5,100.1,74.3,98.2,74.4,96.9 M73.8,119.1c-2.3-9.4,2.7-12.2,5.7-21.1C82.6,108.3,77.6,110.2,73.8,119.1 M80.8,108.9 c1.4-3.4,1.2-7,0.2-10.1c3.5,3.6,5,7.5,4.8,11.9C84.3,110.7,81.9,109.8,80.8,108.9 M98.1,111.3c-0.6-3.8-1.9-7.2-3.7-10.4 c4.7,14.5-1,24.9-16.2,27.1c2-1.6,3.4-3.1,4.2-4.1c0.6-0.8,1.4-1.5,2.4-1.9c5-2.5,3.4-5.4,3.7-7.9c0.3-2.1,2-3.9,2.4-5.5 c0.8-3-1.1-4.4-4.1-6.2c-2.6-1.6-3.1-2.3-4.5-3.6c-1-0.9-1.9-1.8-2.7-2.8c1.4,0.3,2.9,0.2,4.3-0.4c-1.7,0-3.4-0.4-4.9-1.2l-0.1,0 c-1.5-0.8-2.7-2-3.5-3.6c0.3-0.3,0.6-0.6,0.9-1c1.1,1.9,2.9,0.7,1.3-1.3c2-2.3,3.8-5.7,4.9-8.6c3.8,0.8,11.4,5.8,13.2,11.1 c0.8,2.2-1.5,5.1,1.1,8.2c1.1,1.3,1.7,2.8,1.8,4.5c0,0.7,0.1,1.4,0.1,2.1C98.8,107.6,98.6,109.5,98.1,111.3 M97.8,92.7 c3.9,3.3,10.8,4.2,12,10.2c-0.8-0.8-1.7-1.3-2.5-1.6C102.6,99.6,99.9,97.6,97.8,92.7 M106.2,102.7c5.1,2.5,3.1,4.9,3.8,10 C107.5,110,106.2,106.2,106.2,102.7"></path> <path class="st0" d="M49.5,118c-4.2,0.6-8.2,1.9-12.6,0.2c0.5,2.4,3.4,2.4,5.7,2C44.7,119.9,47.5,118.9,49.5,118"></path> <path class="st0" d="M62.9,82.5c-2.2-0.6-3.1,0-5.3,1.6c-0.7,0.6-2,0.7-2.7,0.4c0.5,0.8,1.9,0.8,1.9,0.8c1.1,5.9,10.2,6.6,11.7,0 c0,0,1.4,0,1.9-0.8C68,85.7,66.1,81.1,62.9,82.5 M62.8,86.1c-1.7-0.5-3.2-0.7-4.7-1c1.8-0.2,3.3-0.1,4.7,0.3 c1.6-0.4,3.4-0.5,4.7-0.3C65.7,85.5,64.2,85.7,62.8,86.1"></path> <path class="st0" d="M92.3,89.4c-0.5-0.5-1.1-0.8-1.8-1.1c-1-0.4-2.5-1.1-3.3-1.8c-1.4-1.4-3.6-3.2-5.3-1.9 c-0.5,0.4-0.8,0.9-0.9,1.5c-0.1,1.4,0.7,2.7,1.9,3.5c0.5,0.3,1.2,0.7,1.5,1.4c0.8,1.6,2.1,3.5,3.9,4.4C93.4,97.9,96.4,93,92.3,89.4 "></path> <path class="st0" d="M39.8,73.5c-0.5,1.3,2.4,2.1,2.8,0.8C42.9,73.2,40.2,72.4,39.8,73.5"></path> <path class="st0" d="M43,64c-0.7-0.4-1.6-1.2-2-2.1c-1.7-3.7-6.3-5.4-8.5-3.9c-0.8,0.5-1.5,1.6-1,3.3c0.5,1.9,2.5,3,4.6,3.9 c0.9,0.4,1.9,0.5,3,1.6C44.8,72.2,48.9,67.9,43,64"></path> <path class="st0" d="M81.2,62.9c-3.3,3-7.8,3.4-11.9,3.3c-0.7,0.6-1.2,1.4-1.4,2c0.6-0.4,1.3-0.8,1.6-0.9c2.3,0.6,4.5,0.6,6.5-0.1 C78.3,66.3,80.1,64.7,81.2,62.9"></path> <path class="st0" d="M75.8,75.7c1-2.4,1.2-5.3,0.8-8c-0.7,0.3-1.7,0.5-2.6,0.6C75.1,70.5,75.9,73.1,75.8,75.7"></path> <path class="st0" d="M67.5,77.5c-0.1-0.2-0.2-0.4-0.3-0.5l0-0.1c-0.2-0.3-0.8-0.8-0.8-0.8c0,0,0,0-0.1,0c0,0-0.1,0-0.1,0 c0,0-0.1,0.1,0,0.1c0.2,0.3,0.3,0.6,0.4,0.9c0.1,0.3,0.1,0.6,0.1,0.9c0,0.2-0.1,0.5-0.3,0.6c0-0.1,0-0.2-0.1-0.3 c-0.1-0.2-0.4-0.3-0.6-0.3c-0.4,0-0.9,0.2-1.3,0.6c-0.5,0.5-1,0.7-1.6,0.7c-0.7,0-1.1-0.2-1.6-0.7c-0.4-0.4-0.9-0.6-1.3-0.6 c-0.3,0-0.5,0.1-0.6,0.3c0,0.1-0.1,0.2-0.1,0.3c-0.2-0.2-0.2-0.4-0.3-0.6c0-0.3,0-0.6,0.1-0.9c0.1-0.3,0.2-0.6,0.4-0.9 c0-0.1,0-0.1,0-0.1c0,0,0,0-0.1,0c0,0-0.1,0-0.1,0c0,0-0.6,0.5-0.8,0.8l0,0.1c-0.1,0.1-0.2,0.3-0.3,0.5C58,77.7,58,78,58.1,78.2 c0.1,0.5,0.4,1,0.8,1.2c0.3,0.2,0.5,0.2,0.8,0.2c0.1,0,0.3,0,0.4-0.1c0,0,0,0,0,0c0,0,0.1,0,0.1,0c0.1,0,0.2,0,0.3,0 c0.2,0,0.4,0.1,0.6,0.2c0.8,0.5,1.2,0.5,1.6,0.5c0.4,0,0.8-0.1,1.6-0.5c0.2-0.1,0.4-0.2,0.6-0.2c0.1,0,0.2,0,0.3,0c0,0,0.1,0,0.1,0 c0,0,0,0,0,0c0.1,0,0.3,0.1,0.4,0.1c0.3,0,0.6-0.1,0.8-0.2c0.4-0.2,0.7-0.7,0.8-1.2C67.6,78,67.5,77.7,67.5,77.5"></path> </g> <path class="st0" d="M161.9,95.2l-8.2-19.1l-6.1,14.6l-2,4.5h-0.4l-10.7-25.3c-1.1-2.6-2.1-4.3-2.9-5.1c-0.1-0.1-0.2-0.2-0.4-0.4 l0,0l-0.3-0.2c-0.2-0.1-0.4-0.2-0.6-0.3c-1.3-0.7-3.2-0.8-3.8-0.8v-0.1h5l0.8,0l10.2,0h16.7v0.1c-0.8,0-2.5,0.1-3,0.2 c-1.4,0.4-2,1.3-1.8,2.7c0.1,1,0.5,2.4,1.3,4.2l8.1,19.5l7.3-17.6c1.1-2.4,1.3-4.4,0.7-6.1c-0.1-0.3-0.3-0.7-0.5-0.9l0,0l-0.2-0.3 c-0.1-0.1-0.1-0.2-0.2-0.2c-0.1-0.1-0.1-0.1-0.2-0.2c-1.2-1-3.7-1.2-4.4-1.3v-0.1h14.1v0.2c-0.7,0-2.8,0.3-3.9,1.3l-0.6,0.5l0,0 c-1.1,1.2-2.2,3-3.3,5.5l-8.6,20.3l-2,4.5H161.9z M142.5,63.7l-0.5,0c-3.1,0.2-4.7,1.1-4.7,1.1l-0.2,0.1l10.2,24.8l6.1-14.6 l-4.5-10.4l-0.1,0c-1.6-1-3.7-1.1-5.8-1.1h0C143,63.7,142.7,63.7,142.5,63.7z"></path> <path class="st0" d="M192.3,94.7v-0.1c0.8,0,2.9-0.1,3.9-0.8c0.2-0.1,0.4-0.3,0.5-0.5l0.2-0.3l-0.1,0c0,0,0,0,0,0 c0.3-0.9-0.1-2.6-1.1-5l-0.9-2.3h-15.4l-0.8,1.7c-0.9,1.9-1.1,3.5-0.7,4.9c0,0,0,0,0,0c0,0.1,0,0.1,0.1,0.2l0.1,0.1 c0,0,0.1,0.2,0.1,0.2c0.8,1.5,4,1.7,4.8,1.8v0.2h-12.8l0-0.2c0,0,0.1,0,0.1,0c0.7-0.1,2.1-0.2,2.8-0.7c0.3-0.2,0.6-0.4,1-0.7 l0.4-0.4h0c1.1-1.1,2.2-2.9,3.3-5.3l9.5-20l-1.9-4.5h4.4l10.5,24.8c1.1,2.6,2,4.4,2.7,5.2c0.1,0.2,0.3,0.3,0.5,0.5 c0.1,0.1,0.2,0.2,0.3,0.2c0.9,0.7,3,0.9,3.7,0.9v0.2L192.3,94.7z M179.7,84.8h14.7l-0.8-1.9c-1-2.6-2-4.9-3-7.1l-3.2-7.5L179.7,84.8 z"></path> </svg> 