<?xml version="1.0" encoding="UTF-8"?> <svg xmlns="http://www.w3.org/2000/svg" width="167" height="30" viewBox="0 0 167 30" fill="none"> <path d="M27.4983 2.15056e-06H2.82811C2.08131 0.00183706 1.36561 0.299317 0.837541 0.827391C0.309468 1.35546 0.011982 2.07116 0.0101471 2.81796V9.4546H6.85527V8.3705C6.85619 7.96623 7.01719 7.57877 7.30305 7.2929C7.58892 7.00704 7.97638 6.84603 8.38065 6.84511H21.9562C22.3602 6.84603 22.7473 7.00715 23.0326 7.29312C23.3179 7.57908 23.4781 7.96655 23.4781 8.3705V9.4546H30.3267V2.81796C30.3249 2.06935 30.026 1.35208 29.4956 0.823712C28.9653 0.29534 28.2469 -0.000920917 27.4983 2.15056e-06Z" fill="#ADB5BD"></path> <path d="M23.468 21.2994C23.468 21.7034 23.3078 22.0909 23.0224 22.3768C22.7371 22.6628 22.35 22.8239 21.9461 22.8248H8.37051C7.96623 22.8239 7.57877 22.6629 7.29291 22.377C7.00704 22.0912 6.84604 21.7037 6.84512 21.2994V20.2153H0V26.852C0.00183491 27.5988 0.299315 28.3145 0.827389 28.8425C1.35546 29.3706 2.07116 29.6681 2.81797 29.6699H27.4882C28.235 29.6681 28.9507 29.3706 29.4788 28.8425C30.0068 28.3145 30.3043 27.5988 30.3062 26.852V20.2153H23.468V21.2994Z" fill="#ADB5BD"></path> <path d="M6.84512 11.4106H0V18.2558H6.84512V11.4106Z" fill="#ADB5BD"></path> <path d="M30.3168 11.4106H23.4716V18.2558H30.3168V11.4106Z" fill="#ADB5BD"></path> <path d="M167 20.5877C167.001 20.206 166.888 19.8327 166.676 19.515C166.465 19.1973 166.164 18.9496 165.811 18.8032C165.459 18.6568 165.071 18.6183 164.696 18.6926C164.322 18.7669 163.978 18.9507 163.708 19.2206C163.438 19.4905 163.254 19.8344 163.18 20.2088C163.106 20.5832 163.144 20.9713 163.29 21.3238C163.437 21.6763 163.685 21.9775 164.002 22.1891C164.32 22.4007 164.693 22.5133 165.075 22.5127C165.585 22.5117 166.074 22.3086 166.435 21.9478C166.796 21.587 166.999 21.0979 167 20.5877ZM165.075 22.0401C164.787 22.0408 164.505 21.9559 164.265 21.7962C164.025 21.6365 163.838 21.4091 163.727 21.143C163.616 20.8768 163.587 20.5838 163.643 20.301C163.699 20.0183 163.838 19.7586 164.042 19.5547C164.246 19.3509 164.506 19.2122 164.788 19.1561C165.071 19.1001 165.364 19.1292 165.63 19.2398C165.896 19.3504 166.124 19.5376 166.283 19.7775C166.443 20.0175 166.528 20.2994 166.527 20.5877C166.527 20.9729 166.374 21.3423 166.102 21.6147C165.83 21.8871 165.46 22.0401 165.075 22.0401Z" fill="#ADB5BD"></path> <path d="M165.798 20.2367C165.801 20.1568 165.789 20.077 165.761 20.0018C165.734 19.9267 165.692 19.8577 165.638 19.7989C165.569 19.7356 165.487 19.687 165.399 19.656C165.311 19.6249 165.217 19.6121 165.123 19.6182H164.429V21.5049H164.821V20.8864H165.064L165.412 21.5049H165.86L165.461 20.81C165.569 20.7609 165.66 20.6794 165.72 20.5768C165.78 20.4741 165.807 20.3553 165.798 20.2367ZM165.401 20.2367C165.404 20.2765 165.397 20.3164 165.383 20.3535C165.368 20.3906 165.345 20.4239 165.316 20.4511C165.286 20.4784 165.252 20.4988 165.214 20.511C165.176 20.5232 165.135 20.5268 165.096 20.5216H164.807V19.9517H165.085C165.287 19.9517 165.401 20.0456 165.401 20.2332V20.2367Z" fill="#ADB5BD"></path> <path d="M51.3244 14.9651V14.7045C51.3244 10.1492 48.3362 6.84131 44.2708 6.84131C40.2054 6.84131 37.1616 10.2048 37.1616 14.7323V14.9964C37.1616 19.5517 40.1498 22.8318 44.2152 22.8318C48.2806 22.8318 51.3244 19.4926 51.3244 14.9651ZM40.4417 14.9165V14.7392C40.4417 11.8657 41.9219 9.74961 44.2152 9.74961C46.4494 9.74961 48.0373 11.897 48.0373 14.7705V14.9443C48.0373 17.8178 46.5571 19.9652 44.2638 19.9652C42.0366 19.9582 40.4417 17.7796 40.4417 14.9165Z" fill="#ADB5BD"></path> <path d="M66.9362 15.0242V14.6176C66.9362 9.423 64.0348 6.84131 60.9562 6.84131C58.7533 6.84131 57.4156 8.11651 56.46 9.59673V7.1297H53.1799V26.8937H56.46V20.191C57.3878 21.5531 58.722 22.8005 60.9562 22.8005C64.0626 22.8005 66.9362 20.191 66.9362 15.0242ZM56.4009 14.9651V14.6767C56.4009 11.6572 58.0827 9.74266 60.0563 9.74266C62.0299 9.74266 63.6283 11.6294 63.6283 14.7045V14.9651C63.6283 18.0437 62.0612 19.8991 60.0563 19.8991C58.0514 19.8991 56.4009 17.9846 56.4009 14.9651Z" fill="#ADB5BD"></path> <path d="M81.1442 20.4516L79.4347 18.4189C78.4166 19.4057 77.3499 20.0451 75.894 20.0451C73.8891 20.0451 72.2942 18.6552 72.0023 16.0701H81.6376C81.6689 15.6044 81.6689 15.1388 81.6689 14.9373C81.6689 10.3229 79.4625 6.84131 75.2824 6.84131C71.5089 6.84131 68.7257 10.1492 68.7257 14.7636V14.9964C68.7257 19.8123 71.8008 22.8318 75.748 22.8318C76.7658 22.847 77.7749 22.6423 78.7063 22.2315C79.6376 21.8207 80.4692 21.2135 81.1442 20.4516ZM75.2824 9.59673C77.197 9.59673 78.3019 11.3688 78.4757 13.8046H71.9745C72.1934 11.1916 73.4826 9.59673 75.2824 9.59673Z" fill="#ADB5BD"></path> <path d="M91.3043 6.84131C89.2195 6.84131 87.9686 8.02964 87.0964 9.39519V7.1297H83.8163V22.5121H87.0964V13.1965C87.0964 11.0769 88.2848 9.80173 89.9978 9.80173C91.7108 9.80173 92.7567 10.9901 92.7567 13.1374V22.5191H96.0333V12.2097C96.0264 8.92958 94.2578 6.84131 91.3043 6.84131Z" fill="#ADB5BD"></path> <path d="M109.247 18.1308V18.0995C109.247 15.6916 107.447 14.5901 105.078 13.5164C103.278 12.7033 102.062 12.1787 102.062 11.164V11.0946C102.062 10.2537 102.784 9.58654 104.004 9.58654C105.224 9.58654 106.499 10.1668 107.659 10.9521L109.049 8.54066C107.594 7.49314 105.853 6.916 104.06 6.88672C101.186 6.88672 98.9797 8.62405 98.9797 11.3864V11.442C98.9797 13.9646 100.894 15.0105 103.188 15.9973C105.015 16.7791 106.207 17.2725 106.207 18.3775V18.4053C106.207 19.3643 105.422 20.0905 104.06 20.0905C102.698 20.0905 101.214 19.4199 99.8206 18.2906L98.2848 20.6395C99.8847 21.9942 101.904 22.753 104.001 22.7868C106.94 22.8007 109.247 21.1468 109.247 18.1308Z" fill="#ADB5BD"></path> <path d="M119.4 22.0783V19.3785C118.856 19.6675 118.248 19.8167 117.632 19.8128C116.589 19.8128 115.978 19.3194 115.978 18.131V9.94471H119.449V7.13021H115.974V2.98145H112.694V7.13021H111.009L111.551 9.94471H112.694V18.7982C112.694 21.7864 114.407 22.7454 116.669 22.7454C117.622 22.7588 118.562 22.5292 119.4 22.0783Z" fill="#ADB5BD"></path> <path d="M131.958 8.5238C130.971 7.50919 129.432 6.95671 127.441 6.95671C125.674 6.94683 123.931 7.36531 122.361 8.17633L123.288 10.7893C124.442 10.208 125.711 9.88993 127.003 9.85807C129.088 9.85807 130.311 10.9317 130.311 12.9853V13.6246C129.174 13.2194 127.976 13.0137 126.77 13.0166C123.521 13.0166 121.315 14.6392 121.315 17.9471V18.0931C121.315 21.0848 123.462 22.7943 126.016 22.7943C126.854 22.8282 127.687 22.646 128.434 22.265C129.181 21.8841 129.818 21.3173 130.283 20.6192V22.5059H133.504V12.9644C133.504 11.0499 133 9.5384 131.958 8.5238ZM130.342 17.3495C130.342 19.0868 128.89 20.369 127.003 20.3377C125.582 20.3099 124.508 19.4378 124.508 17.9054V17.8464C124.508 16.2202 125.609 15.2647 127.496 15.2647C128.472 15.2599 129.438 15.4464 130.342 15.8137V17.3495Z" fill="#ADB5BD"></path> <path d="M147.444 20.5073L145.676 18.3322C144.776 19.2321 143.876 19.8993 142.549 19.8993C140.311 19.8993 138.726 17.8978 138.726 14.9096V14.7637C138.726 11.8588 140.294 9.80184 142.444 9.80184C143.834 9.80184 144.734 10.4968 145.547 11.3377L147.375 8.92969C146.749 8.2512 145.985 7.71422 145.135 7.35469C144.285 6.99515 143.367 6.82133 142.444 6.84488C138.41 6.84488 135.419 10.1528 135.419 14.7359V15.0278C135.419 19.6143 138.323 22.8354 142.326 22.8354C143.3 22.8602 144.267 22.6636 145.153 22.2603C146.04 21.857 146.823 21.2576 147.444 20.5073Z" fill="#ADB5BD"></path> <path d="M157.483 14.5273L155.179 17.0013L158.268 22.5122H162.07L157.483 14.5273Z" fill="#ADB5BD"></path> <path d="M158.035 7.12954L152.782 13.8913V1.55615H149.505V22.5119H152.782V18.0713L161.924 7.12954H158.035Z" fill="#ADB5BD"></path> </svg> 