<?xml version="1.0" encoding="UTF-8"?> <svg xmlns="http://www.w3.org/2000/svg" width="102" height="30" viewBox="0 0 102 30" fill="none"> <path d="M10.8034 18.1686C10.8034 18.8428 10.6685 19.4664 10.382 20.0226C10.0955 20.5956 9.70787 21.0675 9.1854 21.472C8.67978 21.8765 8.07303 22.1799 7.36517 22.399C6.6573 22.6181 5.89888 22.7361 5.05618 22.7361C4.0618 22.7361 3.16854 22.6012 2.37641 22.3316C1.58427 22.0619 0.792135 21.6069 0 20.9833L1.31461 18.8597C1.9382 19.3821 2.51124 19.7698 3.01685 20.0226C3.52247 20.2585 4.04494 20.3934 4.56742 20.3934C5.22472 20.3934 5.74719 20.2248 6.13483 19.8877C6.52247 19.5507 6.72472 19.0956 6.72472 18.5226C6.72472 18.2866 6.69101 18.0507 6.6236 17.8316C6.55618 17.6125 6.42135 17.3934 6.2191 17.1743C6.03371 16.9552 5.76405 16.7024 5.42697 16.4495C5.08989 16.1799 4.66854 15.8597 4.12921 15.472C3.72472 15.1855 3.32023 14.899 2.94944 14.5956C2.5618 14.2922 2.20787 13.972 1.90449 13.6181C1.58427 13.2642 1.33146 12.8934 1.14607 12.4552C0.960674 12.0338 0.859551 11.5451 0.859551 10.9889C0.859551 10.3653 0.994382 9.77539 1.24719 9.26977C1.51685 8.7473 1.87079 8.3091 2.32584 7.93831C2.7809 7.56752 3.32023 7.28101 3.96067 7.07876C4.60112 6.87651 5.29214 6.77539 6.05056 6.77539C6.8427 6.77539 7.60113 6.87651 8.3427 7.09561C9.08427 7.31472 9.77528 7.61809 10.3989 8.02258L9.20225 9.94393C8.39326 9.37089 7.53371 9.08438 6.64045 9.08438C6.08427 9.08438 5.64607 9.21921 5.29214 9.50572C4.9382 9.79224 4.75281 10.1462 4.75281 10.5675C4.75281 10.972 4.90449 11.3428 5.22472 11.663C5.54494 11.9833 6.08427 12.4552 6.8427 13.0282C7.61798 13.6012 8.25843 14.09 8.76405 14.5282C9.26966 14.9495 9.67416 15.354 9.97753 15.7417C10.2809 16.1125 10.4831 16.5001 10.5843 16.8878C10.7528 17.2754 10.8034 17.6967 10.8034 18.1686Z" fill="#ADB5BD"></path> <path d="M24.2863 14.5785C24.2863 12.91 23.9492 11.5954 23.2751 10.6347C22.6009 9.67403 21.674 9.18527 20.511 9.18527C19.2807 9.18527 18.32 9.69089 17.5953 10.719C16.8706 11.7471 16.5167 13.1291 16.5167 14.8819C16.5167 16.5841 16.8706 17.9325 17.5785 18.91C18.2863 19.8875 19.247 20.3763 20.4773 20.3763C21.2189 20.3763 21.8257 20.1909 22.2976 19.8201C22.7863 19.4493 23.174 18.9605 23.4605 18.3875C23.7639 17.8145 23.9661 17.174 24.0841 16.4999C24.2189 15.8089 24.2863 15.1684 24.2863 14.5785ZM28.5504 14.4268C28.5504 15.6235 28.365 16.7358 27.9942 17.7302C27.6234 18.7414 27.1178 19.6178 26.4605 20.3594C25.8032 21.1178 25.0279 21.6909 24.1346 22.1122C23.2414 22.5336 22.2639 22.7358 21.2358 22.7358C20.7639 22.7358 20.3257 22.7021 19.9212 22.6179C19.5167 22.5336 19.129 22.3987 18.7582 22.2134C18.3875 22.028 18.0335 21.7752 17.6796 21.4718C17.3257 21.1684 16.9549 20.7976 16.5672 20.3426V29.9999H12.6403V7.12908H16.5504L16.5672 9.35381C17.2751 8.46055 18.0504 7.80324 18.8931 7.38189C19.7358 6.96054 20.6964 6.7583 21.7919 6.7583C22.7863 6.7583 23.6964 6.94369 24.5223 7.31448C25.3481 7.68527 26.056 8.20774 26.6627 8.8819C27.2695 9.55605 27.7245 10.3482 28.0448 11.292C28.3818 12.2527 28.5504 13.2808 28.5504 14.4268Z" fill="#ADB5BD"></path> <path d="M34.3145 0H30.2864V22.3652H34.3145V0Z" fill="#ADB5BD"></path> <path d="M47.4607 22.382L47.4439 20.3426C46.6686 21.2022 45.8764 21.8089 45.0675 22.1966C44.2585 22.5674 43.2978 22.7528 42.2191 22.7528C41.0225 22.7528 40.0113 22.5168 39.1854 22.0449C38.3596 21.573 37.7697 20.8651 37.3989 19.9213C37.2978 19.7022 37.2135 19.4662 37.163 19.2134C37.1124 18.9606 37.0618 18.691 37.0281 18.3707C36.9944 18.0505 36.9607 17.6966 36.9607 17.2921C36.9439 16.8876 36.9439 16.382 36.9439 15.7921V7.12915H40.9719V15.8426C40.9719 16.6179 41.0057 17.2078 41.0731 17.6123C41.1405 18.0168 41.2753 18.3876 41.4607 18.7078C41.9326 19.5674 42.7585 19.9887 43.9382 19.9887C45.4551 19.9887 46.5 19.3651 47.0562 18.1011C47.191 17.7808 47.309 17.4101 47.3596 17.0224C47.427 16.6348 47.4439 16.0617 47.4439 15.3202V7.1123H51.4719V22.382H47.4607Z" fill="#ADB5BD"></path> <path d="M64.8032 22.3656V13.6521C64.8032 12.8768 64.7695 12.2869 64.7021 11.8824C64.6347 11.4779 64.4998 11.1071 64.3144 10.7869C63.8425 9.92735 63.0167 9.506 61.8369 9.506C61.0785 9.506 60.438 9.65769 59.8987 9.97791C59.3594 10.2981 58.9549 10.7532 58.6852 11.3599C58.5335 11.7139 58.4493 12.0678 58.3987 12.4723C58.3481 12.8599 58.3144 13.4161 58.3144 14.124V22.3487H54.2526V7.11274H58.3144V9.15206C59.0897 8.29251 59.8819 7.68577 60.6908 7.29813C61.4998 6.92734 62.4605 6.7251 63.5392 6.7251C64.7358 6.7251 65.747 6.97791 66.5729 7.46667C67.3987 7.97229 67.9886 8.6633 68.3594 9.59027C68.4436 9.80937 68.5111 10.0453 68.5785 10.2813C68.6459 10.5172 68.6965 10.7869 68.7302 11.0903C68.7639 11.3936 68.7976 11.7476 68.8144 12.1689C68.8313 12.5903 68.8313 13.0959 68.8313 13.6858V22.3318H64.8032V22.3656Z" fill="#ADB5BD"></path> <path d="M81.708 22.6854L75.6575 14.2584V22.3652H71.5957V0H75.6575V13.1461H76.0788L81.4721 6.89326L84.5226 8.20787L79.3316 13.7528L85.4665 21.3708L81.708 22.6854Z" fill="#ADB5BD"></path> <path d="M88.9383 21.9605V19.2808L98.3933 14.6122L88.9383 10.028V7.28076L101.141 13.3987V15.8931L88.9383 21.9605Z" fill="#9BA4AD"></path> <path d="M90.1349 3.33691C90.8764 3.33691 91.4832 3.94365 91.4832 4.70208C91.4832 5.47736 90.8933 6.08411 90.1349 6.08411C89.3933 6.08411 88.7865 5.47736 88.7865 4.70208C88.7697 3.94365 89.3764 3.33691 90.1349 3.33691ZM90.118 3.55602C89.5113 3.55602 89.0225 4.07849 89.0225 4.71894C89.0225 5.37624 89.5113 5.88186 90.118 5.88186C90.7247 5.88186 91.2135 5.37624 91.2135 4.71894C91.2304 4.06163 90.7416 3.55602 90.118 3.55602ZM89.8652 5.49422H89.6292V3.96051C89.7641 3.94366 89.882 3.9268 90.0674 3.9268C90.3034 3.9268 90.4551 3.97736 90.5394 4.04478C90.6236 4.11219 90.6742 4.21332 90.6742 4.365C90.6742 4.56725 90.5394 4.68523 90.3708 4.73579V4.75265C90.5056 4.7695 90.5899 4.90433 90.6236 5.12343C90.6573 5.35938 90.691 5.46051 90.7247 5.49422H90.4719C90.4382 5.44366 90.4045 5.30882 90.3708 5.10657C90.3371 4.90433 90.236 4.83692 90.0506 4.83692H89.882V5.49422H89.8652ZM89.8652 4.65152H90.0337C90.236 4.65152 90.4045 4.5841 90.4045 4.38186C90.4045 4.24703 90.3034 4.11219 90.0337 4.11219C89.9495 4.11219 89.8989 4.11219 89.8652 4.12905V4.65152Z" fill="#96989A"></path> </svg> 