<?xml version="1.0" encoding="UTF-8"?> <svg xmlns="http://www.w3.org/2000/svg" width="168" height="30" viewBox="0 0 168 30" fill="none"> <path d="M58.4856 23.6281L53.9082 14.0113C52.8154 11.7388 51.6932 9.15736 51.31 7.94389L51.2216 8.03251C51.369 9.74819 51.3985 11.9093 51.4279 13.7136L51.5458 23.6281H48.2108V3.14908H52.0491L57.0097 13.1477C57.8411 14.8477 58.5422 16.6086 59.1068 18.4152L59.1953 18.3266C59.1068 17.2904 58.9005 14.3612 58.9005 12.4955L58.8416 3.14453H62.061V23.6236L58.4856 23.6281Z" fill="#ADB5BD"></path> <path d="M68.139 17.0287V17.256C68.139 19.3284 68.9075 21.5168 71.8299 21.5168C73.2174 21.5168 74.4281 21.0146 75.5504 20.0374L76.82 22.0213C75.331 23.3185 73.4195 24.0242 71.4468 24.0051C67.2253 24.0051 64.5682 20.9578 64.5682 16.1629C64.5682 13.5292 65.1282 11.7817 66.4295 10.3024C67.6402 8.91165 69.1161 8.28901 71.0069 8.28901C72.5234 8.2411 73.9977 8.7938 75.1105 9.82744C76.4096 11.0114 77.0603 12.8452 77.0603 16.3379V17.0197L68.139 17.0287ZM71.0024 10.7546C69.1728 10.7546 68.1684 12.2044 68.1684 14.6313H73.689C73.689 12.2089 72.628 10.7546 71.0024 10.7546Z" fill="#ADB5BD"></path> <path d="M94.3384 23.6873H91.2868L89.4572 16.7928C88.9856 15.018 88.4823 12.7024 88.4823 12.7024H88.4234C88.4234 12.7024 88.1967 14.1818 87.4485 16.9337L85.6484 23.6805H82.6058L78.5249 8.85292L81.7443 8.39844L83.3676 15.6497C83.7802 17.5131 84.1362 19.5856 84.1362 19.5856H84.2246C84.4423 18.2304 84.7283 16.8872 85.0816 15.5611L87.0019 8.63704H90.1918L91.8763 15.3907C92.4975 17.8176 92.8217 19.6515 92.8217 19.6515H92.9101C92.9101 19.6515 93.2638 17.3791 93.6492 15.627L95.1841 8.64159H98.5508L94.3384 23.6873Z" fill="#ADB5BD"></path> <path d="M117.475 23.628L115.704 20.4602C114.29 17.9469 113.342 16.5267 112.22 15.3905C112.056 15.1974 111.852 15.0426 111.622 14.937C111.392 14.8314 111.142 14.7775 110.889 14.7792V23.628H107.554V3.14893H113.784C118.362 3.14893 120.427 5.8122 120.427 9.0095C120.427 11.9387 118.538 14.6337 115.349 14.6337C116.088 15.0178 117.446 17.0016 118.507 18.7241L121.518 23.6371L117.475 23.628ZM112.75 5.9031H110.889V12.3841H112.63C114.401 12.3841 115.351 12.1568 115.967 11.5251C116.527 10.9638 116.874 10.1048 116.874 9.03905C116.886 6.9666 115.763 5.90083 112.75 5.90083V5.9031Z" fill="#ADB5BD"></path> <path d="M125.977 17.0287V17.256C125.977 19.3284 126.745 21.5168 129.668 21.5168C131.055 21.5168 132.266 21.0146 133.388 20.0374L134.658 22.0213C133.169 23.3185 131.257 24.0242 129.285 24.0051C125.063 24.0051 122.406 20.9578 122.406 16.1629C122.406 13.5292 122.966 11.7817 124.267 10.3024C125.478 8.91165 126.954 8.28901 128.845 8.28901C130.361 8.2411 131.836 8.7938 132.948 9.82744C134.247 11.0114 134.898 12.8452 134.898 16.3379V17.0197L125.977 17.0287ZM128.843 10.7546C127.013 10.7546 126.009 12.2044 126.009 14.6313H131.52C131.52 12.2089 130.466 10.7546 128.843 10.7546Z" fill="#ADB5BD"></path> <path d="M140.977 23.9556C137.698 23.9556 137.698 21.0014 137.698 19.7243V6.96694C137.736 5.5017 137.641 4.03605 137.415 2.58798L140.752 1.84717C140.979 2.75614 141.017 4.00824 141.017 5.96025V18.6563C141.017 20.6696 141.106 20.9946 141.342 21.3491C141.471 21.4971 141.644 21.5992 141.836 21.6401C142.027 21.6811 142.227 21.6587 142.405 21.5763L142.935 23.5897C142.313 23.8399 141.647 23.9642 140.977 23.9556Z" fill="#ADB5BD"></path> <path d="M146.615 6.43443C146.335 6.43178 146.059 6.37363 145.802 6.26336C145.545 6.15308 145.312 5.99286 145.117 5.79194C144.922 5.59101 144.769 5.35337 144.666 5.09273C144.563 4.83208 144.513 4.5536 144.518 4.27336C144.521 3.84796 144.651 3.43312 144.89 3.08159C145.129 2.73005 145.466 2.45769 145.86 2.29912C146.254 2.14055 146.686 2.10294 147.101 2.19106C147.517 2.27918 147.896 2.48905 148.192 2.794C148.488 3.09896 148.687 3.48522 148.763 3.90369C148.84 4.32216 148.79 4.75394 148.621 5.14415C148.452 5.53436 148.171 5.86538 147.814 6.09513C147.457 6.32488 147.039 6.44298 146.615 6.43443ZM144.992 23.6299V8.89092L148.27 8.29782V23.6276L144.992 23.6299Z" fill="#ADB5BD"></path> <path d="M157.57 24.0143C153.489 24.0143 151.222 21.1443 151.222 16.3199C151.222 10.8661 154.471 8.271 157.797 8.271C159.42 8.271 160.601 8.65504 161.93 9.89805L160.313 12.0569C159.427 11.257 158.66 10.9025 157.803 10.9025C157.305 10.894 156.816 11.0326 156.396 11.3008C155.976 11.5691 155.644 11.9553 155.441 12.4113C154.988 13.3203 154.822 14.7201 154.822 16.5835C154.822 18.6287 155.146 19.9285 155.826 20.6739C156.077 20.9494 156.383 21.1684 156.724 21.3165C157.065 21.4646 157.434 21.5383 157.806 21.5329C158.84 21.5329 159.846 21.0306 160.817 20.0535L162.351 22.0373C160.993 23.3917 159.576 24.0143 157.57 24.0143Z" fill="#ADB5BD"></path> <path d="M165.122 23.9573C164.688 23.9596 164.263 23.8326 163.901 23.5925C163.539 23.3525 163.256 23.0101 163.088 22.6087C162.921 22.2074 162.876 21.7652 162.959 21.3382C163.042 20.9112 163.25 20.5186 163.556 20.2101C163.862 19.9017 164.253 19.6913 164.679 19.6056C165.104 19.5198 165.546 19.5627 165.947 19.7287C166.348 19.8947 166.691 20.1763 166.933 20.5379C167.174 20.8995 167.303 21.3248 167.303 21.7599C167.304 22.0479 167.249 22.3332 167.14 22.5996C167.031 22.866 166.87 23.1082 166.667 23.3124C166.465 23.5165 166.224 23.6786 165.959 23.7892C165.694 23.8999 165.409 23.957 165.122 23.9573ZM165.122 19.9988C164.77 19.9833 164.421 20.0739 164.121 20.2589C163.821 20.4438 163.583 20.7147 163.438 21.0365C163.292 21.3583 163.247 21.7163 163.306 22.0643C163.366 22.4124 163.528 22.7346 163.772 22.9894C164.016 23.2442 164.331 23.4199 164.676 23.4938C165.02 23.5677 165.379 23.5366 165.706 23.4043C166.032 23.272 166.312 23.0446 166.509 22.7515C166.705 22.4585 166.81 22.1131 166.809 21.7599C166.815 21.5327 166.776 21.3065 166.695 21.0945C166.613 20.8824 166.49 20.6887 166.333 20.5246C166.176 20.3606 165.988 20.2294 165.78 20.1387C165.572 20.0481 165.349 19.9997 165.122 19.9965V19.9988ZM165.553 22.9779C165.457 22.812 165.417 22.7507 165.326 22.5689C165.083 22.1258 165.009 22.0008 164.92 21.9667C164.896 21.9546 164.87 21.9483 164.843 21.9485V22.9779H164.36V20.5123H165.267C165.363 20.5057 165.46 20.5198 165.551 20.5535C165.641 20.5873 165.724 20.64 165.792 20.7082C165.861 20.7763 165.914 20.8583 165.949 20.9488C165.983 21.0392 165.998 21.136 165.992 21.2327C166.007 21.3954 165.957 21.5572 165.855 21.6843C165.753 21.8114 165.605 21.8939 165.444 21.9144C165.482 21.9456 165.515 21.9815 165.544 22.0212C165.684 22.1985 166.133 22.9779 166.133 22.9779H165.553ZM165.301 20.9441C165.211 20.9189 165.118 20.9067 165.024 20.9077H164.848V21.5758H165.013C165.226 21.5758 165.319 21.5508 165.385 21.4918C165.448 21.4251 165.482 21.336 165.48 21.2441C165.487 21.1814 165.473 21.1182 165.441 21.0641C165.408 21.01 165.359 20.9679 165.301 20.9441Z" fill="#ADB5BD"></path> <path d="M36.6888 11.032C34.9544 3.04447 25.3983 -1.65263 15.3411 0.537989C5.28395 2.7286 -1.46089 10.982 0.271229 18.9673C2.00335 26.9526 11.5617 31.6543 21.6167 29.4614C31.6716 27.2685 38.4209 19.0264 36.6888 11.032ZM18.4812 22.3623C17.0283 22.3623 15.6081 21.9305 14.4001 21.1215C13.1922 20.3125 12.2506 19.1626 11.6947 17.8172C11.1387 16.4719 10.9932 14.9915 11.2767 13.5633C11.5601 12.1351 12.2597 10.8232 13.287 9.79351C14.3143 8.76382 15.6232 8.0626 17.0481 7.77851C18.473 7.49442 19.95 7.64022 21.2922 8.19748C22.6345 8.75475 23.7817 9.69844 24.5888 10.9092C25.396 12.12 25.8268 13.5435 25.8268 14.9997C25.8268 15.9666 25.6368 16.924 25.2676 17.8172C24.8985 18.7105 24.3574 19.5222 23.6753 20.2059C22.9932 20.8895 22.1834 21.4319 21.2922 21.8019C20.401 22.1719 19.4458 22.3623 18.4812 22.3623Z" fill="#9BA4AD"></path> <path d="M20.1044 4.69189C18.0186 4.69234 15.9796 5.31272 14.2455 6.47459C12.5114 7.63645 11.1599 9.28762 10.362 11.2193C9.56408 13.151 9.35554 15.2765 9.76275 17.327C10.17 19.3774 11.1746 21.2609 12.6497 22.739C14.1248 24.2172 16.0041 25.2238 18.0499 25.6316C20.0958 26.0393 22.2163 25.8298 24.1433 25.0296C26.0704 24.2294 27.7175 22.8745 28.8763 21.1361C30.0351 19.3977 30.6536 17.3539 30.6536 15.2632C30.6536 13.8748 30.3807 12.4999 29.8505 11.2172C29.3204 9.9345 28.5433 8.76902 27.5637 7.78736C26.5841 6.80569 25.4211 6.02706 24.1412 5.49594C22.8614 4.96481 21.4897 4.6916 20.1044 4.69189ZM18.4789 21.4306C17.2099 21.4306 15.9694 21.0534 14.9143 20.3467C13.8592 19.6401 13.0368 18.6357 12.5512 17.4606C12.0656 16.2855 11.9385 14.9925 12.1861 13.745C12.4336 12.4975 13.0447 11.3516 13.942 10.4522C14.8393 9.55285 15.9826 8.94036 17.2272 8.69222C18.4718 8.44408 19.7618 8.57143 20.9342 9.05817C22.1066 9.54492 23.1087 10.3692 23.8137 11.4268C24.5187 12.4843 24.895 13.7277 24.895 14.9996C24.895 16.7048 24.2193 18.3402 23.0165 19.5462C21.8138 20.7521 20.1824 21.43 18.4811 21.4306H18.4789Z" fill="#ADB5BD"></path> </svg> 