<?xml version="1.0" encoding="UTF-8"?> <svg xmlns="http://www.w3.org/2000/svg" width="131" height="32" viewBox="0 0 131 32" fill="none"> <path d="M97.7703 8.63447C96.0878 9.54583 96.1579 12.4902 97.9806 13.1913C99.9435 13.8923 102.047 13.9624 104.01 14.4531C104.5 14.5933 104.991 14.8037 105.201 15.2944C105.692 16.2759 105.271 17.748 104.15 18.0986C102.537 18.5893 100.645 18.5893 99.1023 17.9584C98.0507 17.5377 97.56 16.4862 97.4899 15.5047C97.0693 15.5047 96.5785 15.5047 96.1579 15.5748C96.228 16.5563 96.4383 17.6078 97.2095 18.2388C98.4713 19.2202 100.084 19.3604 101.626 19.4305C103.028 19.4305 104.57 19.2903 105.762 18.5192C107.164 17.5377 107.304 14.9439 105.622 14.1026C104.08 13.3315 102.327 13.2614 100.715 12.9108C99.9435 12.7005 99.0322 12.6304 98.3311 12.1397C97.4198 11.2984 97.8404 9.54583 99.0322 9.26541C100.574 8.84479 102.257 8.77468 103.729 9.33552C104.641 9.61594 104.991 10.5974 105.131 11.3685C105.552 11.3685 105.973 11.3685 106.463 11.3685C106.463 10.5273 106.183 9.61593 105.482 9.0551C104.36 8.14374 102.818 8.07364 101.486 8.07364C100.294 8.00354 98.9621 8.00353 97.7703 8.63447Z" fill="#ADB5BD"></path> <path d="M47.7859 8.9853C47.0849 8.35436 46.0333 8.14404 45.122 8.14404C43.0889 8.14404 41.0559 8.21415 39.0229 8.21415C39.0229 11.7895 39.0229 15.4349 39.0229 19.0102C39.3734 19.0102 39.7239 19.0102 40.0745 19.0102C40.0745 17.4679 40.0043 15.9256 40.0745 14.4534C41.8271 14.4534 43.5096 14.4534 45.2622 14.4534C46.5241 14.3833 47.9962 13.8225 48.487 12.5606C48.9076 11.3688 48.7674 9.82655 47.7859 8.9853ZM47.2251 12.3503C46.8746 13.2617 45.823 13.5421 44.9117 13.6122C43.2993 13.6823 41.6869 13.6122 40.1446 13.6122C40.1446 12.14 40.1446 10.5977 40.1446 9.12551C41.6869 9.12551 43.2292 9.12551 44.7715 9.12551C45.5426 9.12551 46.454 9.26571 46.9447 9.89665C47.4354 10.5276 47.5055 11.5091 47.2251 12.3503Z" fill="#ADB5BD"></path> <path d="M121.676 8.21415C121.676 11.7895 121.676 15.3648 121.676 19.0102C124.761 19.0102 127.915 19.0102 131 19.0102C131 18.7298 131 18.4494 131 18.0989C128.336 18.0288 125.672 18.0989 122.938 18.0288C122.938 14.7339 122.938 11.4389 122.938 8.14404C122.517 8.21415 122.097 8.21415 121.676 8.21415Z" fill="#ADB5BD"></path> <path d="M67.8354 9.616C67.8354 10.3871 67.8354 11.1583 67.8354 11.9294C67.3446 11.9294 66.924 11.9294 66.4333 11.9294C66.4333 12.1398 66.4333 12.4202 66.4333 12.6305C66.924 12.6305 67.4147 12.6305 67.8354 12.6305C67.8354 14.2429 67.8354 15.9254 67.8354 17.5378C67.8354 18.0285 67.9756 18.5193 68.3962 18.7997C69.1674 19.1502 70.0086 19.0801 70.8499 19.01C70.8499 18.7997 70.8499 18.5193 70.8499 18.3089C70.289 18.3791 69.7282 18.4492 69.2375 18.1687C68.8869 17.9584 68.957 17.5378 68.8869 17.1873C68.8869 15.645 68.8869 14.1728 68.8869 12.6305C69.5179 12.6305 70.1488 12.6305 70.7798 12.6305C70.7798 12.3501 70.7798 12.1398 70.7097 11.8593C70.0787 11.8593 69.4478 11.8593 68.8168 11.8593C68.8168 11.0882 68.8168 10.317 68.8168 9.5459C68.6065 9.616 68.1859 9.616 67.8354 9.616Z" fill="white"></path> <path d="M58.9329 12.3504C57.9514 12.9814 57.9514 14.8041 59.1432 15.2948C60.7556 15.8557 62.5783 15.7155 64.2608 16.2062C65.1021 16.4866 65.1722 17.7485 64.401 18.1691C63.2794 18.7299 61.9474 18.6598 60.7556 18.4495C59.9143 18.3093 59.2133 17.7485 59.1432 16.8371C58.7226 16.8371 58.3019 16.8371 57.9514 16.8371C58.0916 17.4681 58.2318 18.1691 58.7927 18.5897C59.704 19.2207 60.8958 19.2207 61.9474 19.2908C63.069 19.2908 64.2608 19.2207 65.2423 18.6598C66.0835 18.1691 66.3639 17.0474 65.8732 16.2763C65.5227 15.7155 64.8917 15.5051 64.2608 15.3649C62.9288 15.0845 61.5267 15.0845 60.1948 14.8041C59.704 14.6639 59.2834 14.3134 59.2834 13.8226C59.2834 13.1216 60.0545 12.7711 60.6855 12.6309C61.6669 12.4907 62.7886 12.4206 63.7701 12.8412C64.3309 13.0515 64.4711 13.6123 64.6113 14.1732C65.032 14.1732 65.3825 14.1732 65.8031 14.1732C65.733 13.5422 65.5227 12.8412 64.9619 12.4907C63.9103 11.7896 62.6484 11.7896 61.4566 11.8597C60.6154 11.7896 59.704 11.8597 58.9329 12.3504Z" fill="white"></path> <path d="M83.8195 12C83.3288 12.2103 83.0484 12.701 82.7679 13.1917C82.7679 12.7711 82.7679 12.3505 82.7679 12C82.4174 12 82.0669 12 81.6463 12C81.5762 14.3835 81.6463 16.697 81.6463 19.0805C81.9968 19.0805 82.3473 19.0805 82.6978 19.0805C82.6978 17.8887 82.6978 16.6269 82.6978 15.4351C82.6978 14.5938 82.9782 13.6124 83.6793 13.1216C84.4504 12.5608 85.4319 12.701 86.3433 12.701C86.3433 12.4206 86.3433 12.0701 86.3433 11.7897C85.502 11.7196 84.6608 11.6495 83.8195 12Z" fill="white"></path> <path d="M110.179 8.77529C111.721 8.00414 113.473 7.86393 115.156 8.00414C116.768 8.14435 118.381 8.70519 119.432 9.96707C120.764 11.3692 121.045 13.6125 120.484 15.4352C120.203 16.4868 119.502 17.2579 118.731 17.959C119.362 18.3796 119.993 18.8002 120.624 19.2909C120.344 19.5714 120.063 19.7817 119.783 20.0621C119.152 19.6415 118.521 19.1507 117.89 18.8002C117.399 18.8002 116.909 19.0806 116.348 19.2208C114.946 19.5013 113.403 19.5013 112.001 19.2208C110.459 18.9404 108.917 18.0291 108.075 16.627C107.234 15.295 107.164 13.5424 107.515 12.0702C107.935 10.598 108.917 9.40623 110.179 8.77529ZM112.282 9.05571C110.81 9.40623 109.407 10.4578 108.917 11.93C108.426 13.5424 108.566 15.4352 109.758 16.7672C110.81 17.959 112.352 18.4497 113.894 18.4497C115.577 18.5198 117.399 18.0291 118.521 16.6971C120.063 14.7342 119.853 11.5795 117.82 10.0372C116.278 8.70519 114.175 8.63508 112.282 9.05571Z" fill="#ADB5BD"></path> <path d="M67.8363 9.61621C68.1869 9.61621 68.5374 9.61621 68.958 9.61621C68.958 10.3874 68.958 11.1585 68.958 11.9297C69.589 11.9297 70.2199 11.9297 70.8508 11.9297C70.8508 12.2101 70.8508 12.4204 70.9209 12.7008C70.29 12.7008 69.6591 12.7008 69.0281 12.7008C69.0281 14.2431 69.0281 15.7153 69.0281 17.2576C69.0281 17.6081 69.0281 18.0287 69.3786 18.2391C69.8694 18.4494 70.4302 18.3793 70.991 18.3793C70.991 18.5896 70.991 18.87 70.991 19.0803C70.1498 19.1504 69.3085 19.2205 68.5374 18.87C68.0467 18.6597 67.9064 18.0988 67.9766 17.6081C67.9766 15.9957 67.9766 14.3132 67.9766 12.7008C67.4858 12.7008 66.9951 12.7008 66.5745 12.7008C66.5745 12.4905 66.5745 12.2101 66.5745 11.9998C67.0652 11.9998 67.4858 11.9998 67.9766 11.9998C67.8363 11.1585 67.8363 10.3874 67.8363 9.61621Z" fill="#ADB5BD"></path> <path d="M55.7779 12.3497C54.516 11.6487 52.9737 11.5786 51.5716 11.7889C50.3798 11.9992 49.2582 12.6301 48.7674 13.7518C48.2767 14.8735 48.2767 16.2055 48.8375 17.3271C49.4685 18.5189 50.8005 19.1498 52.0623 19.22C53.6747 19.3602 55.4975 19.1499 56.6892 17.888C57.9511 16.2756 57.6707 13.4013 55.7779 12.3497ZM55.5676 17.6076C54.9366 18.2385 54.0253 18.5189 53.184 18.5189C52.2026 18.589 51.151 18.3787 50.4499 17.7478C49.5386 16.9065 49.3984 15.5044 49.7489 14.3126C50.0994 13.2611 51.0809 12.6301 52.1325 12.4899C53.1139 12.3497 54.2356 12.4198 55.1469 12.9807C55.848 13.4013 56.1985 14.1724 56.2686 14.9436C56.4088 15.925 56.2686 16.9065 55.5676 17.6076Z" fill="#ADB5BD"></path> <path d="M58.9323 12.35C59.6333 11.8593 60.5447 11.7892 61.386 11.7191C62.5777 11.649 63.9097 11.649 64.8912 12.35C65.452 12.7006 65.6623 13.4016 65.7324 14.0325C65.3118 14.0325 64.9613 14.0325 64.5407 14.0325C64.4705 13.4717 64.2602 12.981 63.6994 12.7006C62.7179 12.2799 61.6664 12.2799 60.6148 12.4902C59.9839 12.5603 59.2127 12.9109 59.2127 13.682C59.1426 14.1727 59.6334 14.5934 60.1241 14.6635C61.4561 15.014 62.8581 14.9439 64.1901 15.2243C64.8211 15.3645 65.452 15.6449 65.8025 16.1357C66.2933 16.9068 66.0128 18.0986 65.1716 18.5192C64.1901 19.0801 62.9984 19.1502 61.8767 19.1502C60.8251 19.0801 59.6334 19.0801 58.722 18.4491C58.1612 18.0285 57.9508 17.3975 57.8807 16.6965C58.3014 16.6965 58.722 16.6965 59.0725 16.6965C59.0725 17.6079 59.8437 18.2388 60.6849 18.3089C61.8767 18.4491 63.2087 18.5893 64.3303 18.0285C65.1015 17.6079 65.0314 16.346 64.1901 16.0656C62.5076 15.5748 60.6849 15.715 59.0725 15.1542C57.9508 14.8037 57.9508 12.981 58.9323 12.35Z" fill="#ADB5BD"></path> <path d="M74.2153 11.8595C75.337 11.5791 76.5989 11.5791 77.7206 11.9296C78.3515 12.1399 78.8422 12.6307 79.333 13.0513C79.333 12.6307 79.4031 12.2801 79.4031 11.9296C79.7536 11.9296 80.1041 11.9296 80.4546 11.9296C80.5247 14.1028 80.4546 16.2761 80.5247 18.4493C80.5948 19.3607 80.3845 20.3421 79.6835 20.9731C78.7721 21.8143 77.4401 21.9545 76.2484 21.9545C75.1968 21.9545 74.0751 21.8844 73.0937 21.3937C72.4627 21.0432 72.1122 20.3421 71.972 19.6411C72.3225 19.6411 72.673 19.6411 73.0236 19.6411C73.2339 20.1318 73.4442 20.6927 73.9349 20.903C74.7061 21.2535 75.5473 21.2535 76.3886 21.2535C77.2999 21.1834 78.3515 21.0432 78.9123 20.272C79.4732 19.5009 79.333 18.5194 79.333 17.6081C78.2113 18.7998 76.4587 19.0102 74.9164 18.7998C73.9349 18.6596 72.9535 18.3091 72.2524 17.538C71.4813 16.5565 71.4112 15.2245 71.6916 14.1028C71.972 12.9812 73.0937 12.1399 74.2153 11.8595ZM75.1267 12.5606C74.3555 12.7008 73.5143 13.0513 73.0937 13.7523C72.6029 14.5936 72.6029 15.7152 72.8834 16.5565C73.2339 17.4679 74.2854 17.9586 75.1968 18.0988C76.3886 18.239 77.7907 18.0988 78.6319 17.1874C79.6134 15.9957 79.4732 13.9626 78.2113 13.0513C77.37 12.4203 76.1783 12.4203 75.1267 12.5606Z" fill="#ADB5BD"></path> <path d="M83.8197 12C84.6609 11.6495 85.5022 11.7196 86.3434 11.7196C86.3434 12 86.3434 12.3505 86.3434 12.6309C85.4321 12.6309 84.4506 12.4907 83.6795 13.0516C82.9784 13.5423 82.698 14.5238 82.698 15.365C82.698 16.5568 82.698 17.8187 82.698 19.0104C82.3475 19.0104 81.997 19.0104 81.6465 19.0104C81.5763 16.6269 81.5763 14.3135 81.6465 11.9299C81.997 11.9299 82.3475 11.9299 82.7681 11.9299C82.7681 12.3505 82.7681 12.7712 82.7681 13.1217C83.0485 12.7011 83.329 12.2103 83.8197 12Z" fill="#ADB5BD"></path> <path d="M86.7638 13.4714C87.4648 12.2796 88.937 11.7889 90.269 11.7188C91.6711 11.6487 93.2134 11.859 94.1949 12.9105C94.966 13.6116 95.1763 14.6631 95.2464 15.7147C92.5825 15.7147 89.9886 15.7147 87.3246 15.7147C87.3947 16.4158 87.6051 17.1869 88.1659 17.6776C89.2175 18.589 90.7597 18.7292 92.0216 18.3787C92.8629 18.1684 93.5639 17.5374 93.8443 16.6962C94.265 16.6962 94.6856 16.6962 95.0361 16.6962C94.6856 17.8879 93.634 18.7292 92.4422 19.0096C90.8298 19.3601 88.937 19.29 87.5349 18.3086C86.1329 17.3271 85.8524 15.0137 86.7638 13.4714ZM88.7968 12.9105C88.0257 13.3312 87.6051 14.1724 87.4648 15.0137C89.7082 15.0137 91.9515 15.0137 94.1949 15.0137C94.1248 14.5229 93.9846 13.9621 93.634 13.6116C92.4423 12.2095 90.269 12.0693 88.7968 12.9105Z" fill="#ADB5BD"></path> <path d="M18.412 0.572582C17.0801 0.362269 15.678 0.292165 14.346 0.502478C13.5748 0.642687 12.8037 0.993208 12.1728 1.34373C9.99952 0.642686 7.54586 0.222059 5.30252 0.642686C3.69012 0.923103 2.14783 1.90457 1.30657 3.37676C0.255009 5.12937 0.0446955 7.2325 0.184904 9.26552C0.465322 11.5089 1.02616 13.7522 1.6571 15.9254C2.21793 17.8183 2.84887 19.7111 3.90044 21.3936C4.46127 22.3049 5.30253 23.2864 6.4242 23.5668C7.33555 23.7771 8.24691 23.4967 8.94795 22.9359C9.29847 23.2864 9.7191 23.5668 10.2098 23.707C11.5418 24.1978 13.014 24.1978 14.346 23.6369C14.4161 25.4596 14.346 27.3525 15.047 29.035C15.3275 29.8762 15.7481 30.6474 16.5192 31.1381C17.3605 31.6989 18.3419 31.769 19.3234 31.6288C20.1647 31.4886 21.076 31.2082 21.7771 30.7876C22.5482 30.2968 23.1791 29.5958 23.5297 28.7545C24.3709 26.8617 24.441 24.8287 24.5111 22.7957C26.474 22.9359 28.5071 22.4451 29.9793 21.1132C30.5401 20.6224 31.0308 19.8513 30.8205 19.0801C30.6102 18.3791 29.8391 17.8884 29.138 17.9585C28.3669 18.0286 27.6658 18.2389 26.8947 18.2389C28.5772 15.2945 29.9092 12.1398 30.47 8.8449C30.6803 7.44281 30.8906 6.04072 30.47 4.63864C30.2597 3.86749 29.6988 3.23655 29.138 2.67571C27.8761 1.41383 26.1235 0.572582 24.3709 0.222061C22.3379 -0.198566 20.3049 0.0117474 18.412 0.572582Z" fill="white"></path> <path d="M18.3419 1.41403C20.4451 0.783086 22.6884 0.572773 24.7915 1.20371C26.474 1.69444 28.0163 2.67591 29.0679 4.07799C29.4885 4.63883 29.6287 5.40998 29.6287 6.11102C29.6989 7.3729 29.4184 8.63478 29.138 9.82655C28.3669 13.0514 26.9648 16.0658 25.2122 18.87C26.1936 19.2906 27.3153 19.0803 28.2968 18.9401C28.7174 18.87 29.2782 18.7298 29.5586 19.1504C29.8391 19.5711 29.5586 20.0618 29.2782 20.3422C27.806 21.8144 25.5627 22.1649 23.5998 21.8144C23.3895 23.567 23.1791 25.3196 22.8987 27.1423C22.7585 28.1238 22.408 29.1754 21.6368 29.8063C20.9358 30.4372 19.9543 30.7177 19.043 30.8579C18.1316 30.9981 17.01 30.928 16.3089 30.2269C15.5378 29.5259 15.047 28.4743 14.9769 27.4929C14.7666 25.7402 14.7666 23.9175 14.7666 22.1649C13.9254 22.866 12.8037 23.2866 11.682 23.2165C10.9109 23.1464 9.99952 23.0062 9.43868 22.4453C9.08816 22.1649 9.15827 21.6041 9.50879 21.3237C10.1397 20.8329 10.981 20.903 11.682 20.6226C12.2429 20.4824 12.5233 19.9216 12.8037 19.5711C12.1728 19.501 11.5418 19.3607 11.0511 19.0803C10.2098 19.9917 9.36858 20.9732 8.59743 21.8845C8.1067 22.4453 7.47576 22.9361 6.70461 22.7959C5.86336 22.6557 5.23242 22.0247 4.74169 21.3938C3.83033 20.0618 3.19939 18.5195 2.70866 16.9772C1.93752 14.4534 1.30658 11.9297 0.956054 9.33582C0.745741 7.3729 0.956055 5.26977 2.07772 3.65737C2.98908 2.32538 4.53138 1.62434 6.07367 1.48413C8.17681 1.27382 10.2799 1.69444 12.2429 2.39549C13.8553 1.34392 15.9584 1.13361 17.8512 1.55423C18.0615 1.41403 18.2017 1.48413 18.3419 1.41403ZM19.8842 1.97486C20.3049 2.25528 20.7255 2.46559 21.1461 2.74601C22.8286 3.86768 24.1606 5.48008 24.9318 7.30279C25.1421 7.86363 25.4225 8.35436 25.3524 8.9853C25.3524 10.1771 24.9318 11.3688 25.072 12.5606C25.2122 13.8225 25.4926 15.1545 25.1421 16.4164C25.072 16.837 24.7915 17.2576 24.6513 17.6782C24.6513 17.7483 24.7214 17.8886 24.7214 17.8886C24.8616 17.6782 25.0019 17.4679 25.1421 17.2576C26.474 15.0844 27.4555 12.7008 28.1566 10.2472C28.5071 8.9152 28.7875 7.51311 28.7875 6.11102C28.7875 5.55019 28.7174 4.91925 28.3669 4.42852C27.5957 3.44705 26.5442 2.6759 25.3524 2.18517C23.5998 1.62434 21.707 1.55424 19.8842 1.97486ZM14.9769 2.11507C13.6449 2.25528 12.3831 3.02643 11.6119 4.07799C10.5604 5.55019 10.0696 7.3729 9.92942 9.12551C11.0511 8.63478 12.2429 8.14405 13.5047 8.42447C14.2759 8.63478 14.9068 9.33582 15.047 10.107C15.3976 11.7194 15.6079 13.3318 15.2573 14.9442C14.9769 16.2061 14.2058 17.3277 13.9254 18.6597C14.2759 18.6597 14.6264 18.7298 14.9068 18.87C15.5378 19.2205 15.8883 19.9216 15.8182 20.6226C15.7481 22.3752 15.7481 24.1278 15.8883 25.8805C15.9584 26.5815 15.9584 27.3527 16.1687 28.0537C16.4491 28.8949 17.01 29.7362 17.9213 29.9465C18.9028 30.0867 19.8842 29.8063 20.7956 29.3857C21.6368 28.9651 22.0575 27.9836 22.1977 27.0722C22.4781 25.1794 22.6884 23.2866 22.8987 21.3938C22.9688 20.6927 22.8286 19.9917 23.2492 19.3608C23.4596 18.9401 23.8802 18.7999 24.2307 18.5896C23.9503 18.169 23.5998 17.7483 23.3193 17.3277C22.408 15.3648 21.1461 13.5421 20.7255 11.439C20.5853 10.5276 20.6554 9.47603 21.4265 8.84509C22.2678 8.14405 23.3895 8.21415 24.441 8.21415C23.8101 6.46154 22.6884 4.91924 21.2863 3.79757C19.4636 2.46559 17.1502 1.83465 14.9769 2.11507ZM5.65305 2.25528C4.46127 2.46559 3.2695 3.16664 2.63856 4.28831C1.79731 5.7605 1.7272 7.443 1.86741 9.0554C2.14783 11.1585 2.63856 13.2617 3.2695 15.3648C3.83033 17.1174 4.39117 18.87 5.37263 20.4123C5.72315 20.9732 6.14378 21.534 6.77472 21.7443C7.33555 21.8845 7.75618 21.3938 8.1067 21.0433C8.80774 20.1319 9.649 19.2906 10.4201 18.3793C9.29848 17.3978 8.73764 15.8555 8.87785 14.3132C9.01806 13.1916 9.08816 11.9998 9.01806 10.808C8.87785 9.19561 9.15827 7.51311 9.649 5.90071C9.99952 4.70893 10.6305 3.65737 11.4717 2.74601C9.57889 2.32538 7.54587 1.90476 5.65305 2.25528ZM21.9874 9.47603C21.4265 9.89666 21.4265 10.7379 21.5667 11.3688C21.9874 13.4019 23.1791 15.0844 24.0204 16.9071C24.7214 15.5751 24.3008 14.0328 24.1606 12.5606C24.0204 11.3688 24.3709 10.2472 24.441 9.12551C23.6699 9.12551 22.7585 8.9853 21.9874 9.47603ZM9.85931 10.2472C9.85931 11.2286 9.92941 12.2101 9.85931 13.1215C9.78921 13.9627 9.57889 14.804 9.78921 15.6452C10.0696 17.1875 11.4016 18.4494 13.014 18.4494C13.2243 17.6782 13.5047 16.9071 13.8553 16.2061C14.8367 14.3132 14.6264 12.14 14.1357 10.1771C13.9955 9.61624 13.5047 9.19561 12.9439 9.19561C11.8222 9.19561 10.7707 9.68634 9.85931 10.2472ZM24.0905 19.7113C23.8101 19.9917 23.8101 20.4123 23.8101 20.7628C24.441 20.9732 25.1421 20.9732 25.8431 20.903C26.8246 20.7628 27.8761 20.4824 28.6473 19.7113C27.4555 19.8515 26.1235 20.1319 24.9318 19.5711C24.6513 19.4309 24.3008 19.5711 24.0905 19.7113ZM12.5233 21.1134C11.8222 21.534 10.981 21.4639 10.35 21.8144C11.7521 22.5154 13.7852 22.3051 14.7666 20.9732C15.2573 20.4824 14.7666 19.501 14.1357 19.5711C13.4346 19.9917 13.1542 20.7628 12.5233 21.1134Z" fill="white"></path> <path d="M22.2678 9.75623C22.6885 9.47581 23.2493 9.47581 23.6699 9.61602C23.6699 10.1769 22.9689 10.5975 22.4781 10.3171C22.3379 10.247 22.0575 9.96654 22.2678 9.75623Z" fill="white"></path> <path d="M12.3832 9.82645C12.8039 9.68624 13.2946 9.75635 13.6451 10.0368C13.8554 10.2471 13.6451 10.5976 13.4348 10.6677C12.9441 11.0182 12.1729 10.6677 12.1028 10.1069C12.1028 9.96666 12.243 9.82645 12.3832 9.82645Z" fill="white"></path> <path d="M19.8844 1.9746C21.637 1.55397 23.5999 1.62407 25.2824 2.25501C26.4742 2.67564 27.5258 3.51689 28.2969 4.49835C28.7176 4.98908 28.7176 5.62002 28.7176 6.18086C28.7176 7.58295 28.4371 8.91493 28.0866 10.317C27.3856 12.7707 26.4041 15.1542 25.0721 17.3275C24.9319 17.5378 24.7917 17.7481 24.6515 17.9584C24.6515 17.8883 24.5814 17.7481 24.5814 17.7481C24.7216 17.3275 25.002 16.9068 25.0721 16.4862C25.4226 15.2243 25.1422 13.8923 25.002 12.6305C24.8618 11.4387 25.2824 10.2469 25.2824 9.05514C25.3525 8.4943 25.0721 7.93347 24.8618 7.37263C24.0206 5.54992 22.7587 3.93752 21.0762 2.81585C20.7958 2.46533 20.305 2.25501 19.8844 1.9746Z" fill="#ADB5BD"></path> <path d="M14.977 2.11433C17.1502 1.83391 19.4636 2.46485 21.2163 3.79683C22.6183 4.9185 23.8101 6.4608 24.371 8.21341C23.3895 8.21341 22.1977 8.1433 21.3565 8.84435C20.5853 9.47529 20.5152 10.5269 20.6554 11.4382C21.076 13.6114 22.3379 15.4342 23.2493 17.327C23.4596 17.8177 23.8101 18.1682 24.1606 18.5889C23.74 18.7992 23.3895 18.9394 23.1792 19.36C22.8287 19.9909 22.9689 20.692 22.8287 21.393C22.6183 23.2858 22.408 25.1787 22.1276 27.0715C21.9874 27.9828 21.5668 28.9643 20.7255 29.3849C19.8843 29.8056 18.8327 30.086 17.8512 29.9458C16.9399 29.8056 16.3089 28.8942 16.0986 28.0529C15.8883 27.3519 15.8883 26.5808 15.8182 25.8797C15.7481 24.1271 15.7481 22.3745 15.7481 20.6219C15.8182 19.9208 15.4677 19.2198 14.8368 18.8693C14.5563 18.7291 14.2058 18.659 13.8553 18.659C14.1357 17.3971 14.9069 16.2754 15.1873 14.9434C15.5378 13.331 15.3275 11.7186 14.977 10.1062C14.8368 9.33508 14.2058 8.63404 13.4347 8.42372C12.1728 8.1433 10.981 8.56393 9.85934 9.12477C9.99955 7.37216 10.4903 5.54944 11.5419 4.07725C12.3831 3.02568 13.645 2.32464 14.977 2.11433Z" fill="#ADB5BD"></path> <path d="M5.65342 2.25509C7.61634 1.90457 9.57926 2.25509 11.4721 2.81592C10.6308 3.72728 9.99989 4.77885 9.64937 5.97062C9.15864 7.51292 8.94832 9.19542 9.01843 10.8779C9.08853 12.0697 9.08853 13.1914 8.87822 14.3831C8.66791 15.8553 9.29885 17.3976 10.4205 18.4492C9.64937 19.3606 8.87822 20.2018 8.10707 21.1132C7.75655 21.5338 7.33592 21.9544 6.77509 21.8142C6.14415 21.6039 5.72352 21.0431 5.373 20.4822C4.39154 18.9399 3.8307 17.1873 3.26987 15.4347C2.63893 13.4017 2.1482 11.2986 1.86778 9.12532C1.72757 7.51292 1.79768 5.76031 2.63893 4.35822C3.26987 3.23655 4.39154 2.53551 5.65342 2.25509Z" fill="#ADB5BD"></path> <path d="M21.9876 9.47627C22.6886 8.98553 23.6701 9.05564 24.4412 9.12574C24.3711 10.2474 24.0206 11.3691 24.1608 12.5609C24.301 13.9629 24.6515 15.5052 24.0206 16.9073C23.1092 15.0846 21.9175 13.4021 21.5669 11.3691C21.4968 10.7381 21.4968 9.967 21.9876 9.47627ZM22.268 9.75668C22.0577 9.96699 22.268 10.2474 22.4783 10.3175C22.969 10.5979 23.6701 10.1773 23.6701 9.61647C23.2494 9.47626 22.6886 9.47626 22.268 9.75668Z" fill="#ADB5BD"></path> <path d="M9.85954 10.2469C10.7709 9.68611 11.8225 9.19538 12.874 9.26549C13.4349 9.26549 13.9256 9.68611 14.0658 10.2469C14.5565 12.2099 14.6967 14.3831 13.7854 16.2759C13.4349 16.977 13.1544 17.7481 12.9441 18.5193C11.3317 18.5193 9.99975 17.1873 9.71933 15.7151C9.50902 14.8738 9.78943 14.0326 9.78943 13.1913C9.92964 12.1398 9.85954 11.2284 9.85954 10.2469ZM12.3833 9.82632C12.2431 9.89643 12.1029 9.96653 12.1029 10.1067C12.173 10.6676 12.9441 11.0181 13.4349 10.6676C13.6452 10.5274 13.8555 10.2469 13.6452 10.0366C13.2947 9.75622 12.8039 9.68611 12.3833 9.82632Z" fill="#ADB5BD"></path> <path d="M24.0903 19.7116C24.3006 19.5714 24.6511 19.3611 24.9315 19.5714C26.0532 20.2023 27.3852 19.8518 28.647 19.7116C27.8759 20.4126 26.8944 20.7632 25.8429 20.9034C25.1418 20.9735 24.4408 21.0436 23.8098 20.7632C23.8098 20.4126 23.8098 19.992 24.0903 19.7116Z" fill="#ADB5BD"></path> <path d="M12.5235 21.1132C13.1545 20.7627 13.4349 19.9916 14.0658 19.5709C14.6968 19.5008 15.2576 20.4823 14.6968 20.973C13.7153 22.305 11.6823 22.5854 10.2802 21.8143C10.9812 21.5339 11.8225 21.5339 12.5235 21.1132Z" fill="#ADB5BD"></path> <path d="M18.4122 0.572922C20.305 0.0821913 22.3381 -0.128122 24.301 0.2224C26.0536 0.502818 27.7361 1.41417 29.0681 2.67605C29.6289 3.23689 30.1898 3.86783 30.4001 4.63898C30.8207 6.04106 30.6104 7.44315 30.4001 8.84524C29.7691 12.1401 28.5072 15.2948 26.8247 18.2392C27.5959 18.2392 28.2969 18.0289 29.0681 17.9588C29.7691 17.8887 30.6104 18.3794 30.7506 19.0805C30.9609 19.8516 30.4702 20.6228 29.9093 21.1135C28.367 22.4455 26.2639 22.8661 24.3711 22.796C24.2309 24.829 24.2309 26.8621 23.3896 28.7549C22.969 29.5961 22.4082 30.2972 21.637 30.7879C20.8659 31.2786 20.0246 31.4889 19.1834 31.6292C18.272 31.7694 17.2204 31.6993 16.3792 31.1384C15.608 30.6477 15.1874 29.8765 14.907 29.0353C14.2761 27.2827 14.3462 25.46 14.2059 23.6373C12.874 24.1981 11.4018 24.1981 10.0698 23.7074C9.57906 23.5672 9.15843 23.2867 8.80791 22.9362C8.10687 23.497 7.19551 23.7775 6.28416 23.5672C5.16249 23.2867 4.39134 22.3053 3.7604 21.3939C2.70883 19.7114 2.07789 17.8186 1.51706 15.9258C0.88612 13.7525 0.325284 11.5793 0.0448668 9.26586C-0.095342 7.23284 0.0448671 5.12971 1.16654 3.3771C2.00779 1.97501 3.55009 0.993547 5.16249 0.643025C7.47593 0.152295 9.85948 0.643026 12.0327 1.27397C12.7338 0.923444 13.4348 0.572921 14.2059 0.432713C15.6781 0.2224 17.0802 0.362609 18.4122 0.572922ZM18.3421 1.41417C18.2019 1.48428 17.9916 1.34407 17.8514 1.34407C15.9586 0.923443 13.8554 1.13376 12.243 2.18532C10.2801 1.48428 8.17698 1.06365 6.07384 1.27397C4.53155 1.41417 2.91915 2.18532 2.07789 3.4472C0.956223 5.1297 0.816014 7.23284 0.956223 9.12566C1.30675 11.7195 1.93768 14.2433 2.70883 16.6969C3.26967 18.2392 3.8305 19.7815 4.74186 21.1135C5.23259 21.7444 5.86353 22.4455 6.70478 22.5156C7.47593 22.5857 8.10687 22.1651 8.5976 21.6042C9.43885 20.6228 10.21 19.7114 11.0513 18.8001C11.6121 19.0805 12.243 19.2207 12.8039 19.2908C12.4533 19.7114 12.1729 20.2021 11.6822 20.3424C10.9811 20.6228 10.1399 20.5527 9.50896 21.0434C9.15843 21.3238 9.08833 21.8847 9.43885 22.1651C9.99969 22.7259 10.911 22.8661 11.6822 22.9362C12.8039 23.0063 13.9255 22.6558 14.7668 21.8846C14.7668 23.6373 14.7668 25.46 14.9771 27.2126C15.0472 28.2641 15.5379 29.3157 16.3091 29.9467C17.0101 30.5776 18.1318 30.7178 19.0432 30.5776C19.9545 30.3673 20.936 30.0869 21.637 29.526C22.4082 28.825 22.7587 27.8435 22.8989 26.8621C23.1793 25.1095 23.3896 23.3568 23.5999 21.5341C25.5629 21.8846 27.8062 21.464 29.2784 20.0619C29.5588 19.7815 29.9093 19.2207 29.5588 18.8702C29.2784 18.5196 28.7176 18.5897 28.2969 18.6598C27.3155 18.8702 26.1938 19.0805 25.2123 18.5897C26.9649 15.7856 28.367 12.7711 29.1382 9.54628C29.4186 8.35451 29.6289 7.09263 29.6289 5.83075C29.5588 5.12971 29.4887 4.35856 29.0681 3.79772C28.0165 2.39563 26.4742 1.41417 24.7917 0.923444C22.7587 0.643026 20.4452 0.783234 18.3421 1.41417Z" fill="#ADB5BD"></path> </svg> 