<?xml version="1.0" encoding="UTF-8"?> <svg xmlns="http://www.w3.org/2000/svg" width="110" height="30" viewBox="0 0 110 30" fill="none"> <path d="M37.7565 14.7125C38.1962 14.9492 38.8388 15.186 39.6844 15.3889C40.5299 15.5918 41.3754 15.6933 42.2548 15.6933C43.1004 15.6933 43.9121 15.5918 44.6223 15.3889C45.3326 15.186 45.9752 14.8478 46.4825 14.4419C46.9899 14.036 47.3957 13.5287 47.7001 12.9537C48.0045 12.3788 48.1398 11.7362 48.1398 11.0259C48.1398 10.1465 47.8692 9.36863 47.3619 8.69219C46.8546 8.01576 45.9752 7.47461 44.7576 7.06875L42.3901 6.32467C41.5107 6.02028 40.8681 5.71588 40.5637 5.41148C40.2255 5.10709 40.0564 4.70123 40.0564 4.22772C40.0564 3.55129 40.327 3.04396 40.8343 2.73956C41.3755 2.43517 42.0857 2.26606 43.0665 2.26606C44.2503 2.26606 45.3326 2.46899 46.2796 2.90867C46.584 3.04396 46.7869 3.1116 46.9222 3.1116C47.159 3.1116 47.2943 2.94249 47.2943 2.57045V1.79255C47.2943 1.5558 47.2604 1.38669 47.159 1.25141C47.0575 1.11612 46.8884 0.980831 46.6516 0.845544C46.4825 0.744079 46.2458 0.642614 45.9414 0.541148C45.637 0.439683 45.3326 0.372039 44.9944 0.270574C44.6562 0.20293 44.2841 0.135287 43.9121 0.0676432C43.54 0.0338214 43.168 0 42.796 0C42.0519 0 41.3416 0.101465 40.699 0.304396C40.0226 0.507326 39.4476 0.7779 38.9741 1.18376C38.4668 1.5558 38.0609 2.02931 37.7903 2.57045C37.4859 3.1116 37.3507 3.7204 37.3507 4.43065C37.3507 5.31002 37.6212 6.12174 38.1962 6.86582C38.7374 7.6099 39.6505 8.18487 40.8681 8.55691L43.3033 9.30099C44.115 9.57156 44.69 9.87596 44.9944 10.1804C45.2988 10.4847 45.4341 10.8906 45.4341 11.3641C45.4341 12.0406 45.1635 12.5817 44.5547 12.9537C43.9797 13.3258 43.168 13.4949 42.1195 13.4949C41.4431 13.4949 40.8005 13.4272 40.124 13.292C39.4476 13.1567 38.8388 12.9537 38.2977 12.717C38.1286 12.6493 37.9933 12.5817 37.858 12.5479C37.7565 12.5141 37.6551 12.4802 37.5536 12.4802C37.3168 12.4802 37.1815 12.6493 37.1815 13.0214V13.8669C37.1815 14.036 37.2154 14.1713 37.283 14.3404C37.3168 14.4081 37.4859 14.5434 37.7565 14.7125Z" fill="#ADB5BD"></path> <path d="M9.5155 6.59525C8.9067 6.49378 8.29791 6.45996 7.75676 6.45996C6.03185 6.45996 4.67898 6.89964 3.66433 7.74519C2.64968 8.62455 2.14235 9.74067 2.14235 11.195C2.14235 12.5479 2.54821 13.5964 3.35993 14.4081C4.17166 15.2198 5.28778 15.5918 6.70829 15.5918C8.66995 15.5918 10.3272 14.8139 11.6124 13.292C11.7816 13.664 11.9507 14.0022 12.1198 14.2728C12.2889 14.5434 12.4918 14.8139 12.7286 15.0507C12.8977 15.2198 13.033 15.2874 13.2359 15.2874C13.3712 15.2874 13.5065 15.2536 13.6756 15.1522L14.7241 14.4419C14.927 14.2728 15.0284 14.1375 15.0284 13.9346C15.0284 13.8331 14.9946 13.6978 14.927 13.5625C14.6902 13.1228 14.5211 12.717 14.3858 12.3788C14.2505 12.0067 14.1829 11.4994 14.1829 10.8906V5.44531C14.1829 3.61893 13.7094 2.23224 12.7962 1.35287C11.883 0.439682 10.4287 0 8.4332 0C7.52001 0 6.64065 0.101465 5.82892 0.304396C5.0172 0.507327 4.30694 0.7779 3.73197 1.0823C3.49522 1.18376 3.32611 1.31905 3.25847 1.42051C3.19082 1.52198 3.157 1.72491 3.157 1.99548V2.80721C3.157 3.14543 3.25847 3.34836 3.49522 3.34836C3.56286 3.34836 3.63051 3.34836 3.76579 3.31453C3.86726 3.28071 4.07019 3.21307 4.34076 3.1116C4.91574 2.87485 5.52453 2.67192 6.13332 2.53663C6.74211 2.40135 7.3509 2.3337 7.92587 2.3337C9.2111 2.3337 10.1243 2.60428 10.6316 3.1116C11.1728 3.61893 11.4095 4.53212 11.4095 5.78352V7.00111C10.7669 6.79818 10.1243 6.66289 9.5155 6.59525ZM11.4095 9.53774C11.4095 10.1127 11.3419 10.5862 11.2404 10.9921C11.1389 11.3979 10.936 11.7362 10.6654 12.0744C10.2258 12.5817 9.68461 12.9537 9.07581 13.1567C8.46702 13.3596 7.89205 13.4611 7.3509 13.4611C6.60682 13.4611 5.99803 13.2581 5.59217 12.8523C5.18631 12.4464 4.98338 11.8714 4.98338 11.0935C4.98338 10.248 5.25395 9.60538 5.7951 9.1657C6.33625 8.72602 7.18179 8.48927 8.26409 8.48927C8.77142 8.48927 9.27874 8.52309 9.81989 8.59073C10.361 8.65837 10.8684 8.75984 11.3419 8.86131V9.53774H11.4095Z" fill="#ADB5BD"></path> <path d="M19.8314 14.408C19.9328 14.7462 20.0343 14.9491 20.1696 15.0506C20.3049 15.1521 20.5078 15.2197 20.8122 15.2197H22.2327C22.5371 15.2197 22.7739 15.1521 22.9092 15.0506C23.0444 14.9491 23.1459 14.7124 23.2136 14.3742L25.784 3.61883L28.3883 14.3742C28.4559 14.7124 28.5574 14.9153 28.7265 15.0506C28.8618 15.1521 29.0985 15.2197 29.4029 15.2197H30.8235C31.1279 15.2197 31.3308 15.1521 31.4661 15.0506C31.6014 14.9491 31.7028 14.7124 31.8043 14.408L35.8629 1.48806C35.9305 1.31895 35.9644 1.18366 35.9982 1.0822C36.032 0.980732 36.032 0.913089 36.032 0.811623C36.032 0.541049 35.8967 0.405762 35.6262 0.405762H34.0703C33.766 0.405762 33.5292 0.473405 33.4277 0.574871C33.2924 0.676336 33.191 0.913089 33.0895 1.21748L30.1808 12.4125L27.5427 1.21748C27.4751 0.879267 27.3736 0.676336 27.2383 0.574871C27.1031 0.473405 26.8663 0.405762 26.5619 0.405762H25.209C24.9046 0.405762 24.6679 0.473405 24.5326 0.574871C24.3973 0.676336 24.2959 0.913089 24.2282 1.21748L21.6239 12.2772L18.7829 1.21748C18.6814 0.879267 18.58 0.676336 18.4447 0.574871C18.3094 0.473405 18.1065 0.405762 17.8021 0.405762H16.1786C15.9081 0.405762 15.7728 0.541049 15.7728 0.811623C15.7728 0.913089 15.8066 1.14984 15.9081 1.48806L19.8314 14.408Z" fill="#ADB5BD"></path> <path d="M44.6226 22.4917C38.467 25.0959 31.7365 26.3812 25.6486 26.3812C16.6182 26.3812 7.85835 23.9122 0.789596 19.7859C0.180804 19.4139 -0.292701 20.0565 0.214626 20.53C6.77605 26.4488 15.4344 30.0001 25.0736 30.0001C31.9394 30.0001 39.9214 27.8355 45.4343 23.7769C46.3475 23.1343 45.5696 22.1196 44.6226 22.4917Z" fill="#ADB5BD"></path> <path d="M41.1726 20.2253C40.6991 20.5635 40.7667 21.037 41.3079 20.9693C43.0666 20.7664 47.0238 20.2929 47.734 21.1723C48.4443 22.0855 46.9561 25.772 46.2797 27.4293C46.0768 27.9366 46.5164 28.1396 46.9561 27.7675C49.8986 25.2985 50.6765 20.1238 50.0677 19.3797C49.4589 18.6356 44.318 17.993 41.1726 20.2253Z" fill="#ADB5BD"></path> <path d="M62.9541 11.7701C62.8188 11.7701 62.7511 11.7024 62.7511 11.5671V2.53672C62.7511 2.40143 62.8188 2.33379 62.9541 2.33379H63.1908C63.3261 2.33379 63.3938 2.40143 63.4276 2.53672L63.4952 3.07787C63.9011 2.73965 64.3069 2.5029 64.679 2.36761C65.051 2.23232 65.4569 2.13086 65.8627 2.13086C66.7083 2.13086 67.3847 2.43525 67.8921 3.04405C68.3994 3.65284 68.6361 4.49838 68.6361 5.58068C68.6361 6.66298 68.3656 7.54234 67.8582 8.18496C67.3509 8.82757 66.6406 9.16579 65.7613 9.16579C64.9496 9.16579 64.2055 8.86139 63.529 8.2526V11.5333C63.529 11.6686 63.4614 11.7362 63.3261 11.7362H62.9541V11.7701ZM65.6598 8.48935C66.3701 8.48935 66.945 8.2526 67.2833 7.7791C67.6553 7.30559 67.8244 6.59533 67.8244 5.64832C67.8244 3.7543 67.1142 2.84112 65.6936 2.84112C64.9496 2.84112 64.2393 3.11169 63.4952 3.68666V7.57616C63.8673 7.88056 64.2055 8.11731 64.5437 8.2526C64.9157 8.42171 65.2878 8.48935 65.6598 8.48935Z" fill="#ADB5BD"></path> <path d="M71.9168 9.16602C71.3081 9.16602 70.8345 8.99691 70.4625 8.65869C70.0905 8.32047 69.9214 7.84697 69.9214 7.272C69.9214 6.62938 70.1581 6.12206 70.5978 5.75002C71.0375 5.37798 71.6463 5.17505 72.3903 5.17505C72.9991 5.17505 73.6079 5.27651 74.2844 5.47944V4.36332C74.2844 3.82218 74.1491 3.45014 73.9123 3.21338C73.6418 2.97663 73.2359 2.87517 72.6271 2.87517C72.0183 2.87517 71.3757 2.97663 70.6993 3.21338C70.6316 3.24721 70.564 3.24721 70.4963 3.24721C70.3949 3.24721 70.361 3.17956 70.361 3.0781V2.87517C70.361 2.80752 70.361 2.73988 70.3949 2.70606C70.4287 2.67224 70.4625 2.63841 70.5301 2.60459C71.2404 2.33402 71.9845 2.19873 72.7624 2.19873C73.5403 2.19873 74.1153 2.36784 74.4873 2.70606C74.8593 3.04427 75.0623 3.51778 75.0623 4.19422V8.89544C75.0623 9.03073 74.9946 9.09837 74.8593 9.09837H74.5888C74.4535 9.09837 74.3858 9.03073 74.3858 8.89544L74.3182 8.32047C73.5741 8.86162 72.7624 9.16602 71.9168 9.16602ZM72.0521 8.48958C72.3903 8.48958 72.7624 8.42194 73.1344 8.28665C73.5065 8.15136 73.9123 7.94843 74.3182 7.71168V6.05441C73.7094 5.8853 73.1344 5.81766 72.5933 5.81766C71.3419 5.81766 70.7331 6.29117 70.7331 7.23818C70.7331 7.64404 70.8345 7.94843 71.0713 8.18519C71.2742 8.38812 71.6124 8.48958 72.0521 8.48958Z" fill="#ADB5BD"></path> <path d="M77.3283 9.03034C77.1931 9.03034 77.1254 8.96269 77.1254 8.82741V2.53656C77.1254 2.40127 77.1931 2.33363 77.3283 2.33363H77.5651C77.7004 2.33363 77.768 2.40127 77.8018 2.53656L77.8695 3.31446C78.2077 2.94242 78.5459 2.67184 78.8503 2.53656C79.1885 2.36745 79.5268 2.2998 79.9326 2.2998C80.0679 2.2998 80.2032 2.2998 80.2708 2.2998C80.4061 2.2998 80.4738 2.36745 80.4738 2.50273V2.84095C80.4738 2.87477 80.4738 2.9086 80.4399 2.94242C80.4061 2.97624 80.3723 2.97624 80.3385 2.97624C80.2708 2.97624 80.2032 2.97624 80.1355 2.97624C80.0679 2.97624 79.9664 2.97624 79.865 2.97624C79.4591 2.97624 79.0871 3.04388 78.7827 3.21299C78.4783 3.34828 78.1739 3.61885 77.8695 3.95707V8.86123C77.8695 8.99652 77.8018 9.06416 77.6666 9.06416H77.3283V9.03034Z" fill="#ADB5BD"></path> <path d="M84.0249 9.09809C83.5176 9.09809 83.1117 8.9628 82.8412 8.69223C82.5706 8.42165 82.4353 8.01579 82.4353 7.47464V3.01017H81.353C81.2177 3.01017 81.1501 2.94253 81.1501 2.80724V2.67195C81.1501 2.60431 81.1501 2.53666 81.1839 2.50284C81.2177 2.46902 81.2516 2.4352 81.353 2.4352L82.4353 2.33373L82.5368 0.575C82.5368 0.507357 82.5706 0.439713 82.6044 0.405892C82.6382 0.37207 82.6721 0.37207 82.7397 0.37207H82.9765C83.1117 0.37207 83.1794 0.439713 83.1794 0.575V2.29991H85.1072C85.2425 2.29991 85.3102 2.36755 85.3102 2.50284V2.77342C85.3102 2.9087 85.2425 2.97635 85.1072 2.97635H83.1794V7.407C83.1794 7.77904 83.247 8.01579 83.4161 8.1849C83.5853 8.35401 83.822 8.42165 84.194 8.42165C84.4646 8.42165 84.6676 8.38783 84.8705 8.35401C84.9719 8.35401 85.0396 8.32019 85.1072 8.32019C85.1749 8.32019 85.2087 8.28636 85.2425 8.28636C85.344 8.28636 85.3778 8.35401 85.3778 8.45547V8.65841C85.3778 8.79369 85.344 8.89516 85.2425 8.92898C84.8705 9.06427 84.4646 9.09809 84.0249 9.09809Z" fill="#ADB5BD"></path> <path d="M86.9677 9.03037C86.8324 9.03037 86.7648 8.96273 86.7648 8.82744V2.53659C86.7648 2.4013 86.8324 2.33366 86.9677 2.33366H87.2383C87.3736 2.33366 87.4412 2.4013 87.475 2.53659L87.5427 3.11156C87.9824 2.80716 88.422 2.57041 88.8955 2.4013C89.369 2.23219 89.8425 2.16455 90.2822 2.16455C90.9248 2.16455 91.4322 2.33366 91.7704 2.67188C92.1086 3.0101 92.2777 3.51742 92.2777 4.19386V8.86126C92.2777 8.99655 92.2101 9.06419 92.0748 9.06419H91.7028C91.5675 9.06419 91.4998 8.99655 91.4998 8.86126V4.49825C91.4998 3.92328 91.3984 3.51742 91.1616 3.24685C90.9248 2.97627 90.5866 2.84099 90.1131 2.84099C89.2338 2.84099 88.3544 3.11156 87.5089 3.68653V8.82744C87.5089 8.96273 87.4412 9.03037 87.3059 9.03037H86.9677Z" fill="#ADB5BD"></path> <path d="M97.1476 9.2333C96.0992 9.2333 95.2874 8.92891 94.7801 8.35394C94.239 7.74514 93.9684 6.86578 93.9684 5.68202C93.9684 4.5659 94.239 3.68653 94.7801 3.07774C95.3213 2.46895 96.0653 2.16455 97.0462 2.16455C97.8579 2.16455 98.4667 2.4013 98.9064 2.84099C99.346 3.31449 99.549 3.95711 99.549 4.83647C99.549 5.17469 99.5152 5.44526 99.4813 5.64819C99.4475 5.78348 99.3799 5.85113 99.2446 5.85113H94.7463C94.7463 6.76431 94.9492 7.47457 95.3551 7.91425C95.7609 8.35394 96.3697 8.59069 97.2153 8.59069C97.8579 8.59069 98.4667 8.48922 99.0417 8.25247C99.1431 8.21865 99.2446 8.18483 99.2784 8.18483C99.3122 8.18483 99.346 8.18483 99.3799 8.21865C99.4137 8.25247 99.4137 8.28629 99.4137 8.32012V8.52305C99.4137 8.65833 99.3461 8.7598 99.2784 8.79362C98.602 9.06419 97.8917 9.2333 97.1476 9.2333ZM98.7711 5.20851C98.7711 5.07322 98.7711 4.93794 98.7711 4.76883C98.7711 4.12621 98.602 3.65271 98.2976 3.31449C97.9932 2.97627 97.5197 2.84099 96.9447 2.84099C95.558 2.84099 94.8139 3.61889 94.7125 5.20851H98.7711Z" fill="#ADB5BD"></path> <path d="M101.409 9.03034C101.274 9.03034 101.206 8.96269 101.206 8.82741V2.53656C101.206 2.40127 101.274 2.33363 101.409 2.33363H101.646C101.781 2.33363 101.849 2.40127 101.883 2.53656L101.95 3.31446C102.289 2.94242 102.627 2.67184 102.931 2.53656C103.269 2.36745 103.608 2.2998 104.013 2.2998C104.149 2.2998 104.284 2.2998 104.352 2.2998C104.487 2.2998 104.555 2.36745 104.555 2.50273V2.84095C104.555 2.87477 104.555 2.9086 104.521 2.94242C104.487 2.97624 104.453 2.97624 104.419 2.97624C104.352 2.97624 104.284 2.97624 104.216 2.97624C104.149 2.97624 104.047 2.97624 103.946 2.97624C103.54 2.97624 103.168 3.04388 102.864 3.21299C102.559 3.34828 102.255 3.61885 101.95 3.95707V8.86123C101.95 8.99652 101.883 9.06416 101.747 9.06416H101.409V9.03034Z" fill="#ADB5BD"></path> <path d="M62.9541 23.7768C62.8188 23.7768 62.7511 23.7092 62.7511 23.5739V17.3169C62.7511 17.1816 62.8188 17.1139 62.9541 17.1139H63.2246C63.3599 17.1139 63.4276 17.1816 63.4614 17.3169L63.529 17.8918C63.9687 17.5874 64.4084 17.3507 64.8819 17.1816C65.3554 17.0125 65.8289 16.9448 66.2686 16.9448C66.9112 16.9448 67.4186 17.1139 67.7568 17.4522C68.095 17.7904 68.2641 18.2977 68.2641 18.9741V23.6415C68.2641 23.7768 68.1964 23.8445 68.0612 23.8445H67.6891C67.5538 23.8445 67.4862 23.7768 67.4862 23.6415V19.2447C67.4862 18.6697 67.3847 18.2639 67.148 17.9933C66.9112 17.7227 66.573 17.5874 66.0995 17.5874C65.2201 17.5874 64.3408 17.858 63.4952 18.433V23.5739C63.4952 23.7092 63.4276 23.7768 63.2923 23.7768H62.9541Z" fill="#ADB5BD"></path> <path d="M73.1344 23.9799C72.086 23.9799 71.2742 23.6755 70.7669 23.1005C70.2258 22.4917 69.9552 21.6124 69.9552 20.4286C69.9552 19.3125 70.2258 18.4331 70.7669 17.8243C71.3081 17.2155 72.0521 16.9111 73.033 16.9111C73.8447 16.9111 74.4535 17.1479 74.8932 17.5876C75.3328 18.0611 75.5358 18.7037 75.5358 19.5831C75.5358 19.9213 75.502 20.1918 75.4681 20.3948C75.4343 20.5301 75.3667 20.5977 75.2314 20.5977H70.7331C70.7331 21.5109 70.936 22.2212 71.3419 22.6608C71.7477 23.1005 72.3565 23.3373 73.2021 23.3373C73.8447 23.3373 74.4535 23.2358 75.0284 22.9991C75.1299 22.9652 75.2314 22.9314 75.2652 22.9314C75.299 22.9314 75.3328 22.9314 75.3667 22.9652C75.4005 22.9991 75.4005 23.0329 75.4005 23.0667V23.2696C75.4005 23.4049 75.3328 23.5064 75.2652 23.5402C74.5888 23.8446 73.8785 23.9799 73.1344 23.9799ZM74.7579 19.9551C74.7579 19.8198 74.7579 19.6845 74.7579 19.5154C74.7579 18.8728 74.5888 18.3993 74.2844 18.0611C73.98 17.7229 73.5065 17.5876 72.9315 17.5876C71.5448 17.5876 70.8007 18.3655 70.6993 19.9551H74.7579Z" fill="#ADB5BD"></path> <path d="M79.2562 23.8785C78.7489 23.8785 78.343 23.7432 78.0724 23.4726C77.8019 23.2021 77.6666 22.7962 77.6666 22.255V17.7567H76.6181C76.4828 17.7567 76.4152 17.6891 76.4152 17.5538V17.4185C76.4152 17.3509 76.4152 17.2832 76.449 17.2494C76.4828 17.2156 76.5166 17.1818 76.6181 17.1818L77.7004 17.0803L77.8019 15.3216C77.8019 15.2539 77.8357 15.1863 77.8695 15.1525C77.9033 15.1187 77.9372 15.1187 78.0048 15.1187H78.2416C78.3768 15.1187 78.4445 15.1863 78.4445 15.3216V17.0465H80.3723C80.5076 17.0465 80.5753 17.1141 80.5753 17.2494V17.52C80.5753 17.6553 80.5076 17.7229 80.3723 17.7229H78.4445V22.1536C78.4445 22.5256 78.5121 22.7624 78.6812 22.9315C78.8503 23.1006 79.0871 23.1682 79.4591 23.1682C79.7297 23.1682 79.9326 23.1344 80.1356 23.1006C80.237 23.1006 80.3047 23.0668 80.3723 23.0668C80.44 23.0668 80.4738 23.0329 80.5076 23.0329C80.6091 23.0329 80.6429 23.1006 80.6429 23.2021V23.405C80.6429 23.5403 80.6091 23.6417 80.5076 23.6756C80.1018 23.8108 79.6959 23.8785 79.2562 23.8785Z" fill="#ADB5BD"></path> <path d="M83.5855 23.7768C83.4502 23.7768 83.3825 23.7091 83.3487 23.6077L81.2518 17.4183C81.2179 17.3168 81.1841 17.2492 81.1841 17.2154C81.1841 17.1477 81.2518 17.0801 81.3532 17.0801H81.7929C81.8944 17.0801 81.9958 17.1477 82.0297 17.2492L83.856 22.8974L85.4795 17.283C85.5133 17.1477 85.6148 17.1139 85.7162 17.1139H86.1897C86.325 17.1139 86.3927 17.1815 86.4265 17.283L88.0161 22.9312L89.8763 17.2492C89.9101 17.1477 89.9778 17.0801 90.1131 17.0801H90.5189C90.6204 17.0801 90.688 17.1139 90.688 17.2154C90.688 17.2492 90.6542 17.3168 90.6204 17.4183L88.4558 23.6077C88.422 23.743 88.3205 23.7768 88.219 23.7768H87.7794C87.6441 23.7768 87.5764 23.7091 87.5426 23.6077L85.9192 17.9594L84.3295 23.6077C84.2957 23.743 84.1943 23.7768 84.0928 23.7768H83.5855Z" fill="#ADB5BD"></path> <path d="M94.6111 23.98C93.6302 23.98 92.8862 23.6756 92.345 23.033C91.8039 22.3904 91.5333 21.5448 91.5333 20.4287C91.5333 19.3126 91.8039 18.4332 92.345 17.8245C92.8862 17.2157 93.6302 16.8774 94.6111 16.8774C95.5919 16.8774 96.336 17.1818 96.8771 17.8245C97.4183 18.4332 97.6889 19.3126 97.6889 20.4287C97.6889 21.5448 97.4183 22.4242 96.8771 23.033C96.336 23.6756 95.5919 23.98 94.6111 23.98ZM94.6111 23.3036C96.1331 23.3036 96.911 22.3566 96.911 20.4625C96.911 18.5685 96.1331 17.6215 94.6111 17.6215C93.0891 17.6215 92.3112 18.5685 92.3112 20.4625C92.3112 22.3566 93.0553 23.3036 94.6111 23.3036Z" fill="#ADB5BD"></path> <path d="M99.6167 23.7768C99.4814 23.7768 99.4138 23.7091 99.4138 23.5739V17.3168C99.4138 17.1815 99.4814 17.1139 99.6167 17.1139H99.8534C99.9887 17.1139 100.056 17.1815 100.09 17.3168L100.158 18.0947C100.496 17.7227 100.834 17.4521 101.139 17.3168C101.477 17.1477 101.815 17.0801 102.221 17.0801C102.356 17.0801 102.492 17.0801 102.559 17.0801C102.694 17.0801 102.762 17.1477 102.762 17.283V17.6212C102.762 17.655 102.762 17.6889 102.728 17.7227C102.694 17.7565 102.661 17.7565 102.627 17.7565C102.559 17.7565 102.492 17.7565 102.424 17.7565C102.356 17.7565 102.255 17.7565 102.153 17.7565C101.747 17.7565 101.375 17.8242 101.071 17.9933C100.767 18.1286 100.462 18.3991 100.158 18.7373V23.6415C100.158 23.7768 100.09 23.8444 99.9549 23.8444H99.6167V23.7768Z" fill="#ADB5BD"></path> <path d="M104.183 23.7766C104.047 23.7766 103.98 23.7089 103.98 23.5736V14.1712C103.98 14.0359 104.047 13.9683 104.183 13.9683H104.555C104.69 13.9683 104.758 14.0359 104.758 14.1712V20.09L107.937 17.249C108.038 17.1475 108.14 17.1137 108.275 17.1137H108.749C108.85 17.1137 108.918 17.1475 108.918 17.249C108.918 17.2828 108.884 17.3504 108.782 17.4519L105.569 20.2929L109.053 23.506C109.121 23.5736 109.188 23.6413 109.188 23.6751C109.188 23.7766 109.121 23.8104 109.019 23.8104H108.41C108.309 23.8104 108.207 23.7766 108.106 23.6751L104.724 20.5297V23.6075C104.724 23.7428 104.656 23.8104 104.521 23.8104H104.183V23.7766Z" fill="#ADB5BD"></path> </svg> 