<?xml version="1.0" encoding="UTF-8"?> <svg xmlns="http://www.w3.org/2000/svg" width="99" height="32" viewBox="0 0 99 32" fill="none"> <path d="M32.3721 15.9991C32.3719 20.2429 30.6663 24.3128 27.6307 27.3135C24.5951 30.3142 20.478 32 16.1851 32C7.24615 32 0 24.8367 0 16C0 7.16326 7.24705 0 16.1851 0C25.1232 0 32.3703 7.16415 32.3703 16.0018" fill="#ADB5BD"></path> <path d="M16.2735 9.73054L20.4568 19.875L14.1385 14.9856L16.2735 9.73054ZM23.7045 22.2115L17.2696 6.99654C17.0863 6.55817 16.7278 6.32568 16.2726 6.32568C15.8174 6.32568 15.4327 6.55817 15.2484 6.99654L8.18588 23.6854H10.6018L13.397 16.8047L21.7402 23.4272C22.0762 23.6934 22.3182 23.8141 22.6325 23.8141C23.2629 23.8141 23.8138 23.35 23.8138 22.68C23.8138 22.5708 23.774 22.3978 23.7036 22.2115H23.7045Z" fill="white"></path> <path d="M54.249 20.9436C54.0826 20.9436 53.9035 20.9002 53.7785 20.7274L48.4408 13.5206V20.8715H47.2236V11.8191C47.2236 11.4496 47.5142 11.1707 47.8462 11.1707C48.0396 11.1707 48.206 11.2289 48.3302 11.4016L53.6534 18.5937V11.2713H54.8707V20.309C54.8715 20.393 54.856 20.4763 54.8249 20.554C54.7939 20.6316 54.748 20.7022 54.69 20.7613C54.6319 20.8205 54.5629 20.8671 54.487 20.8984C54.4111 20.9297 54.3299 20.9451 54.2481 20.9436H54.249ZM61.2906 21.0304C60.0743 21.0304 58.8013 20.7718 57.6128 20.3099L57.9034 19.2726C58.9956 19.6421 60.1849 19.8915 61.2906 19.8915C62.8254 19.8915 63.6279 19.3299 63.6279 18.5373C63.6279 17.8168 63.0054 17.4566 60.8624 16.4183C58.7194 15.38 57.8755 14.7187 57.8755 13.4208C57.8755 11.7923 59.0919 11.13 61.3878 11.13C62.3414 11.13 63.8168 11.3332 64.6517 11.5919L64.4583 12.6578C63.4612 12.4134 62.4407 12.2833 61.4157 12.2699C59.7981 12.2699 59.1341 12.5867 59.1341 13.3802C59.1341 14.158 59.6182 14.4887 61.8853 15.5712C64.2784 16.7102 64.8856 17.2866 64.8856 18.4689C64.8856 20.1843 63.3085 21.035 61.2906 21.035V21.0304ZM67.6278 11.2556H68.8855V20.8549H67.6278V11.2556ZM77.2901 16.3961H74.1647V19.6541H77.2901C78.3544 19.6541 79.0048 18.9613 79.0048 17.996C79.0048 17.088 78.3274 16.3961 77.2901 16.3961ZM76.681 12.2449H74.1647V15.3154H76.681C77.6904 15.3154 78.4236 14.6522 78.4236 13.7294C78.4236 12.8213 77.7876 12.2449 76.681 12.2449ZM77.3036 20.7487H73.543C73.1832 20.7487 72.907 20.4605 72.907 20.1002V11.7979C72.9088 11.6257 72.9766 11.4612 73.0956 11.3399C73.2146 11.2185 73.3753 11.1501 73.543 11.1494H76.654C78.5613 11.1494 79.6949 12.1147 79.6949 13.6287C79.6949 14.46 79.2243 15.2138 78.5055 15.6608C79.5707 15.9934 80.2895 16.9005 80.2895 17.996C80.2895 19.5238 79.0597 20.7487 77.3027 20.7487H77.3036ZM83.9601 20.6425C83.6147 20.6425 83.3304 20.3395 83.3304 19.994V11.034H84.5899V19.4656H89.6126V20.6332L83.9601 20.6425ZM95.473 20.6951C92.9 20.6951 91.3526 19.716 91.3526 17.7392C91.3526 16.8026 91.8654 15.9084 92.8604 15.4909C92.0507 14.9718 91.6432 14.2365 91.6432 13.4291C91.6432 11.6418 92.9855 10.791 95.5117 10.791C96.5295 10.7954 97.5441 10.9065 98.5399 11.1226L98.4014 12.1895C97.3506 12.0168 96.3682 11.9161 95.4145 11.9161C93.7826 11.9161 92.9117 12.378 92.9117 13.4864C92.9117 14.3658 93.7142 15.0567 94.7794 15.0567H96.9367C97.0074 15.0556 97.0775 15.069 97.143 15.0961C97.2085 15.1231 97.2681 15.1634 97.3183 15.2144C97.3685 15.2654 97.4082 15.3262 97.4353 15.3932C97.4623 15.4601 97.476 15.532 97.4756 15.6045C97.4756 15.9213 97.2417 16.1661 96.9358 16.1661H94.6129C93.3957 16.1661 92.622 16.785 92.622 17.7364C92.622 19.134 93.8797 19.5525 95.4559 19.5525C96.3133 19.5525 97.4747 19.4379 98.4248 19.207L98.6047 20.2582C97.5898 20.5391 96.5439 20.6848 95.4928 20.6914L95.473 20.6951ZM40.3412 13.1557L42.5454 18.8255L39.2167 16.0913L40.3412 13.1557ZM44.2565 20.1316L40.8666 11.6279C40.7695 11.3831 40.5761 11.2529 40.3412 11.2529C40.2246 11.2508 40.1102 11.2856 40.0136 11.3528C39.917 11.4199 39.8429 11.516 39.8015 11.6279L36.0931 21.2096L37.3526 20.9547L38.8253 17.1092L43.2201 20.8106C43.3974 20.9584 43.5242 21.0267 43.6907 21.0267C43.7724 21.0281 43.8535 21.0126 43.9293 20.9813C44.0051 20.9499 44.074 20.9033 44.1319 20.8441C44.1899 20.785 44.2357 20.7145 44.2667 20.6369C44.2977 20.5592 44.3132 20.476 44.3123 20.3921C44.3066 20.3024 44.2871 20.2142 44.2548 20.1307L44.2565 20.1316Z" fill="#ADB5BD"></path> </svg> 