<?xml version="1.0" encoding="UTF-8"?> <svg xmlns="http://www.w3.org/2000/svg" width="107" height="30" viewBox="0 0 107 30" fill="none"> <path d="M43.82 19.468H42.3913C42.2957 19.468 42.2057 19.513 42.1476 19.5899C41.3179 20.8161 39.9164 21.6223 38.3227 21.6223C35.7728 21.6223 33.7076 19.5562 33.7076 17.0072C33.7076 14.4582 35.7737 12.392 38.3227 12.392C39.078 12.3919 39.8218 12.5772 40.4887 12.9318C41.1556 13.2863 41.7253 13.7992 42.1476 14.4254C42.2057 14.5004 42.2957 14.5473 42.3913 14.5473H43.82C43.8723 14.5467 43.9235 14.533 43.969 14.5073C44.0145 14.4816 44.0527 14.4448 44.0801 14.4003C44.1075 14.3559 44.1233 14.3052 44.1258 14.253C44.1284 14.2009 44.1177 14.1489 44.0947 14.102C43.5566 13.0329 42.732 12.1344 41.7129 11.5067C40.6939 10.879 39.5205 10.5468 38.3237 10.5471C34.7557 10.5471 31.8617 13.4401 31.8617 17.0091C31.8617 20.578 34.7547 23.471 38.3237 23.471C39.5203 23.4712 40.6935 23.1388 41.7124 22.5112C42.7312 21.8835 43.5557 20.985 44.0938 19.9162C44.1163 19.873 44.1275 19.8262 44.1275 19.7783C44.127 19.6968 44.0943 19.6187 44.0366 19.5611C43.9788 19.5035 43.9007 19.4711 43.8191 19.4709L43.82 19.468ZM48.1277 8.39093C48.1277 10.0315 45.6659 10.0315 45.6659 8.39093C45.6659 6.75036 48.1277 6.75036 48.1277 8.39093ZM47.8211 22.8523V10.8527H45.9743V22.8523C45.9748 22.9337 46.0074 23.0116 46.0649 23.0692C46.1225 23.1267 46.2004 23.1593 46.2818 23.1598H47.5127C47.5941 23.1593 47.672 23.1267 47.7296 23.0692C47.7872 23.0116 47.8197 22.9337 47.8202 22.8523H47.8211ZM55.8271 10.5527C53.9653 10.6409 52.4775 11.5305 51.5148 12.8889V11.1602C51.5143 11.0788 51.4817 11.0009 51.4242 10.9433C51.3666 10.8858 51.2887 10.8532 51.2073 10.8527H49.9773C49.8959 10.8532 49.818 10.8858 49.7604 10.9433C49.7029 11.0009 49.6703 11.0788 49.6698 11.1602V22.8523C49.6698 23.021 49.8067 23.1598 49.9773 23.1598H51.2082C51.2896 23.1593 51.3675 23.1267 51.4251 23.0692C51.4826 23.0116 51.5152 22.9337 51.5157 22.8523V17.0063C51.5157 14.5688 53.4188 12.5598 55.8234 12.4014C55.9051 12.4012 55.9834 12.3686 56.0412 12.3108C56.099 12.253 56.1315 12.1747 56.1318 12.093V10.8593C56.1313 10.7787 56.0994 10.7015 56.0429 10.644C55.9863 10.5866 55.9096 10.5535 55.829 10.5518L55.8271 10.5527ZM68.0892 19.4587H66.6605C66.5649 19.4587 66.4749 19.5037 66.4167 19.5805C65.5871 20.8067 64.1856 21.613 62.5919 21.613C60.042 21.613 57.9767 19.5468 57.9767 16.9978C57.9767 14.4488 60.0429 12.3827 62.5919 12.3827C64.1837 12.3827 65.5861 13.1889 66.4167 14.417C66.4749 14.492 66.5649 14.5388 66.6605 14.5388H68.0986C68.1801 14.5386 68.2583 14.5062 68.316 14.4486C68.3738 14.391 68.4065 14.3129 68.407 14.2314C68.4069 14.1834 68.3953 14.1361 68.3732 14.0935C67.8352 13.0246 67.0107 12.1262 65.9919 11.4985C64.973 10.8709 63.7998 10.5385 62.6031 10.5387C59.0342 10.5387 56.1412 13.4317 56.1412 17.0006C56.1412 20.5696 59.0342 23.4626 62.6031 23.4626C63.7998 23.4627 64.973 23.1304 65.9919 22.5027C67.0107 21.875 67.8352 20.9766 68.3732 19.9077C68.3957 19.8646 68.407 19.8177 68.407 19.7699C68.4065 19.6883 68.3738 19.6103 68.316 19.5527C68.2583 19.4951 68.1801 19.4627 68.0986 19.4624L68.0892 19.4587ZM71.7828 6.84317H70.5519C70.4705 6.84366 70.3926 6.87622 70.335 6.93378C70.2775 6.99134 70.2449 7.06926 70.2444 7.15066V22.8439C70.2449 22.9253 70.2775 23.0032 70.335 23.0607C70.3926 23.1183 70.4705 23.1509 70.5519 23.1514H71.7828C71.8642 23.1509 71.9421 23.1183 71.9997 23.0607C72.0572 23.0032 72.0898 22.9253 72.0903 22.8439V7.1591C72.0898 7.0777 72.0572 6.99978 71.9997 6.94222C71.9421 6.88466 71.8642 6.8521 71.7828 6.85161V6.84317ZM80.4075 10.5368C76.8386 10.5368 73.9455 13.4298 73.9455 16.9988C73.9455 20.5677 76.8386 23.4607 80.4075 23.4607C81.6042 23.4609 82.7774 23.1285 83.7962 22.5008C84.8151 21.8731 85.6395 20.9747 86.1776 19.9058C86.2835 19.7015 86.1335 19.4577 85.9039 19.4605H84.4667C84.3683 19.4605 84.2764 19.5074 84.2183 19.5871C83.3886 20.8096 81.9871 21.6139 80.3981 21.6139C78.0582 21.6139 76.1251 19.8721 75.8233 17.6137H86.5423C86.621 17.6131 86.6965 17.5825 86.7535 17.5282C86.8104 17.4739 86.8445 17.3999 86.8488 17.3212L86.8582 16.9978C86.8582 13.4289 83.9652 10.5359 80.3972 10.5359L80.4075 10.5368ZM75.9592 15.7679C76.4983 13.8179 78.2841 12.393 80.4075 12.393C82.5309 12.393 84.3167 13.8273 84.8558 15.7679H75.9592ZM104.741 6.53662C102.28 6.53662 102.28 10.2302 104.741 10.2302C107.203 10.2302 107.203 6.53662 104.741 6.53662ZM106.279 10.8443V22.8439C106.278 22.9253 106.246 23.0032 106.188 23.0607C106.131 23.1183 106.053 23.1509 105.971 23.1514H103.51C103.428 23.1509 103.35 23.1183 103.293 23.0607C103.235 23.0032 103.202 22.9253 103.202 22.8439V10.8443H106.279ZM95.1632 23.4673C98.18 23.4673 100.71 21.4002 101.424 18.6065C101.428 18.5859 101.431 18.5649 101.431 18.5437C101.431 18.4623 101.398 18.3844 101.341 18.3268C101.283 18.2693 101.205 18.2367 101.124 18.2362H98.5194C98.4605 18.2365 98.4029 18.2536 98.3535 18.2855C98.304 18.3174 98.2646 18.3627 98.24 18.4162C97.7038 19.5805 96.5291 20.3896 95.1632 20.3896C94.5557 20.3897 93.9593 20.2263 93.4367 19.9164C92.914 19.6066 92.4844 19.1618 92.193 18.6287C91.9016 18.0956 91.759 17.4939 91.7803 16.8867C91.8016 16.2795 91.986 15.6892 92.3141 15.1778C92.6421 14.6665 93.1018 14.2529 93.6449 13.9804C94.188 13.708 94.7943 13.5867 95.4004 13.6294C96.0064 13.6721 96.5898 13.8772 97.0893 14.2231C97.5888 14.569 97.9859 15.043 98.2391 15.5954C98.2638 15.6487 98.3032 15.6938 98.3527 15.7255C98.4022 15.7572 98.4597 15.7742 98.5184 15.7744H101.123C101.204 15.7739 101.282 15.7414 101.34 15.6838C101.397 15.6263 101.43 15.5483 101.43 15.4669C101.43 15.4461 101.427 15.4254 101.423 15.4051C100.71 12.6114 98.1791 10.5434 95.1623 10.5434C91.5943 10.5434 88.7003 13.4364 88.7003 17.0053C88.7003 20.5743 91.5943 23.4673 95.1623 23.4673H95.1632Z" fill="#ADB5BD"></path> <path d="M14.5525 18.5772C16.5253 18.5772 18.1246 16.9779 18.1246 15.0052C18.1246 13.0324 16.5253 11.4331 14.5525 11.4331C12.5797 11.4331 10.9805 13.0324 10.9805 15.0052C10.9805 16.9779 12.5797 18.5772 14.5525 18.5772Z" fill="#ADB5BD"></path> <path d="M14.5525 0.00523589C7.5628 0.00523589 1.69051 4.78629 0.0248592 11.2552C0.00930366 11.3133 0.00095527 11.3731 0 11.4332C0 11.8257 0.31926 12.1476 0.71441 12.1476H6.76334C6.90026 12.1481 7.03437 12.1087 7.14935 12.0344C7.26433 11.9601 7.35524 11.8539 7.41102 11.7289C7.41102 11.7289 7.42018 11.7119 7.42411 11.7027C8.67105 9.01256 11.3939 7.14541 14.5551 7.14541C18.8952 7.14541 22.4136 10.6625 22.4136 15.0026C22.4136 19.3427 18.8965 22.8598 14.5564 22.8598C11.3965 22.8598 8.67367 20.9927 7.42542 18.3025C7.42149 18.2934 7.41233 18.2763 7.41233 18.2763C7.29719 18.0225 7.04335 17.8576 6.76465 17.8576H0.715717C0.320567 17.8576 0.00130772 18.1769 0.00130772 18.5721C0.00198806 18.6322 0.0103412 18.692 0.026167 18.75C1.69182 25.2189 7.56542 30 14.5538 30C22.8389 29.9987 29.5669 23.2838 29.5669 15C29.5669 6.71624 22.8507 0 14.5669 0L14.5525 0.00523589Z" fill="#ADB5BD"></path> </svg> 