<?xml version="1.0" encoding="UTF-8"?> <svg xmlns="http://www.w3.org/2000/svg" width="72" height="30" viewBox="0 0 72 30" fill="none"> <path d="M43.0448 10.2112C41.47 10.2112 40.2973 10.9845 40.2973 12.8456C40.2973 14.2478 41.0702 15.2212 42.9601 15.2212C44.5619 15.2212 45.6498 14.2774 45.6498 12.7877C45.6498 11.0995 44.6762 10.2113 43.0448 10.2113V10.2112ZM39.8952 23.3517C39.5226 23.8091 39.1512 24.295 39.1512 24.8685C39.1512 26.0126 40.6102 26.357 42.6145 26.357C44.2748 26.357 46.5364 26.2407 46.5364 24.697C46.5364 23.7795 45.4484 23.7227 44.0735 23.6365L39.8951 23.3517H39.8952ZM48.3681 10.2977C48.8825 10.9563 49.4272 11.8725 49.4272 13.1892C49.4272 16.3665 46.9367 18.227 43.3308 18.227C42.4138 18.227 41.5837 18.1128 41.069 17.9699L40.124 19.4868L42.9289 19.6582C47.8815 19.9737 50.8004 20.1171 50.8004 23.9229C50.8004 27.2157 47.9099 29.0752 42.9289 29.0752C37.748 29.0752 35.773 27.7583 35.773 25.4972C35.773 24.2086 36.3456 23.5231 37.3475 22.577C36.4025 22.1776 36.0881 21.4624 36.0881 20.6892C36.0881 20.059 36.4025 19.4866 36.9186 18.9424C37.4336 18.399 38.0059 17.8544 38.693 17.2248C37.2906 16.538 36.2312 15.0494 36.2312 12.9309C36.2312 9.63943 38.4069 7.37891 42.7856 7.37891C44.0168 7.37891 44.7614 7.49221 45.4198 7.66503H51.002V10.0975L48.3681 10.298" fill="#ADB5BD"></path> <path d="M56.0406 5.09592C54.4086 5.09592 53.4643 4.15045 53.4643 2.51823C53.4643 0.888052 54.4086 0 56.0406 0C57.701 0 58.6456 0.888052 58.6456 2.51823C58.6456 4.15043 57.701 5.09592 56.0406 5.09592ZM52.3474 22.2981V20.0378L53.8078 19.8381C54.2087 19.78 54.2656 19.6948 54.2656 19.2644V10.8488C54.2656 10.5346 54.1801 10.3334 53.893 10.2482L52.3474 9.7038L52.6622 7.38603H58.588V19.2646C58.588 19.7234 58.6157 19.7802 59.0462 19.8383L60.5062 20.0381V22.2983H52.3472" fill="#ADB5BD"></path> <path d="M71.8256 21.1887C70.5942 21.7891 68.7912 22.3331 67.1588 22.3331C63.7526 22.3331 62.4649 20.9604 62.4649 17.7244V10.2253C62.4649 10.0539 62.4649 9.93891 62.235 9.93891H60.2316V7.39142C62.7513 7.1044 63.7525 5.84466 64.0674 2.72461H66.7871V6.7907C66.7871 6.99035 66.7871 7.07683 67.0164 7.07683H71.0522V9.93885H66.7872V16.7799C66.7872 18.469 67.1884 19.1268 68.7333 19.1268C69.5358 19.1268 70.365 18.927 71.0521 18.6692L71.8257 21.1889" fill="#ADB5BD"></path> <path d="M29.4122 13.6769L16.323 0.589279C15.5699 -0.164525 14.3474 -0.164525 13.5933 0.589279L10.8755 3.30738L14.323 6.75486C15.1244 6.48426 16.0431 6.66569 16.6816 7.30437C17.3235 7.94703 17.5036 8.8735 17.2262 9.67764L20.549 13.0004C21.3529 12.7234 22.2804 12.9024 22.9223 13.5454C23.8197 14.4425 23.8197 15.8963 22.9223 16.7937C22.0247 17.6914 20.571 17.6914 19.6729 16.7937C18.9981 16.1184 18.8312 15.1269 19.173 14.2955L16.0742 11.1967L16.0739 19.3512C16.2927 19.4595 16.4992 19.6041 16.6815 19.7856C17.5787 20.6827 17.5787 22.1362 16.6815 23.0347C15.7841 23.9317 14.3297 23.9317 13.4332 23.0347C12.5359 22.1362 12.5359 20.6827 13.4332 19.7856C13.655 19.5643 13.9115 19.3967 14.1853 19.2844V11.0541C13.9114 10.9423 13.6551 10.776 13.433 10.5528C12.7534 9.8737 12.5897 8.87618 12.9383 8.04157L9.53972 4.64251L0.565531 13.6164C-0.18851 14.3708 -0.18851 15.5933 0.565531 16.3472L13.654 29.4348C14.4075 30.1886 15.6296 30.1886 16.3842 29.4348L29.4121 16.409C30.1659 15.6548 30.1659 14.432 29.4121 13.678" fill="#ADB5BD"></path> </svg> 