<?xml version="1.0" encoding="UTF-8"?> <svg xmlns="http://www.w3.org/2000/svg" width="192" height="30" viewBox="0 0 192 30" fill="none"> <path d="M22.5255 7.8671H23.608L26.6935 4.7816L26.8448 3.47112C21.1021 -1.59823 12.3378 -1.05059 7.26847 4.6921C5.85997 6.286 4.83928 8.1846 4.28099 10.2388C4.62406 10.0981 5.00549 10.0747 5.36347 10.1748L11.5345 9.15628C11.5345 9.15628 11.8477 8.63635 12.0118 8.66831C14.7564 5.65313 19.3761 5.30153 22.5468 7.8671H22.5255Z" fill="#9BA4AD"></path> <path d="M31.0894 10.2383C30.3799 7.62581 28.9245 5.27759 26.9001 3.4834L22.5702 7.81333C24.3985 9.30707 25.4405 11.5594 25.3957 13.9204V14.6897C27.5245 14.6897 29.2505 16.4157 29.2505 18.5444C29.2505 20.6731 27.5245 22.3991 25.3957 22.3991H17.6863L16.917 23.179V27.803L17.6863 28.5723H25.3957C30.9318 28.6149 35.4556 24.1614 35.4982 18.6254C35.5238 15.2629 33.8681 12.1177 31.0894 10.2383Z" fill="#ADB5BD"></path> <path d="M9.9662 28.5237H17.6757V22.3527H9.9662C9.41643 22.3527 8.87519 22.2334 8.37443 22.0054L7.29195 22.342L4.18514 25.4276L3.91452 26.51C5.65544 27.8269 7.78205 28.5344 9.9662 28.5237Z" fill="#ADB5BD"></path> <path d="M9.96626 8.50643C4.42812 8.53839 -0.0317923 13.0537 0.000170735 18.5918C0.0193486 21.6837 1.46195 24.5945 3.91458 26.4782L8.38515 22.0076C6.44606 21.1318 5.58306 18.8475 6.45884 16.9085C7.33463 14.9694 9.61893 14.1064 11.558 14.9821C12.4125 15.3678 13.0965 16.054 13.4843 16.9085L17.9549 12.4379C16.0542 9.94903 13.0965 8.49365 9.96626 8.50643Z" fill="#ADB5BD"></path> <path d="M56.023 24.2155C53.3402 24.2496 50.7619 23.1906 48.8782 21.2813C46.9327 19.453 45.846 16.8917 45.8801 14.2217C45.8481 11.5518 46.9348 8.99258 48.8782 7.16216C50.7534 5.23372 53.3339 4.15337 56.023 4.17468C58.5843 4.14058 61.054 5.1357 62.8759 6.93629L60.9496 8.89669C59.6306 7.6203 57.8577 6.92137 56.023 6.94694C54.0988 6.9235 52.2514 7.70979 50.9345 9.11191C49.5665 10.4693 48.8121 12.3274 48.8441 14.2537C48.8271 16.1587 49.5814 17.9891 50.9345 19.3316C53.7217 22.1102 58.2157 22.1635 61.0689 19.4509C61.9191 18.5218 62.4391 17.3371 62.552 16.0841H56.055V13.314H65.2476C65.3371 13.8723 65.3733 14.437 65.3562 15.0038C65.4713 17.3669 64.6147 19.6746 62.9846 21.3921C61.1712 23.2779 58.6397 24.305 56.023 24.2155ZM77.3957 22.3745C74.8322 24.8313 70.7878 24.8313 68.2244 22.3745C66.9821 21.1705 66.3045 19.502 66.3513 17.7739C66.3045 16.0458 66.9842 14.3773 68.2244 13.1733C70.79 10.7228 74.8301 10.7228 77.3957 13.1733C78.6358 14.3773 79.3156 16.0458 79.2687 17.7739C79.3134 19.5042 78.6294 21.1726 77.385 22.3745H77.3957ZM70.2487 20.5675C71.572 21.9824 73.7923 22.0548 75.2072 20.7294C75.2626 20.6761 75.3181 20.6229 75.3692 20.5675C76.0916 19.8195 76.4815 18.8138 76.4517 17.7739C76.4836 16.7319 76.0937 15.7197 75.3692 14.9697C74.0076 13.5505 71.7531 13.5015 70.3318 14.8631C70.2956 14.8972 70.2594 14.9334 70.2253 14.9697C69.5008 15.7197 69.1108 16.7319 69.1428 17.7739C69.1151 18.8138 69.5093 19.8217 70.2359 20.5675H70.2487ZM91.4914 22.3745C88.9279 24.8313 84.8835 24.8313 82.3201 22.3745C81.0778 21.1705 80.4002 19.502 80.4471 17.7739C80.4002 16.0458 81.0799 14.3773 82.3201 13.1733C84.8835 10.7165 88.9279 10.7165 91.4914 13.1733C92.7315 14.3773 93.4113 16.0458 93.3644 17.7739C93.4134 19.502 92.7337 21.1705 91.4914 22.3745ZM84.3466 20.5675C85.6698 21.9824 87.8902 22.0548 89.3051 20.7294C89.3605 20.6761 89.4159 20.6229 89.467 20.5675C90.1894 19.8195 90.5794 18.8138 90.5495 17.7739C90.5815 16.7319 90.1915 15.7197 89.467 14.9697C88.1054 13.5505 85.851 13.5015 84.4318 14.8631C84.3956 14.8972 84.3593 14.9334 84.3252 14.9697C83.6008 15.7197 83.2108 16.7319 83.2428 17.7739C83.2151 18.8138 83.6093 19.8217 84.3359 20.5675H84.3466ZM100.759 29.9966C99.4608 30.0371 98.1887 29.6322 97.1531 28.848C96.2341 28.1569 95.5102 27.2391 95.0521 26.1845L97.5196 25.1552C97.7881 25.786 98.2079 26.34 98.7427 26.7683C99.3138 27.2286 100.032 27.4715 100.767 27.4502C101.709 27.5077 102.629 27.1519 103.29 26.4764C103.942 25.6901 104.264 24.6801 104.189 23.6615V22.7303H104.091C103.254 23.7233 101.999 24.2645 100.703 24.1921C99.0602 24.1964 97.4898 23.5145 96.3732 22.3084C95.1629 21.113 94.4938 19.4743 94.5215 17.7718C94.4916 16.0607 95.1607 14.4114 96.3732 13.2032C97.4877 11.9928 99.0581 11.3046 100.703 11.3088C101.391 11.3067 102.073 11.4601 102.695 11.7521C103.235 11.9865 103.714 12.338 104.104 12.7813H104.202V11.7521H106.887V23.2822C107.03 25.1254 106.407 26.9473 105.165 28.3175C103.983 29.4489 102.395 30.0541 100.759 29.9966ZM100.955 21.6819C101.89 21.7032 102.787 21.3048 103.401 20.5994C104.068 19.8345 104.422 18.8436 104.385 17.8272C104.426 16.7937 104.074 15.7858 103.401 15.0016C102.787 14.2942 101.89 13.8978 100.955 13.9192C99.9936 13.9 99.0709 14.2942 98.421 15.0016C97.705 15.7581 97.315 16.766 97.3385 17.8059C97.3172 18.8372 97.705 19.8345 98.421 20.5781C99.0666 21.292 99.9893 21.6947 100.955 21.6819ZM111.662 4.9013V23.8256H108.837V4.9013H111.662ZM119.414 24.2155C117.703 24.2603 116.052 23.5891 114.856 22.3638C113.644 21.1492 112.981 19.4893 113.026 17.7739C112.962 16.0543 113.599 14.3816 114.79 13.1393C115.915 11.9545 117.488 11.2982 119.12 11.3301C119.864 11.3216 120.599 11.4665 121.285 11.7521C121.903 12.0014 122.466 12.37 122.941 12.8345C123.35 13.2288 123.712 13.6677 124.023 14.145C124.275 14.5478 124.488 14.9718 124.663 15.4108L124.955 16.148L116.295 19.7109C116.832 20.9425 118.07 21.7181 119.412 21.6606C120.71 21.6649 121.914 20.9851 122.585 19.8749L124.75 21.3367C124.198 22.128 123.49 22.7987 122.67 23.3078C121.699 23.9215 120.565 24.2368 119.414 24.2155ZM115.798 17.5779L121.558 15.1849C121.381 14.763 121.064 14.4156 120.659 14.2004C120.207 13.9447 119.696 13.8147 119.176 13.8211C118.296 13.8446 117.458 14.2132 116.849 14.8503C116.109 15.5578 115.724 16.5572 115.798 17.5779Z" fill="#ADB5BD"></path> <path d="M139.757 24.2152C134.831 24.3004 130.769 20.3753 130.684 15.4487C130.682 15.3294 130.682 15.208 130.686 15.0886C130.571 10.1621 134.473 6.07717 139.397 5.9621C139.516 5.95997 139.638 5.95997 139.757 5.95997C142.221 5.88326 144.586 6.93591 146.178 8.81747L144.618 10.3325C143.448 8.86009 141.645 8.03544 139.768 8.11215C137.967 8.07167 136.226 8.76846 134.95 10.0385C133.622 11.3745 132.913 13.2028 132.99 15.0844C132.911 16.9659 133.622 18.7942 134.95 20.1303C136.226 21.4024 137.967 22.0971 139.768 22.0566C141.865 22.08 143.857 21.1467 145.18 19.523L146.74 21.0828C145.924 22.0587 144.899 22.8386 143.742 23.3671C142.493 23.9467 141.132 24.2365 139.757 24.2152Z" fill="#ADB5BD"></path> <path d="M150.93 23.8253H148.688V6.33936H150.93V23.8253Z" fill="#ADB5BD"></path> <path d="M154.591 13.3008C157.035 10.8737 160.981 10.8737 163.425 13.3008C164.585 14.526 165.209 16.1625 165.158 17.848C165.209 19.5336 164.585 21.1701 163.425 22.3953C160.981 24.8224 157.035 24.8224 154.591 22.3953C153.432 21.1701 152.807 19.5336 152.858 17.848C152.807 16.1625 153.429 14.526 154.591 13.3008ZM156.257 20.989C157.691 22.504 160.082 22.5701 161.599 21.136C161.65 21.0891 161.699 21.038 161.746 20.989C162.537 20.1409 162.954 19.0094 162.905 17.8502C162.957 16.691 162.539 15.5595 161.746 14.7114C160.312 13.1964 157.921 13.1303 156.404 14.5644C156.353 14.6113 156.304 14.6624 156.257 14.7114C155.467 15.5595 155.049 16.691 155.098 17.8502C155.053 19.0072 155.475 20.1345 156.268 20.9783L156.257 20.989Z" fill="#ADB5BD"></path> <path d="M177.574 23.8251H175.409V22.1694H175.345C174.959 22.798 174.414 23.3137 173.764 23.6632C173.091 24.0531 172.324 24.2598 171.544 24.2577C170.261 24.345 169.01 23.8422 168.145 22.8939C167.325 21.8562 166.913 20.5542 166.986 19.2352V11.873H169.227V18.8239C169.227 21.055 170.212 22.1694 172.183 22.1694C173.072 22.1971 173.917 21.7944 174.457 21.0869C175.038 20.3518 175.347 19.4376 175.334 18.5001V11.873H177.576V23.8251H177.574Z" fill="#ADB5BD"></path> <path d="M185.186 24.2152C183.647 24.2195 182.183 23.5525 181.18 22.3848C180.057 21.1447 179.456 19.5209 179.501 17.8482C179.456 16.1755 180.057 14.5517 181.18 13.3116C182.183 12.146 183.647 11.4769 185.186 11.4811C186.038 11.4684 186.88 11.6687 187.632 12.065C188.295 12.3974 188.855 12.9024 189.256 13.5268H189.354L189.256 11.8711V6.33936H191.497V23.8253H189.332V22.1696H189.234C188.834 22.7939 188.273 23.299 187.611 23.6314C186.865 24.0235 186.032 24.2259 185.186 24.2152ZM185.554 22.1696C186.579 22.1845 187.562 21.7583 188.25 20.9998C189.011 20.1325 189.401 19.001 189.332 17.8482C189.401 16.6975 189.011 15.5639 188.25 14.6966C186.89 13.2008 184.576 13.0921 183.08 14.4537C182.995 14.5304 182.914 14.6135 182.837 14.6966C182.075 15.5575 181.685 16.6869 181.755 17.8354C181.685 18.9839 182.075 20.1133 182.837 20.9742C183.528 21.7498 184.519 22.1845 185.554 22.1696Z" fill="#ADB5BD"></path> </svg> 