<?xml version="1.0" encoding="UTF-8"?> <svg xmlns="http://www.w3.org/2000/svg" width="117" height="30" viewBox="0 0 117 30" fill="none"> <path d="M54.7087 8.74617C54.0882 8.72678 53.584 9.21159 53.5646 9.81275C53.5646 9.83214 53.5646 9.87093 53.5646 9.89032V15.3978C50.9078 13.2646 47.0099 13.6912 44.8767 16.348C44.0041 17.4534 43.5193 18.8109 43.5193 20.2265C43.4611 23.6396 46.176 26.4515 49.5891 26.5097C53.0022 26.5678 55.8141 23.8529 55.8723 20.4398C55.8723 20.3622 55.8723 20.3041 55.8723 20.2265V9.89032C55.8723 9.58004 55.7559 9.28916 55.5426 9.07584C55.3099 8.86252 55.019 8.74617 54.7087 8.74617ZM53.2543 21.7197C52.8664 22.6506 52.1295 23.3875 51.1987 23.7947C50.2291 24.202 49.1431 24.202 48.1735 23.7947C47.2426 23.4069 46.5251 22.6506 46.1373 21.7391C45.73 20.7889 45.73 19.7029 46.1373 18.7333C46.5251 17.8024 47.262 17.0655 48.1735 16.6777C49.1431 16.2704 50.2291 16.2704 51.1987 16.6777C52.1295 17.0849 52.8664 17.8218 53.2543 18.7527C53.6615 19.6835 53.6615 20.7695 53.2543 21.7197Z" fill="#ADB5BD"></path> <path d="M67.6048 15.8631C65.2001 13.4584 61.2828 13.4584 58.8782 15.8631C57.7146 17.0266 57.0747 18.5974 57.0747 20.2264C57.0165 23.6394 59.7314 26.4513 63.1445 26.5095C66.5576 26.5677 69.3695 23.8528 69.4277 20.4397C69.4277 20.3621 69.4277 20.3039 69.4277 20.2264C69.4277 19.4119 69.2725 18.6168 68.9622 17.8605C68.652 17.1042 68.1866 16.4254 67.6048 15.8631ZM66.8097 21.7002C66.6158 22.1656 66.3249 22.5729 65.9758 22.9219C65.6267 23.271 65.2001 23.5619 64.7541 23.7558C63.7845 24.163 62.6985 24.163 61.7289 23.7558C60.798 23.3679 60.0611 22.6116 59.6733 21.7002C59.266 20.75 59.266 19.664 59.6733 18.6944C60.0611 17.7635 60.798 17.046 61.7289 16.6388C62.6985 16.2315 63.7845 16.2315 64.7541 16.6388C65.2195 16.8327 65.6267 17.1236 65.9758 17.4726C66.3249 17.8217 66.6158 18.2483 66.8097 18.6944C67.2169 19.6834 67.2169 20.7694 66.8097 21.7002Z" fill="#ADB5BD"></path> <path d="M93.1445 15.1849C93.1445 15.0297 93.1057 14.8746 93.0476 14.7388C92.9894 14.6031 92.8924 14.4867 92.7955 14.3704C92.6985 14.2734 92.5628 14.1765 92.427 14.1183C92.2913 14.0601 92.1361 14.0213 91.981 14.0213C91.7677 14.0213 91.5543 14.0795 91.3604 14.1959L84.767 18.4816V9.91013C84.767 9.59985 84.6506 9.30896 84.4373 9.09564C84.224 8.88233 83.9331 8.74658 83.6228 8.74658C82.9829 8.74658 82.4787 9.25078 82.4593 9.89074C82.4593 9.89074 82.4593 9.89074 82.4593 9.91013V25.2302C82.4593 25.5404 82.5756 25.8313 82.789 26.0446C83.0023 26.2774 83.2932 26.3937 83.6034 26.3937C83.9137 26.3937 84.2046 26.2774 84.4179 26.0446C84.6312 25.8313 84.767 25.5404 84.7476 25.2302V21.2547L86.0857 20.3821L91.1859 26.1028C91.3992 26.2967 91.6707 26.4131 91.9616 26.3937C92.1167 26.3937 92.2719 26.3743 92.4076 26.2967C92.5434 26.2386 92.6597 26.161 92.7761 26.0446C92.873 25.9283 92.97 25.8119 93.0282 25.6762C93.0864 25.5404 93.1251 25.3853 93.1251 25.2302C93.1251 24.9393 93.0088 24.6484 92.8149 24.4351L88.0831 19.1021L92.6985 16.0963C93.0088 15.9024 93.1639 15.5533 93.1445 15.1849Z" fill="#ADB5BD"></path> <path d="M74.0039 17.4727C74.353 17.1236 74.7796 16.8328 75.245 16.6388C75.7298 16.4449 76.234 16.3285 76.7576 16.3285C77.2231 16.3285 77.6691 16.4061 78.0957 16.5613C78.5223 16.7358 78.9296 16.9685 79.2787 17.2788C79.492 17.4533 79.7635 17.5309 80.035 17.5309C80.3452 17.5503 80.6555 17.4339 80.8688 17.2012C81.0822 16.9879 81.1985 16.6776 81.1985 16.3673C81.1985 16.0377 81.0628 15.708 80.7913 15.4947C79.6859 14.5057 78.2509 13.9627 76.7576 14.0015C73.3446 14.0015 70.5714 16.7746 70.5714 20.1876C70.5714 23.6007 73.3252 26.3544 76.7189 26.3738C78.2121 26.3738 79.6471 25.8502 80.7719 24.8806C81.0046 24.6673 81.1403 24.357 81.1403 24.0273C81.1597 23.4068 80.6749 22.9026 80.0737 22.8832C80.0543 22.8832 80.0156 22.8832 79.9962 22.8832C79.7247 22.8832 79.4726 22.9608 79.2593 23.1159C78.9102 23.4262 78.5223 23.6589 78.0957 23.8334C77.6691 23.9886 77.2037 24.0661 76.7576 24.0661C76.234 24.0661 75.7298 23.9692 75.245 23.7559C74.7796 23.5619 74.3724 23.271 74.0039 22.922C72.4913 21.4094 72.4913 18.9659 73.9845 17.4533C74.0039 17.4921 74.0039 17.4921 74.0039 17.4727Z" fill="#ADB5BD"></path> <path d="M116.047 14.8159C115.814 14.6026 115.562 14.4474 115.271 14.3505C114.942 14.2341 114.593 14.1565 114.244 14.1178C113.895 14.079 113.546 14.0596 113.196 14.0596C112.498 14.0596 111.781 14.1759 111.121 14.428C110.462 14.6607 109.861 15.0098 109.318 15.4364V15.2037C109.299 14.5638 108.756 14.079 108.116 14.0984C107.514 14.1178 107.03 14.6026 107.01 15.2037V25.2684C107.03 25.9084 107.573 26.3932 108.213 26.3738C108.814 26.3544 109.299 25.8696 109.318 25.2684V20.2458C109.318 19.7222 109.415 19.218 109.628 18.7332C109.822 18.2677 110.094 17.8605 110.462 17.5114C110.811 17.1624 111.238 16.8715 111.684 16.6776C112.169 16.4836 112.673 16.3673 113.196 16.3673C113.72 16.3673 114.224 16.4642 114.709 16.6388C114.864 16.7163 115.019 16.7551 115.194 16.7551C115.349 16.7551 115.504 16.7357 115.64 16.6582C115.776 16.6 115.892 16.5224 116.008 16.4061C116.105 16.3091 116.202 16.1733 116.26 16.0376C116.319 15.9019 116.357 15.7467 116.357 15.5916C116.377 15.3007 116.26 15.0292 116.047 14.8159Z" fill="#ADB5BD"></path> <path d="M105.342 17.8605C104.353 15.5722 102.104 14.079 99.6217 14.0596C96.2086 14.0596 93.4549 16.8133 93.4355 20.2264C93.4355 23.6394 96.2086 26.4126 99.6217 26.4126C101.095 26.4126 102.531 25.889 103.655 24.9193C103.675 24.8999 103.694 24.8806 103.694 24.8806C103.791 24.803 103.888 24.706 103.946 24.5897C104.315 24.0467 104.179 23.3292 103.655 22.9607C103.209 22.6698 102.627 22.728 102.24 23.0965C102.201 23.1352 102.085 23.2322 102.085 23.2516L102.065 23.271C101.735 23.5425 101.367 23.7752 100.96 23.9109C100.533 24.0661 100.087 24.1436 99.6217 24.1243C99.195 24.1243 98.7878 24.0661 98.3806 23.9303C97.9927 23.7946 97.6242 23.62 97.2946 23.3679C96.9649 23.1352 96.674 22.8444 96.4413 22.5147C96.1892 22.185 96.0147 21.7972 95.8983 21.4093H104.625C104.935 21.4093 105.226 21.293 105.439 21.0796C105.672 20.8663 105.788 20.5754 105.769 20.2652C105.788 19.4313 105.633 18.6168 105.342 17.8605ZM95.8983 19.1016C96.0147 18.6944 96.1892 18.3259 96.4413 17.9962C96.674 17.6666 96.9649 17.3757 97.2946 17.143C97.6242 16.9103 97.9927 16.7163 98.3806 16.5806C98.7684 16.4448 99.195 16.3867 99.6023 16.3867C100.01 16.3867 100.436 16.4448 100.824 16.5806C101.6 16.8327 102.278 17.3369 102.763 17.9962C103.015 18.3259 103.19 18.7138 103.326 19.1016H95.8983Z" fill="#ADB5BD"></path> <path d="M112.11 24.7251C111.664 24.7251 111.315 25.0936 111.315 25.5396C111.315 25.9856 111.684 26.3347 112.13 26.3347C112.576 26.3347 112.925 25.9662 112.925 25.5396C112.925 25.0742 112.556 24.7251 112.11 24.7251ZM112.11 26.1601C111.761 26.1795 111.47 25.908 111.451 25.559C111.432 25.2099 111.703 24.919 112.052 24.8996C112.401 24.8802 112.692 25.1517 112.711 25.5008C112.711 25.5202 112.711 25.5202 112.711 25.5396C112.731 25.8693 112.459 26.1601 112.13 26.1601C112.13 26.1601 112.13 26.1601 112.11 26.1601Z" fill="#ADB5BD"></path> <path d="M112.304 25.5399C112.401 25.5205 112.459 25.443 112.459 25.346C112.459 25.2684 112.44 25.2102 112.382 25.1715C112.304 25.1327 112.207 25.1133 112.11 25.1133C112.013 25.1133 111.897 25.1133 111.8 25.1327V25.9278H111.975V25.6175H112.052C112.149 25.6175 112.207 25.6563 112.227 25.7338C112.246 25.792 112.266 25.8696 112.285 25.9278H112.479C112.44 25.8696 112.421 25.792 112.421 25.7338C112.44 25.6563 112.382 25.5787 112.304 25.5399ZM112.072 25.4817H111.975V25.249C112.013 25.249 112.052 25.249 112.072 25.249C112.188 25.249 112.246 25.3072 112.246 25.3654C112.266 25.443 112.169 25.5011 112.072 25.4817Z" fill="#ADB5BD"></path> <path d="M41.4054 11.3444C41.2891 11.2475 40.2419 10.4524 37.9923 10.4524C37.4106 10.4524 36.8094 10.5106 36.2276 10.6075C35.801 7.64048 33.3382 6.20544 33.2412 6.12787L32.64 5.77881L32.2522 6.34119C31.7674 7.09749 31.3989 7.95076 31.1856 8.82342C30.7783 10.5106 31.0304 12.1007 31.8837 13.4582C30.8559 14.04 29.1882 14.1757 28.8391 14.1951H1.30183C0.584305 14.1951 0.00253105 14.7769 0.00253105 15.4944C-0.0362539 17.8991 0.370988 20.3037 1.20486 22.5727C2.15509 25.0549 3.57074 26.8972 5.39363 28.0219C7.44923 29.2825 10.8041 30 14.5857 30C16.2922 30 17.9987 29.8448 19.6859 29.5346C22.0324 29.1079 24.2819 28.2934 26.3569 27.1105C28.0634 26.1215 29.5954 24.861 30.8947 23.3872C33.086 20.9243 34.3853 18.1706 35.3356 15.7271C35.4713 15.7271 35.5877 15.7271 35.7234 15.7271C38.1087 15.7271 39.5825 14.7769 40.397 13.9624C40.94 13.4582 41.3472 12.8377 41.6381 12.1395L41.8126 11.6353L41.4054 11.3444Z" fill="#ADB5BD"></path> <path d="M3.86167 13.4004H7.54623C7.72077 13.4004 7.87591 13.2646 7.87591 13.0707V9.774C7.87591 9.59947 7.74016 9.44434 7.54623 9.44434H3.86167C3.68714 9.44434 3.532 9.58008 3.532 9.774V13.0707C3.55139 13.2646 3.68714 13.4004 3.86167 13.4004Z" fill="#ADB5BD"></path> <path d="M8.94253 13.4004H12.6271C12.8016 13.4004 12.9568 13.2646 12.9568 13.0707V9.774C12.9568 9.59947 12.821 9.44434 12.6271 9.44434H8.94253C8.76799 9.44434 8.61285 9.58008 8.61285 9.774V13.0707C8.63225 13.2646 8.76799 13.4004 8.94253 13.4004Z" fill="#ADB5BD"></path> <path d="M14.1203 13.4004H17.8049C17.9794 13.4004 18.1346 13.2646 18.1346 13.0707V9.774C18.1346 9.59947 17.9988 9.44434 17.8049 9.44434H14.1203C13.9458 9.44434 13.7906 9.58008 13.7906 9.774V13.0707C13.7906 13.2646 13.9264 13.4004 14.1203 13.4004Z" fill="#ADB5BD"></path> <path d="M19.2206 13.4004H22.9051C23.0797 13.4004 23.2348 13.2646 23.2348 13.0707V9.774C23.2348 9.59947 23.099 9.44434 22.9051 9.44434H19.2206C19.046 9.44434 18.8909 9.58008 18.8909 9.774V13.0707C18.8909 13.2646 19.046 13.4004 19.2206 13.4004Z" fill="#ADB5BD"></path> <path d="M8.94253 8.688H12.6271C12.8016 8.688 12.9568 8.53286 12.9568 8.35832V5.06161C12.9568 4.88708 12.821 4.73193 12.6271 4.73193H8.94253C8.76799 4.73193 8.61285 4.86768 8.61285 5.06161V8.35832C8.63225 8.53286 8.76799 8.688 8.94253 8.688Z" fill="#ADB5BD"></path> <path d="M14.1203 8.688H17.8049C17.9794 8.688 18.1346 8.53286 18.1346 8.35832V5.06161C18.1346 4.88708 17.9988 4.73193 17.8049 4.73193H14.1203C13.9458 4.73193 13.7906 4.86768 13.7906 5.06161V8.35832C13.7906 8.53286 13.9264 8.688 14.1203 8.688Z" fill="#ADB5BD"></path> <path d="M19.2206 8.688H22.9051C23.0797 8.688 23.2348 8.53286 23.2348 8.35832V5.06161C23.2348 4.88708 23.0797 4.73193 22.9051 4.73193H19.2206C19.046 4.73193 18.8909 4.86768 18.8909 5.06161V8.35832C18.8909 8.53286 19.046 8.688 19.2206 8.688Z" fill="#ADB5BD"></path> <path d="M19.2206 3.95606H22.9051C23.0797 3.95606 23.2348 3.82032 23.2348 3.62639V0.329674C23.2348 0.155142 23.0797 0 22.9051 0H19.2206C19.046 0 18.8909 0.13575 18.8909 0.329674V3.62639C18.8909 3.80092 19.046 3.95606 19.2206 3.95606Z" fill="#ADB5BD"></path> <path d="M24.3596 13.4004H28.0441C28.2187 13.4004 28.3738 13.2646 28.3738 13.0707V9.774C28.3738 9.59947 28.2381 9.44434 28.0441 9.44434H24.3596C24.185 9.44434 24.0299 9.58008 24.0299 9.774V13.0707C24.0493 13.2646 24.185 13.4004 24.3596 13.4004Z" fill="#ADB5BD"></path> </svg> 