<?xml version="1.0" encoding="UTF-8"?> <svg xmlns="http://www.w3.org/2000/svg" width="116" height="34" viewBox="0 0 116 34" fill="none"> <path d="M4.21338 33.7843C2.99575 33.3502 2.00727 32.4438 1.45098 31.2513C1.05093 30.3937 0.955573 28.9586 1.23482 27.998C1.60946 26.7093 2.83314 25.3891 4.05529 24.955L4.65558 24.7418V23.7758V22.8099L4.00675 22.6054C2.71084 22.1969 1.35503 21.049 0.659821 19.7716C-0.21994 18.1552 -0.21994 15.785 0.659821 14.1686C1.35503 12.8913 2.71084 11.7434 4.00675 11.3349L4.65558 11.1303V10.1644V9.19846L4.05529 8.98525C2.83314 8.55118 1.60946 7.23095 1.23482 5.94225C0.953173 4.97341 1.05082 3.55035 1.46026 2.65687C1.86647 1.77045 2.89079 0.742983 3.78696 0.323033C4.39891 0.0362731 4.61722 0 5.73115 0C6.84508 0 7.06338 0.0362731 7.67533 0.323033C8.5715 0.742983 9.59583 1.77045 10.002 2.65687C10.4115 3.55035 10.5091 4.97341 10.2275 5.94225C9.85228 7.23285 8.62907 8.55122 7.40265 8.9868L6.79801 9.20155L6.83224 10.1446L6.86647 11.0876L7.49381 11.2478C8.33243 11.462 8.93195 11.7802 9.74518 12.4426L10.4219 12.9938L10.9149 12.7203C11.186 12.5698 11.5874 12.3348 11.8069 12.1979L12.2059 11.9491L12.2251 10.6951C12.2418 9.60587 12.2868 9.35056 12.5674 8.75177C12.9834 7.86389 14.0133 6.834 14.9012 6.41794C15.5131 6.13118 15.7314 6.0949 16.8454 6.0949C17.9593 6.0949 18.1776 6.13118 18.7896 6.41794C19.6775 6.834 20.7073 7.86389 21.1234 8.75177C21.4102 9.36372 21.4464 9.58203 21.4464 10.696C21.4464 11.8099 21.4102 12.0282 21.1234 12.6401C20.7073 13.528 19.6775 14.5579 18.7896 14.974C18.1776 15.2607 17.9593 15.297 16.8454 15.297C15.4301 15.297 14.8414 15.1045 13.9012 14.3341L13.388 13.9135L12.4844 14.426L11.5809 14.9385L11.6736 15.4165C11.7938 16.0364 11.793 17.92 11.6723 18.4884L11.5783 18.931L12.4961 19.4683L13.4139 20.0055L13.9142 19.5956C14.841 18.8361 15.4347 18.6432 16.8454 18.6432C17.9593 18.6432 18.1776 18.6795 18.7896 18.9663C19.6775 19.3823 20.7073 20.4122 21.1234 21.3001C21.4102 21.9121 21.4464 22.1304 21.4464 23.2443C21.4464 24.3582 21.4102 24.5765 21.1234 25.1885C20.7073 26.0764 19.6775 27.1062 18.7896 27.5223C18.1776 27.8091 17.9593 27.8453 16.8454 27.8453C15.7314 27.8453 15.5131 27.8091 14.9012 27.5223C14.0133 27.1062 12.9834 26.0764 12.5674 25.1885C12.2794 24.574 12.2443 24.3602 12.2443 23.2212V21.9433L11.3922 21.4584C10.9236 21.1918 10.506 20.9736 10.4643 20.9736C10.4227 20.9736 10.0915 21.2156 9.72851 21.5113C8.93154 22.1604 8.32821 22.4793 7.49381 22.6924L6.86647 22.8526L6.83224 23.7957L6.79801 24.7387L7.40265 24.9534C8.62907 25.389 9.85228 26.7074 10.2275 27.998C10.5091 28.9668 10.4115 30.3899 10.002 31.2834C9.59285 32.1763 8.57024 33.1996 7.67533 33.6115C6.75313 34.0361 5.14484 34.1163 4.21338 33.7843ZM6.60142 31.3258C8.00207 30.7265 8.32937 28.8101 7.20984 27.7633C5.82689 26.4703 3.58 27.4458 3.58 29.3392C3.58 30.5572 4.48818 31.4745 5.70511 31.4857C5.98657 31.4882 6.38991 31.4163 6.60142 31.3258ZM17.7157 25.2309C19.1163 24.6316 19.4436 22.7152 18.3241 21.6684C16.9411 20.3754 14.6942 21.3508 14.6942 23.2443C14.6942 24.4623 15.6024 25.3796 16.8193 25.3908C17.1008 25.3933 17.5041 25.3214 17.7157 25.2309ZM7.11306 20.1758C7.90279 19.9067 8.84697 18.9625 9.11605 18.1728C9.56734 16.8483 9.27319 15.537 8.30836 14.5722C6.94085 13.2047 4.87996 13.2047 3.51246 14.5722C2.54763 15.537 2.25347 16.8483 2.70476 18.1728C2.96219 18.9283 3.92187 19.9085 4.65882 20.1686C5.36914 20.4193 6.38963 20.4223 7.11306 20.1758V20.1758ZM17.7157 12.6826C19.1163 12.0833 19.4436 10.1668 18.3241 9.12008C16.9411 7.82704 14.6942 8.80252 14.6942 10.696C14.6942 11.914 15.6024 12.8313 16.8193 12.8424C17.1008 12.845 17.5041 12.7731 17.7157 12.6826ZM6.60142 6.58765C8.00207 5.98835 8.32937 4.07193 7.20984 3.02518C5.82689 1.73214 3.58 2.70762 3.58 4.60105C3.58 5.81909 4.48818 6.7364 5.70511 6.74752C5.98657 6.75009 6.38991 6.67815 6.60142 6.58765ZM87.5733 33.8025C87.2509 33.5953 86.9965 33.1792 86.9965 32.8591C86.9965 32.5479 87.4089 32.6852 87.6554 33.0784C87.8417 33.3757 87.9921 33.4703 88.3219 33.4981C88.9146 33.548 89.264 33.2373 89.3518 32.5825L89.4214 32.0638L89.0514 32.2551C87.6891 32.9596 86.4236 31.6118 87.0469 30.1201C87.1413 29.8941 87.3774 29.6305 87.5787 29.5264C88.0419 29.2869 88.78 29.2863 89.1211 29.5252C89.3615 29.6936 89.3867 29.6936 89.3867 29.5252C89.3867 29.4188 89.489 29.3392 89.6257 29.3392C89.8548 29.3392 89.8647 29.4188 89.8647 31.2494V33.1596L89.5263 33.5384C89.2404 33.8584 89.0873 33.9242 88.5403 33.9625C88.0714 33.9953 87.8047 33.9511 87.5733 33.8024V33.8025ZM89.0268 31.7545C89.2057 31.6096 89.311 31.362 89.3533 30.9868C89.4075 30.5058 89.3752 30.3924 89.1079 30.1251C88.4394 29.4566 87.4746 29.8904 87.4746 30.8593C87.4746 31.7863 88.3582 32.2959 89.0268 31.7545ZM92.8524 31.6696C92.8524 29.4189 92.8606 29.3392 93.0914 29.3392C93.2281 29.3392 93.3304 29.4189 93.3304 29.5252C93.3304 29.6936 93.3557 29.6936 93.5961 29.5252C93.93 29.2913 94.6724 29.2854 95.1129 29.5132C95.2979 29.6089 95.5373 29.8725 95.6447 30.0989C96.3133 31.5079 95.0076 32.949 93.683 32.2641L93.3304 32.0817V33.0409C93.3304 33.9203 93.3106 34 93.0914 34C92.8606 34 92.8524 33.9203 92.8524 31.6696ZM94.9492 31.675C95.3274 31.2969 95.3485 30.5817 94.9949 30.1321C94.6569 29.7024 94.0351 29.6992 93.6093 30.1251C93.3419 30.3924 93.3096 30.5058 93.3638 30.9868C93.4699 31.9278 94.3252 32.2991 94.9492 31.675V31.675ZM32.5711 32.081C31.8231 31.4243 31.8732 30.0508 32.6626 29.5694C33.1171 29.2923 33.9034 29.2706 34.2669 29.5252L34.5326 29.7113V28.3899C34.5326 27.1482 34.547 27.0685 34.7716 27.0685C35.0033 27.0685 35.0106 27.1482 35.0106 29.6977C35.0106 32.2472 35.0033 32.3269 34.7716 32.3269C34.6401 32.3269 34.5326 32.2717 34.5326 32.2043C34.5326 32.1341 34.3821 32.1596 34.18 32.2641C33.6053 32.5613 33.0456 32.4976 32.5711 32.081V32.081ZM34.1726 31.7545C34.3516 31.6096 34.4569 31.362 34.4992 30.9868C34.5534 30.5058 34.5211 30.3924 34.2537 30.1251C33.5853 29.4566 32.6204 29.8904 32.6204 30.8593C32.6204 31.7863 33.504 32.2959 34.1726 31.7545V31.7545ZM37.6723 32.3017C37.3437 32.1431 37.1952 31.7369 37.416 31.6004C37.5179 31.5374 37.6668 31.5864 37.8249 31.7349C38.1088 32.0016 38.3644 32.0324 38.5719 31.825C38.8628 31.5341 38.7191 31.2685 38.0879 30.9303C37.5892 30.663 37.4526 30.5251 37.4219 30.2577C37.3594 29.7125 37.6844 29.3392 38.2215 29.3392C38.6256 29.3392 39.0739 29.6045 39.0739 29.8437C39.0739 29.9959 38.691 30.043 38.4874 29.9159C38.3673 29.8409 38.1812 29.8132 38.0739 29.8544C37.7151 29.9921 37.8669 30.2987 38.4089 30.531C39.1167 30.8344 39.3824 31.2384 39.2063 31.7436C39.134 31.9509 38.9806 32.1921 38.8652 32.2797C38.6151 32.4696 38.042 32.4802 37.6723 32.3017ZM46.6925 32.2585C46.5021 32.1553 46.3638 32.1321 46.3638 32.2036C46.3638 32.2714 46.2283 32.3269 46.0627 32.3269H45.7616L45.7938 29.7276C45.826 27.1341 45.8266 27.1282 46.0949 27.0901C46.36 27.0525 46.3638 27.071 46.3638 28.3816V29.7113L46.6294 29.5252C47.3585 29.0146 48.5076 29.4999 48.7563 30.4235C49.1239 31.7885 47.8742 32.8996 46.6925 32.2585ZM47.9826 31.675C48.6236 31.0341 48.1895 29.8172 47.3199 29.8172C47.0871 29.8172 46.8421 29.9257 46.6572 30.1106C46.0162 30.7515 46.4503 31.9684 47.3199 31.9684C47.5527 31.9684 47.7977 31.8599 47.9826 31.675V31.675ZM50.0088 32.3084C49.5359 32.0497 49.471 31.8403 49.471 30.5712C49.471 29.4189 49.4865 29.3392 49.7101 29.3392C49.932 29.3392 49.9491 29.4189 49.9491 30.456C49.9491 31.6582 50.0902 31.9684 50.6371 31.9684C51.1411 31.9684 51.2637 31.6744 51.2637 30.466C51.2637 29.3437 51.2649 29.3392 51.5624 29.3392C51.8573 29.3392 51.8612 29.3523 51.8612 30.3372C51.8612 30.8861 51.8016 31.5062 51.7287 31.7151C51.5141 32.3309 50.6162 32.6406 50.0088 32.3084ZM55.2343 32.2069C54.7655 31.9211 54.6099 31.5588 54.6099 30.7536C54.6099 30.2286 54.6617 30.1 55.0162 29.7455C55.3477 29.414 55.5138 29.3392 55.9184 29.3392C56.8261 29.3392 57.3586 29.8273 57.3586 30.6594V31.0123H56.2232C55.5988 31.0123 55.0879 31.0419 55.0879 31.078C55.0879 31.2659 55.4631 31.8297 55.6311 31.8941C56.0242 32.045 56.4214 31.9603 56.6925 31.6678C56.8675 31.4789 57.043 31.3948 57.1648 31.4416C57.3928 31.5291 57.397 31.5537 57.2355 31.8555C56.927 32.432 55.8994 32.6124 55.2343 32.2069ZM56.8097 30.3849C56.4748 29.7963 55.8517 29.6297 55.426 30.015C54.9946 30.4054 55.1497 30.5343 56.051 30.5343C56.6916 30.5343 56.8742 30.4983 56.8097 30.3849ZM58.8042 32.2952C57.8289 31.794 57.7437 30.0865 58.6668 29.5412C59.0949 29.2883 59.8507 29.2804 60.2002 29.5252L60.4658 29.7113V28.3816C60.4658 27.071 60.4696 27.0525 60.7347 27.0901C61.003 27.1282 61.0036 27.1341 61.0358 29.7276L61.068 32.3269H60.7669C60.6013 32.3269 60.4658 32.2717 60.4658 32.2043C60.4658 32.1341 60.3153 32.1596 60.1132 32.2641C59.6886 32.4836 59.1937 32.4954 58.8042 32.2952ZM60.1724 31.675C60.5506 31.2969 60.5717 30.5817 60.2181 30.1321C59.8854 29.7092 59.2582 29.6993 58.847 30.1106C58.206 30.7515 58.6401 31.9684 59.5097 31.9684C59.7425 31.9684 59.9875 31.8599 60.1724 31.675ZM64.0087 32.1533C63.6431 31.8145 63.6133 31.6658 63.8898 31.5597C64.01 31.5136 64.1752 31.5786 64.3127 31.7262C64.5832 32.0165 64.9199 32.0382 65.1349 31.7791C65.3366 31.5361 65.1713 31.2517 64.6973 31.0263C64.129 30.756 63.9315 30.5213 63.9315 30.116C63.9315 29.6285 64.2508 29.3392 64.7888 29.3392C65.3127 29.3392 65.711 29.6997 65.4377 29.9265C65.3031 30.0382 65.2133 30.0378 65.0323 29.9247C64.9044 29.8449 64.7119 29.8132 64.6046 29.8544C64.3024 29.9703 64.374 30.2852 64.7382 30.4414C65.5015 30.7689 65.7241 31.0056 65.7241 31.4898C65.7241 32.3613 64.6721 32.7682 64.0087 32.1533V32.1533ZM71.0094 32.2069C70.5406 31.9211 70.3849 31.5588 70.3849 30.7536C70.3849 30.2286 70.4368 30.1 70.7913 29.7455C71.1228 29.414 71.2889 29.3392 71.6935 29.3392C72.6012 29.3392 73.1336 29.8273 73.1336 30.6594V31.0123H71.9983C71.3739 31.0123 70.863 31.0419 70.863 31.078C70.863 31.2659 71.2382 31.8297 71.4061 31.8941C71.7992 32.045 72.1964 31.9603 72.4675 31.6678C72.6426 31.4789 72.8181 31.3948 72.9399 31.4416C73.1679 31.5291 73.1721 31.5537 73.0106 31.8555C72.702 32.432 71.6745 32.6124 71.0094 32.2069ZM72.5847 30.3849C72.2499 29.7963 71.6267 29.6297 71.201 30.015C70.7697 30.4054 70.9248 30.5343 71.8261 30.5343C72.4666 30.5343 72.6492 30.4983 72.5847 30.3849ZM74.1599 32.081C73.4119 31.4243 73.4619 30.0508 74.2514 29.5694C74.7059 29.2923 75.4922 29.2706 75.8557 29.5252C76.0961 29.6936 76.1213 29.6936 76.1213 29.5252C76.1213 29.4189 76.2237 29.3392 76.3603 29.3392C76.5866 29.3392 76.5993 29.4189 76.5993 30.833C76.5993 32.2472 76.5866 32.3269 76.3603 32.3269C76.2289 32.3269 76.1213 32.2717 76.1213 32.2043C76.1213 32.1341 75.9708 32.1596 75.7687 32.2641C75.194 32.5613 74.6343 32.4976 74.1599 32.081ZM75.7614 31.7545C75.9403 31.6096 76.0456 31.362 76.0879 30.9868C76.1421 30.5058 76.1098 30.3924 75.8425 30.1251C75.174 29.4566 74.2092 29.8904 74.2092 30.8593C74.2092 31.7863 75.0928 32.2959 75.7614 31.7545ZM98.3214 32.2593C97.8717 32.0153 97.6327 31.4976 97.6327 30.7673C97.6327 30.2267 97.6822 30.1024 98.0391 29.7455C98.3774 29.4072 98.5329 29.3392 98.9685 29.3392C99.2563 29.3392 99.6057 29.4191 99.7452 29.5167C99.9694 29.6738 100.007 29.6738 100.067 29.5167C100.104 29.4191 100.244 29.3392 100.378 29.3392C100.609 29.3392 100.62 29.4112 100.62 30.833V32.3269H100.322C100.157 32.3269 100.023 32.2701 100.023 32.2006C100.023 32.1298 99.9062 32.1561 99.7573 32.2604C99.4251 32.493 98.7512 32.4925 98.3214 32.2593V32.2593ZM99.7322 31.693C100.423 31.0989 100.013 29.8172 99.1323 29.8172C98.3543 29.8172 97.9073 30.5912 98.2323 31.3757C98.4999 32.0217 99.1822 32.1661 99.7322 31.693ZM106.178 32.3324C105.112 31.8916 104.993 30.1315 105.989 29.5431C106.416 29.2905 107.21 29.2798 107.675 29.5205C108.668 30.0338 108.619 31.781 107.599 32.2652C107.186 32.461 106.56 32.4906 106.178 32.3324ZM107.561 31.619C107.952 31.2286 108.005 30.825 107.736 30.3038C107.537 29.919 107.338 29.8172 106.786 29.8172C105.888 29.8172 105.461 31.0832 106.157 31.6823C106.618 32.0788 107.124 32.056 107.561 31.619ZM25.4699 32.2108C25.6477 31.6929 27.5571 27.4309 27.6121 27.4292C27.6644 27.4276 29.4145 31.3864 29.7354 32.2322C29.759 32.2944 29.6315 32.3277 29.452 32.3062C29.1834 32.274 29.0807 32.1562 28.8713 31.6398L28.6169 31.0125L27.5932 31.0124L26.5695 31.0123L26.2971 31.6696C26.0701 32.2172 25.975 32.3269 25.7273 32.3269C25.5638 32.3269 25.448 32.2747 25.4699 32.2108ZM28.3191 30.4446C28.3206 30.2958 27.6654 28.7424 27.6011 28.7424C27.5368 28.7424 26.8816 30.2958 26.8831 30.4446C26.8836 30.4939 27.2067 30.5343 27.6011 30.5343C27.9955 30.5343 28.3186 30.4939 28.3191 30.4446ZM35.9666 30.833C35.9666 29.4189 35.9794 29.3392 36.2057 29.3392C36.4319 29.3392 36.4447 29.4189 36.4447 30.833C36.4447 32.2472 36.4319 32.3269 36.2057 32.3269C35.9794 32.3269 35.9666 32.2472 35.9666 30.833ZM40.2689 31.0721C40.2689 30.0363 40.2376 29.8172 40.0897 29.8172C39.9901 29.8172 39.9104 29.711 39.9104 29.5782C39.9104 29.4454 39.9901 29.3392 40.0897 29.3392C40.2225 29.3392 40.2689 29.1998 40.2689 28.8014C40.2689 28.3433 40.3043 28.2636 40.5079 28.2636C40.7116 28.2636 40.747 28.3433 40.747 28.8014C40.747 29.2954 40.7713 29.3392 41.0457 29.3392C41.4429 29.3392 41.4694 29.7829 41.0756 29.8388C40.8194 29.8752 40.8051 29.9345 40.7727 31.1019C40.7413 32.2284 40.7197 32.3269 40.5038 32.3269C40.2852 32.3269 40.2689 32.2398 40.2689 31.0721ZM42.0616 30.833C42.0616 29.4189 42.0743 29.3392 42.3006 29.3392C42.432 29.3392 42.5396 29.3949 42.5396 29.4629C42.5396 29.5482 42.6114 29.5482 42.7707 29.4629C43.0407 29.3185 43.576 29.2987 43.6573 29.4301C43.7611 29.5981 43.4387 29.877 43.1407 29.877C42.7155 29.877 42.5434 30.3144 42.5413 31.4007C42.5397 32.2466 42.5189 32.3269 42.3006 32.3269C42.0743 32.3269 42.0616 32.2472 42.0616 30.833ZM44.3322 30.833C44.3322 29.4189 44.3449 29.3392 44.5712 29.3392C44.7975 29.3392 44.8102 29.4189 44.8102 30.833C44.8102 32.2472 44.7975 32.3269 44.5712 32.3269C44.3449 32.3269 44.3322 32.2472 44.3322 30.833ZM52.9368 31.0721C52.9368 30.3152 52.8893 29.8172 52.8173 29.8172C52.7515 29.8172 52.6978 29.7097 52.6978 29.5782C52.6978 29.4467 52.7515 29.3392 52.8173 29.3392C52.883 29.3392 52.9368 29.0972 52.9368 28.8014C52.9368 28.3074 52.9611 28.2636 53.2355 28.2636C53.51 28.2636 53.5343 28.3074 53.5343 28.8014C53.5343 29.2595 53.5697 29.3392 53.7733 29.3392C53.9327 29.3392 54.0123 29.4189 54.0123 29.5782C54.0123 29.7376 53.9327 29.8172 53.7733 29.8172C53.5495 29.8172 53.5343 29.8969 53.5343 31.0721V32.3269H53.2355H52.9368V31.0721ZM66.6802 31.1281C66.6802 30.1727 66.6438 29.9153 66.5009 29.8604C66.4023 29.8226 66.3217 29.6898 66.3217 29.5654C66.3217 29.441 66.4023 29.3392 66.5009 29.3392C66.6337 29.3392 66.6802 29.1998 66.6802 28.8014C66.6802 28.3433 66.7156 28.2636 66.9192 28.2636C67.1228 28.2636 67.1582 28.3433 67.1582 28.8014C67.1582 29.2595 67.1936 29.3392 67.3972 29.3392C67.5566 29.3392 67.6362 29.4189 67.6362 29.5782C67.6362 29.7376 67.5566 29.8172 67.3972 29.8172C67.1734 29.8172 67.1582 29.8969 67.1582 31.0721C67.1582 32.2472 67.143 32.3269 66.9192 32.3269C66.6961 32.3269 66.6802 32.2472 66.6802 31.1281ZM68.3533 30.833V29.3392H68.6521C68.8164 29.3392 68.9508 29.4037 68.9508 29.4826C68.9508 29.5941 68.9827 29.5941 69.0942 29.4826C69.1731 29.4037 69.4209 29.3392 69.6448 29.3392C69.967 29.3392 70.0368 29.3786 69.9794 29.5282C69.9395 29.6322 69.9069 29.7398 69.9069 29.7672C69.9069 29.7947 69.7475 29.8172 69.5526 29.8172C69.0621 29.8172 68.9508 30.0919 68.9508 31.3032C68.9508 32.3155 68.9475 32.3269 68.6521 32.3269H68.3533V30.833ZM77.4359 30.833V29.3392H77.7347C77.899 29.3392 78.0334 29.4037 78.0334 29.4826C78.0334 29.5941 78.0653 29.5941 78.1768 29.4826C78.3717 29.2878 79.0118 29.3015 79.2921 29.5065C79.4883 29.6499 79.5551 29.6499 79.7599 29.5065C80.1687 29.2202 80.8481 29.2933 81.132 29.6541C81.3445 29.9243 81.3797 30.1362 81.3797 31.1479C81.3797 32.2472 81.3635 32.3269 81.1406 32.3269C80.9217 32.3269 80.9016 32.2472 80.9016 31.3786C80.9016 30.1408 80.7793 29.8172 80.3112 29.8172C79.8175 29.8172 79.7065 30.0898 79.7065 31.3032C79.7065 32.3155 79.7032 32.3269 79.4078 32.3269C79.1114 32.3269 79.109 32.3183 79.109 31.2611C79.109 29.9593 79.0611 29.8172 78.6224 29.8172C78.1461 29.8172 78.0334 30.1015 78.0334 31.3032C78.0334 32.3155 78.0301 32.3269 77.7347 32.3269H77.4359V30.833ZM82.3357 30.833V29.3392H82.6345H82.9333V30.833V32.3269H82.6345H82.3357V30.833ZM83.8893 30.833C83.8893 29.4405 83.9049 29.3392 84.1184 29.3392C84.2444 29.3392 84.3721 29.4064 84.4022 29.4886C84.446 29.6081 84.4887 29.6081 84.6153 29.4886C84.8559 29.2616 85.6156 29.3069 85.9376 29.5674C86.1963 29.7768 86.2231 29.9006 86.2605 31.0613L86.3012 32.3269H85.9916H85.6819V31.2062C85.6819 29.9682 85.5845 29.7714 85.0048 29.8385C84.538 29.8924 84.3712 30.3024 84.3691 31.4007C84.3675 32.2466 84.3466 32.3269 84.1283 32.3269C83.9021 32.3269 83.8893 32.2472 83.8893 30.833ZM96.4377 29.6977C96.4377 27.1482 96.4449 27.0685 96.6767 27.0685C96.9084 27.0685 96.9157 27.1482 96.9157 29.6977C96.9157 32.2472 96.9084 32.3269 96.6767 32.3269C96.4449 32.3269 96.4377 32.2472 96.4377 29.6977ZM101.696 31.0721C101.696 30.3152 101.649 29.8172 101.576 29.8172C101.511 29.8172 101.457 29.7097 101.457 29.5782C101.457 29.4467 101.511 29.3392 101.576 29.3392C101.642 29.3392 101.696 29.0972 101.696 28.8014C101.696 28.3074 101.72 28.2636 101.995 28.2636C102.269 28.2636 102.294 28.3074 102.294 28.8014C102.294 29.2595 102.329 29.3392 102.533 29.3392C102.692 29.3392 102.772 29.4189 102.772 29.5782C102.772 29.7376 102.692 29.8172 102.533 29.8172C102.309 29.8172 102.294 29.8969 102.294 31.0721V32.3269H101.995H101.696V31.0721ZM103.728 31.0721C103.728 30.3152 103.68 29.8172 103.608 29.8172C103.542 29.8172 103.489 29.7097 103.489 29.5782C103.489 29.4467 103.537 29.3392 103.595 29.3392C103.654 29.3392 103.722 28.9042 103.746 28.3725C103.796 27.2836 103.944 27.0685 104.647 27.0685C104.958 27.0685 105.042 27.1177 105.042 27.2996C105.042 27.4629 104.946 27.5418 104.714 27.5685C104.393 27.6055 104.384 27.6264 104.35 28.4728L104.315 29.3392H104.678C104.963 29.3392 105.042 29.3915 105.042 29.5782C105.042 29.7641 104.963 29.8172 104.684 29.8172H104.325V31.0721V32.3269H104.026H103.728V31.0721ZM109.105 30.833C109.105 29.4189 109.118 29.3392 109.345 29.3392C109.476 29.3392 109.584 29.3949 109.584 29.4629C109.584 29.5482 109.655 29.5482 109.815 29.4629C109.942 29.3949 110.188 29.3392 110.361 29.3392C110.801 29.3392 110.721 29.7432 110.271 29.7952C109.746 29.8558 109.584 30.2197 109.584 31.3377C109.584 32.2472 109.564 32.3269 109.345 32.3269C109.118 32.3269 109.105 32.2472 109.105 30.833ZM111.376 30.833C111.376 29.4189 111.389 29.3392 111.615 29.3392C111.747 29.3392 111.854 29.3949 111.854 29.4629C111.854 29.5482 111.926 29.5482 112.085 29.4629C112.429 29.2787 112.942 29.3131 113.189 29.537C113.393 29.7212 113.423 29.7206 113.635 29.5295C113.794 29.3857 114.017 29.3354 114.382 29.3616C115.107 29.4137 115.319 29.8486 115.32 31.2812C115.32 32.317 115.317 32.3269 115.021 32.3269C114.724 32.3269 114.722 32.3219 114.722 31.2062C114.722 29.9956 114.618 29.7643 114.105 29.8379C113.702 29.8956 113.531 30.361 113.529 31.4007C113.527 32.2466 113.507 32.3269 113.288 32.3269C113.068 32.3269 113.049 32.2472 113.049 31.3032C113.049 30.146 112.931 29.8172 112.514 29.8172C112.032 29.8172 111.854 30.2279 111.854 31.3377C111.854 32.2472 111.835 32.3269 111.615 32.3269C111.389 32.3269 111.376 32.2472 111.376 30.833ZM35.8936 28.4513C35.7746 28.1412 35.9414 27.8849 36.235 27.9266C36.4325 27.9546 36.5044 28.0446 36.5044 28.2636C36.5044 28.4826 36.4325 28.5726 36.235 28.6007C36.0734 28.6236 35.9368 28.5638 35.8936 28.4513ZM44.2591 28.4513C44.1401 28.1412 44.3069 27.8849 44.6006 27.9266C44.7981 27.9546 44.87 28.0446 44.87 28.2636C44.87 28.4826 44.7981 28.5726 44.6006 28.6007C44.439 28.6236 44.3023 28.5638 44.2591 28.4513ZM82.335 28.442C82.2028 28.2827 82.2079 28.2207 82.3666 28.062C82.6229 27.8057 82.9608 27.9481 82.9118 28.2917C82.8651 28.6191 82.5501 28.7011 82.335 28.442ZM37.2495 25.3849C35.22 24.9068 33.8155 22.8826 33.8155 20.4359C33.8155 17.6943 35.4966 15.6228 37.9039 15.398C38.8633 15.3084 39.7676 15.5533 40.6056 16.1297L41.2109 16.5461L41.2478 16.1008L41.2847 15.6555L42.3902 15.6212L43.4956 15.5868V20.4359V25.2849L42.3902 25.2505L41.2847 25.2162L41.2473 24.8278C41.2267 24.6141 41.1859 24.4394 41.1566 24.4394C41.1274 24.4394 40.88 24.6012 40.6069 24.7991C39.7257 25.4374 38.4311 25.6633 37.2495 25.3849ZM39.5639 23.3473C40.7139 22.9623 41.3863 21.8874 41.3817 20.4414C41.3785 19.4632 41.1495 18.8263 40.5915 18.2446C40.0308 17.66 39.5869 17.4687 38.7658 17.4578C37.7341 17.4441 37.0051 17.9023 36.5063 18.8781C35.8061 20.2476 36.1313 22.1221 37.212 22.9464C37.8947 23.4671 38.7637 23.6152 39.5639 23.3473ZM63.8984 25.3453C62.1717 24.8809 60.8252 23.0876 60.6305 20.9932C60.4195 18.7226 61.4766 16.6493 63.3002 15.7571C63.8699 15.4784 64.1377 15.4234 64.9421 15.4203C66.0549 15.4159 66.772 15.6452 67.5841 16.2651L68.1143 16.6698V16.1283V15.5868L69.2197 15.6212L70.3252 15.6555V20.4359V25.2162L69.2197 25.2505L68.1143 25.2849V24.8012V24.3174L67.4714 24.7443C66.3517 25.4877 65.1682 25.6868 63.8984 25.3453ZM66.3814 23.3506C67.5156 23.0391 68.3417 21.561 68.1905 20.114C68.0732 18.992 67.5671 18.1387 66.7808 17.7374C65.7662 17.2196 64.7244 17.3444 63.9056 18.082C63.2191 18.7004 62.9489 19.3705 62.9489 20.4548C62.9489 22.6019 64.4615 23.8781 66.3814 23.3506ZM25.45 16.9746V8.66432H26.5853H27.7206V13.6521V18.6398L29.246 17.1178L30.7714 15.5958H32.2337C33.038 15.5958 33.696 15.6253 33.696 15.6614C33.696 15.6974 32.7811 16.6251 31.6628 17.7229L29.6296 19.7188L31.8509 22.4675L34.0722 25.2162L32.7262 25.2502C31.9859 25.2689 31.3158 25.2595 31.2372 25.2293C31.1585 25.1991 30.3938 24.2849 29.5379 23.1978C28.3494 21.6883 27.9517 21.2575 27.8544 21.3747C27.7799 21.4645 27.7133 22.2934 27.694 23.3722L27.6608 25.2162L26.5554 25.2505L25.45 25.2849V16.9746ZM45.9655 25.1963C45.9217 25.1524 45.8858 23.4584 45.8858 21.4318V17.7469H45.5273H45.1688V16.6714V15.5958H45.5273H45.8858L45.8882 13.7135C45.8924 10.3448 46.183 9.4081 47.425 8.75924C47.9532 8.48332 48.2145 8.42531 48.9291 8.42531C49.4047 8.42531 49.9633 8.48435 50.1703 8.55651L50.5466 8.68771V9.86025V11.0328L50.0744 10.8046C49.596 10.5735 48.9227 10.5074 48.6823 10.6679C48.3236 10.9074 48.2342 11.4071 48.1799 13.4745L48.1243 15.5958H49.3354H50.5466V16.6714V17.7469H49.3515H48.1565V21.5114V25.2759H47.1008C46.5202 25.2759 46.0093 25.2401 45.9655 25.1963ZM52.2197 16.9701V8.66432H53.355H54.4904V13.6521V18.6398L56.0158 17.1178L57.5411 15.5958H59.0035C59.8077 15.5958 60.4658 15.639 60.4658 15.6919C60.4658 15.7448 59.5518 16.663 58.4348 17.7323L56.4038 19.6766L58.614 22.4117C59.8297 23.916 60.8243 25.1758 60.8243 25.2113C60.8243 25.2469 60.1807 25.2759 59.394 25.2759H57.9638L56.3801 23.2514C55.1659 21.6992 54.7608 21.2565 54.6434 21.3539C54.5308 21.4474 54.4904 21.982 54.4904 23.3784V25.2759H53.355H52.2197V16.9701ZM71.9761 25.101C71.5788 24.9282 71.2215 24.3896 71.2215 23.9634C71.2215 22.7497 72.645 22.1155 73.5295 22.9352C74.2022 23.5587 74.0175 24.76 73.196 25.1033C72.6899 25.3147 72.4666 25.3143 71.9761 25.101V25.101ZM73.2118 24.8061C73.6633 24.5308 73.8223 23.9919 73.606 23.4698C73.4589 23.1146 72.9587 22.7663 72.5958 22.7663C72.233 22.7663 71.7327 23.1146 71.5856 23.4698C71.1446 24.5345 72.2148 25.4141 73.2118 24.8061ZM72.1775 23.9016C72.1775 23.0752 72.2709 22.9745 72.7829 23.2485C73.0565 23.3949 73.0899 23.8202 72.8356 23.9178C72.6848 23.9757 72.6954 24.0401 72.9035 24.3324C73.1948 24.7415 72.98 24.8065 72.6488 24.4095L72.4245 24.1406L72.4205 24.4095C72.4184 24.5574 72.3628 24.6784 72.2971 24.6784C72.2296 24.6784 72.1775 24.3398 72.1775 23.9016ZM72.7153 23.6028C72.7153 23.5152 72.6481 23.4211 72.5659 23.3937C72.4771 23.3641 72.4166 23.4488 72.4166 23.6028C72.4166 23.7568 72.4771 23.8416 72.5659 23.812C72.6481 23.7846 72.7153 23.6905 72.7153 23.6028ZM29.3937 11.6072C29.3937 11.3862 30.74 8.77141 30.8112 8.85413C31.0105 9.08582 32.0582 11.537 31.9879 11.6073C31.8506 11.7446 31.5422 11.5411 31.4265 11.2368C31.3253 10.9707 31.2424 10.935 30.7258 10.935C30.1873 10.935 30.1277 10.9641 29.9913 11.2935C29.9008 11.5119 29.755 11.652 29.6182 11.652C29.4947 11.652 29.3937 11.6319 29.3937 11.6072ZM31.0626 10.4271C31.0554 10.1728 30.7465 9.7009 30.6692 9.82604C30.6289 9.89118 30.5419 10.0867 30.4758 10.2605C30.3626 10.5582 30.3762 10.5765 30.7113 10.5765C30.9183 10.5765 31.0651 10.514 31.0626 10.4271ZM32.5009 10.2777V8.90334L33.0088 8.90517C33.5902 8.90726 33.7219 8.97281 33.9271 9.36234C34.1358 9.75832 33.8926 10.3171 33.4717 10.4087C32.8767 10.5382 32.8594 10.5579 32.8594 11.1105C32.8594 11.5122 32.8131 11.652 32.6802 11.652C32.5312 11.652 32.5009 11.4196 32.5009 10.2777V10.2777ZM33.4331 9.95501C33.6355 9.75255 33.6111 9.42023 33.3875 9.3344C32.9788 9.1776 32.8594 9.25577 32.8594 9.68014C32.8594 10.0033 32.9084 10.0984 33.0746 10.0984C33.1929 10.0984 33.3542 10.0339 33.4331 9.95501ZM33.933 11.5624C33.9295 11.4087 35.1627 8.78383 35.2384 8.78383C35.3016 8.78383 36.398 11.167 36.4747 11.4711C36.4911 11.536 36.409 11.6074 36.2923 11.6298C36.145 11.6582 36.0411 11.5584 35.952 11.3028C35.8324 10.9598 35.7844 10.935 35.241 10.935C34.7143 10.935 34.6403 10.9695 34.4728 11.2935C34.3079 11.6124 33.9383 11.7965 33.933 11.5624ZM35.6081 10.5108C35.6081 10.4746 35.5213 10.2772 35.4152 10.072C35.2133 9.68157 35.1367 9.72097 34.9572 10.3076C34.8843 10.5458 34.9167 10.5765 35.2415 10.5765C35.4432 10.5765 35.6081 10.5469 35.6081 10.5108ZM37.4123 11.5009C36.4041 10.9828 36.4043 9.4784 37.4125 8.95699C38.0394 8.63282 38.8348 8.80803 38.8348 9.27027C38.8348 9.46955 38.7964 9.48872 38.6037 9.38558C38.2439 9.19305 37.694 9.2394 37.3868 9.48812C37.1761 9.65873 37.1074 9.83494 37.1074 10.2046C37.1074 11.0162 37.64 11.3651 38.5062 11.1211C38.7647 11.0483 38.8348 11.0687 38.8348 11.2166C38.8348 11.6163 37.9723 11.7887 37.4123 11.5009ZM39.3925 11.5723C39.3487 11.5285 39.3129 10.9101 39.3129 10.198C39.3129 8.98301 39.3276 8.90334 39.5519 8.90334C39.7511 8.90334 39.7909 8.98301 39.7909 9.38137V9.8594H40.3884H40.986V9.38137C40.986 9.03613 41.0358 8.90334 41.1652 8.90334C41.3142 8.90334 41.3445 9.13572 41.3445 10.2777C41.3445 11.4196 41.3142 11.652 41.1652 11.652C41.0276 11.652 40.986 11.4993 40.986 10.9947V10.3374H40.3884H39.7909V10.9947C39.7909 11.4628 39.745 11.652 39.6316 11.652C39.5439 11.652 39.4364 11.6162 39.3925 11.5723ZM42.0217 11.5723C41.9779 11.5285 41.942 10.9101 41.942 10.198V8.90334H42.7188C43.3297 8.90334 43.4956 8.94164 43.4956 9.0826C43.4956 9.21539 43.3562 9.26186 42.9579 9.26186C42.4639 9.26186 42.4201 9.28621 42.4201 9.56063C42.4201 9.83506 42.4639 9.8594 42.9579 9.8594C43.416 9.8594 43.4956 9.89481 43.4956 10.0984C43.4956 10.302 43.416 10.3374 42.9579 10.3374C42.4229 10.3374 42.4201 10.3396 42.4201 10.7557C42.4201 11.1718 42.4229 11.174 42.9579 11.174C43.416 11.174 43.4956 11.2094 43.4956 11.413C43.4956 11.6247 43.416 11.652 42.7985 11.652C42.4151 11.652 42.0655 11.6162 42.0217 11.5723Z" fill="#ADB5BD"></path> <path d="M4.85399 6.51097C4.15223 6.19644 3.63359 5.37789 3.62924 4.57801C3.62142 3.14088 5.32088 2.05146 6.56929 2.69333C7.41341 3.12733 7.78833 3.72839 7.78833 4.64768C7.78833 5.83713 6.94189 6.66753 5.73854 6.65862C5.4281 6.65633 5.03005 6.58988 4.85399 6.51097Z" fill="white" stroke="white" stroke-width="0.892857"></path> <path d="M4.96077 20.2072C4.05395 19.9889 2.92462 18.824 2.65725 17.8311C2.25505 16.3374 3.0726 14.6328 4.53673 13.9124C5.31262 13.5305 6.55787 13.5412 7.30824 13.9361C7.99014 14.2949 8.58884 14.8949 8.94032 15.5718C9.31594 16.2953 9.3419 17.5633 8.99646 18.3137C8.69861 18.9608 7.91164 19.7441 7.27756 20.0246C6.70925 20.276 5.60752 20.3628 4.96077 20.2072Z" fill="white" stroke="white" stroke-width="0.892857"></path> <path d="M4.85418 31.242C3.81418 30.6937 3.37008 29.5734 3.79224 28.563C4.31103 27.3214 5.82948 26.8652 6.92252 27.6227C8.17257 28.489 8.04172 30.5409 6.69485 31.1929C6.13668 31.4631 5.31522 31.485 4.85418 31.242Z" fill="white" stroke="white" stroke-width="0.892857"></path> <path d="M15.9467 25.1401C14.7117 24.5622 14.35 22.9548 15.2217 21.9189C15.9759 21.0225 17.3997 20.9175 18.2832 21.693C18.9103 22.2434 19.0979 23.433 18.6851 24.2419C18.2079 25.1774 16.9253 25.5981 15.9467 25.1401Z" fill="white" stroke="white" stroke-width="0.892857"></path> <path d="M15.9491 12.5956C15.2176 12.2768 14.6328 11.2136 14.7595 10.4328C15.0338 8.74247 16.9336 8.02584 18.1977 9.13579C18.6286 9.51411 18.7778 9.75937 18.8961 10.2839C19.0872 11.1311 18.5202 12.2756 17.7498 12.5975C17.3094 12.7815 16.3735 12.7805 15.9491 12.5956V12.5956Z" fill="white" stroke="white" stroke-width="0.892857"></path> </svg> 