<?xml version="1.0" encoding="UTF-8"?> <svg xmlns="http://www.w3.org/2000/svg" width="130" height="40" viewBox="0 0 130 40" fill="none"> <path d="M28.4932 19.2752C28.4932 27.2001 22.2124 33.6245 14.4644 33.6245C6.7167 33.6245 0.435913 27.2001 0.435913 19.2752C0.435913 11.3502 6.7167 4.92578 14.4644 4.92578C22.2124 4.92578 28.4932 11.3503 28.4932 19.2753" fill="white"></path> <path d="M1.00817 22.8288C1.00817 22.8288 -0.00728425 7.86465 13.781 7.43727L12.8191 5.83398L5.33731 8.34563L3.19942 10.8042L1.32883 14.3849L0.259888 18.5535L0.580545 21.3324" fill="white"></path> <path d="M4.85604 9.48669C2.39467 12.0051 0.871548 15.4824 0.871548 19.3292C0.871548 23.1749 2.39467 26.6527 4.85604 29.1709C7.31869 31.6887 10.7124 33.2426 14.4644 33.2426C18.2164 33.2426 21.6104 31.6888 24.0729 29.1709C26.534 26.6528 28.0574 23.1752 28.0574 19.3292C28.0574 15.4824 26.5339 12.0051 24.0729 9.48669C21.6104 6.96927 18.2166 5.41562 14.4644 5.41524C10.7124 5.41549 7.31869 6.96927 4.85604 9.48669ZM4.2332 29.7798C1.61727 27.1047 0 23.4076 0 19.3292C0 15.2502 1.61727 11.5534 4.23294 8.87796C6.84822 6.20187 10.4683 4.54343 14.4642 4.54395C18.4601 4.54343 22.0806 6.20187 24.6954 8.87796C27.3116 11.5534 28.9291 15.2506 28.9286 19.3292C28.929 23.4075 27.3116 27.1045 24.6954 29.7798C22.0806 32.4557 18.4601 34.1141 14.4642 34.1141C10.4684 34.1141 6.84822 32.4557 4.2332 29.7798Z" fill="#ADB5BD"></path> <path d="M20.37 19.3545L18.2321 19.6752L15.3462 19.9958L13.4757 20.0492L11.6586 19.9958L10.2691 19.5682L9.04 18.2322L8.07803 15.5066L7.86421 14.9187L6.58158 14.4913L5.83342 13.262L5.29895 11.4984L5.88678 9.94849L7.27638 9.4675L8.39868 10.0021L8.93303 11.1778L9.57434 11.0708L9.78816 10.8037L9.57434 9.57448L9.52099 8.02455L9.84164 5.88691L9.8292 4.66585L10.8036 3.10809L12.5137 1.87882L15.5065 0.596191L18.8201 1.07718L21.706 3.16145L23.042 5.29921L23.8972 6.84901L24.1109 10.6969L23.4696 14.0105L22.2939 16.9497L21.1716 18.4997" fill="white"></path> <path d="M18.5526 28.6002L10.9103 28.9208V30.2035L11.5516 34.6927L11.231 35.0668L5.88665 33.2497L5.51264 32.6084L4.97816 26.5694L3.74902 22.9352L3.48172 22.0802L7.75724 19.141L9.09323 18.6064L10.269 20.0494L11.2845 20.958L12.4601 21.332L12.9946 21.4924L13.6359 24.2714L14.1169 24.8593L15.3461 24.4318L14.491 26.0885L19.1406 28.2797L18.5526 28.6003" fill="white"></path> <path d="M5.88642 9.94859L7.27602 9.46761L8.39832 10.0022L8.93267 11.1779L9.57398 11.0709L9.73431 10.4296L9.41365 9.20056L9.73431 6.26103L9.46701 4.65774L10.429 3.53544L12.5133 1.87879L11.9256 1.07715L8.98602 2.52011L7.75701 3.48208L7.0622 4.9784L5.99339 6.42136L5.67273 8.13162L5.88642 9.94859Z" fill="white"></path> <path d="M8.07766 4.92459C8.07766 4.92459 8.87931 2.94728 12.0859 1.98531C15.2925 1.02334 12.2462 1.29038 12.2462 1.29038L8.77234 2.62675L7.43635 3.96261L6.84839 5.03156L8.07766 4.92459ZM6.47437 9.57412C6.47437 9.57412 5.35207 5.83307 9.62734 5.2986L9.46701 4.65729L6.52773 5.35222L5.67273 8.13116L5.88642 9.94814L6.47437 9.57412Z" fill="white"></path> <path d="M8.18452 14.545L8.88432 13.867C8.88432 13.867 9.20011 13.9037 9.25346 14.2777C9.30682 14.652 9.46715 18.0189 11.7654 19.836C11.9748 20.0018 10.0551 19.5685 10.0551 19.5685L8.34485 16.8967L8.18452 14.545ZM18.0185 13.5297C18.0185 13.5297 18.1431 11.9097 18.5795 12.0342C19.0157 12.1588 19.0157 12.5951 19.0157 12.5951C19.0157 12.5951 17.9561 13.2804 18.0185 13.5297ZM22.4541 7.59749C22.4541 7.59749 21.5729 7.78347 21.4921 8.55946C21.4109 9.33558 22.4541 8.71979 22.6144 8.66617L22.4541 7.59749ZM15.9874 7.65097C15.9874 7.65097 14.8117 7.8113 14.8117 8.55946C14.8117 9.30749 16.1477 9.25426 16.522 8.9336L15.9874 7.65097ZM8.71912 11.1247C8.71912 11.1247 6.6882 9.89545 6.47451 11.0711C6.26057 12.247 5.77958 13.102 6.79517 14.3313L6.10024 14.1174L5.45893 12.4607L5.24524 10.8574L6.47451 9.57466L7.86386 9.68163L8.6655 10.3229L8.71912 11.1246V11.1247ZM9.68109 7.75782C9.68109 7.75782 10.5895 3.05467 15.1856 2.14631C18.9698 1.39841 20.9573 2.30664 21.7058 3.16164C21.7058 3.16164 18.3389 -0.846452 15.1323 0.382693C11.9257 1.61171 9.57412 3.85631 9.62748 5.29927C9.71855 7.75679 9.68109 7.75782 9.68109 7.75782ZM22.0799 3.69598C22.0799 3.69598 20.5302 3.64263 20.4766 5.03223C20.4766 5.03223 20.4765 5.24591 20.5836 5.4596C20.5836 5.4596 21.813 4.07013 22.5609 4.81828" fill="white"></path> <path d="M10.2689 20.0489L5.24534 22.2935C5.24534 22.2935 7.32961 30.5773 6.26067 33.1425L5.51264 32.8755L5.45902 29.7223L4.06968 23.7367L3.48172 22.0798L8.71921 18.5527L10.2689 20.0489ZM10.7855 24.6307L11.4982 25.5001V28.7067H10.6432C10.6432 28.7067 10.5362 26.4621 10.5362 26.1949C10.5362 25.9277 10.6432 24.9658 10.6432 24.9658L10.7855 24.6307ZM10.8035 29.1879L8.39855 29.2946L9.09323 29.7756L10.8035 30.0428" fill="white"></path> <path d="M19.0343 28.6536L21.0119 28.6001L21.4929 33.5168L19.4619 33.784L19.0343 28.6536Z" fill="white"></path> <path d="M19.5684 28.6534L22.5611 28.4931C22.5611 28.4931 23.7903 25.3934 23.7903 25.233C23.7903 25.0727 24.8593 20.7438 24.8593 20.7438L22.4543 18.2322L21.9734 17.8047L20.6907 19.0873V24.0575L19.5684 28.6534Z" fill="white"></path> <path d="M20.9041 28.2793L19.0335 28.6534L19.3008 30.15C19.9955 30.4707 21.1714 29.6154 21.1714 29.6154L20.9041 28.2793ZM20.9576 18.927L24.6987 21.7061L24.8054 20.4234L21.9731 17.8047L20.9576 18.927Z" fill="white"></path> <path d="M12.6581 39.1833L11.5517 34.6932L11.0014 31.3804L10.9104 28.9213L15.9181 28.6548L19.0337 28.6543L18.7506 34.2663L19.2316 38.5952L19.178 39.3968L15.1165 39.7175L12.6581 39.1833Z" fill="white"></path> <path d="M18.3389 28.6C18.3389 28.6 18.0716 34.158 18.8732 38.1128C18.8732 38.1128 17.2699 39.1284 14.9183 39.3955L19.4077 39.2351L19.9421 38.9145L19.3008 30.15L19.1405 28.2793" fill="white"></path> <path d="M21.5831 33.0899L23.6673 32.5019L27.6221 32.2882L28.21 30.471L27.1411 27.318L25.9121 27.1577L24.2018 27.6921L22.5609 28.4932L21.6899 28.3334L21.011 28.6" fill="white"></path> <path d="M21.5457 32.0208C21.5457 32.0208 22.935 31.3797 23.149 31.4331L22.561 28.4936L23.2558 28.2266C23.2558 28.2266 23.7368 31.0055 23.7368 31.3262C23.7368 31.3262 26.7296 31.4865 26.9969 31.4865C26.9969 31.4865 27.6382 30.2574 27.4779 28.9747L28.0657 30.6849L28.1192 31.6468L27.264 32.9295L26.3021 33.1433L24.6988 33.0898L24.1643 32.3951L22.294 32.6622L21.706 32.8761" fill="white"></path> <path d="M19.4448 28.2262L18.2692 25.2336L17.0399 23.47C17.0399 23.47 17.3071 22.7217 17.6812 22.7217H18.9105L20.0862 23.1493L19.9794 25.1266L19.4448 28.2262Z" fill="white"></path> <path d="M19.6752 27.2104C19.6752 27.2104 18.1789 24.3246 18.1789 23.8971C18.1789 23.8971 18.446 23.2558 18.8202 23.4162C19.1942 23.5765 19.9958 24.0039 19.9958 24.0039V22.9885L18.1789 22.6143L16.9496 22.7746L19.0339 27.6914L19.4615 27.745" fill="#ADB5BD"></path> <path d="M13.139 20.157L11.6584 19.996L10.2688 19.5684V20.0493L10.9479 20.7981L13.0856 21.7601" fill="white"></path> <path d="M10.7501 20.3169C10.7501 20.3169 12.4067 21.0117 12.9413 20.8514L12.9943 21.492L11.4982 21.172L10.5897 20.5307L10.7501 20.3169Z" fill="#ADB5BD"></path> <path d="M21.5773 22.9036C20.6705 22.877 19.8513 22.7692 19.1339 22.5669C19.1826 22.2728 19.0913 21.9842 19.1647 21.7724C19.3645 21.6283 19.6998 21.6306 20.0018 21.5969C19.7404 21.4684 19.3735 21.4177 19.0718 21.4917C19.0646 21.2877 18.973 21.1612 18.9176 21.0015C19.4275 20.8194 20.6311 19.6265 21.3082 20.0216C21.6308 20.2095 21.7679 21.2827 21.7929 21.8044C21.8138 22.2376 21.7538 22.6743 21.5774 22.9036" fill="white"></path> <path d="M17.2412 21.4218C17.2388 21.4904 17.2358 21.5595 17.2331 21.6288C16.95 21.8148 16.493 21.8125 16.1821 21.9688C16.6403 21.9888 17.0008 22.0991 17.3128 22.2547L17.2926 22.7732C16.7737 23.1284 16.2996 23.6575 15.6886 23.9908C15.3996 24.1484 14.3856 24.5538 14.0782 24.4821C13.9044 24.4417 13.8887 24.226 13.8191 24.0224C13.671 23.587 13.3299 22.8937 13.3001 22.2377C13.2624 21.4095 13.1786 20.0215 14.0712 20.1921C14.7912 20.3293 15.6289 20.6612 16.1864 20.9658C16.5272 21.1518 16.7243 21.382 17.2412 21.4218Z" fill="white"></path> <path d="M17.7568 22.4093C17.6773 21.9582 17.5858 21.8294 17.6212 21.4357C18.8247 20.6335 19.0506 22.8138 17.7567 22.4093" fill="white"></path> <path d="M19.4987 22.7749C19.4987 22.7749 19.1246 22.2405 19.392 22.0801C19.659 21.9198 19.9265 22.0803 20.0868 21.813C20.2471 21.5459 20.0868 21.3856 20.1402 21.0649C20.1938 20.7443 20.4612 20.6907 20.7281 20.6373C20.9953 20.5839 21.7437 20.477 21.8504 20.7443L21.5298 19.7823L20.8884 19.5684L18.8575 20.7443L18.7508 21.332V22.5079L19.4987 22.7749ZM13.8872 24.5386C13.8229 23.7046 13.7551 22.8716 13.6794 22.0384C13.5664 20.7943 13.9783 21.0113 15.0568 21.0113C15.2215 21.0113 16.071 21.2078 16.1318 21.332C16.4234 21.9274 15.6444 21.795 16.4677 22.2439C17.1624 22.6228 18.3901 22.014 18.1094 21.1716C17.9522 20.9844 17.2907 21.1133 17.0536 20.9905L15.8011 20.3411C15.2699 20.0654 14.0423 19.6639 13.4757 20.049C12.0409 21.025 13.5664 23.4633 14.0783 24.4813" fill="white"></path> <path d="M15.2933 5.60435C13.8367 5.2651 13.1129 6.21399 12.6715 7.19802C12.2772 7.10246 12.4342 6.56632 12.5337 6.29312C12.7945 5.57613 13.8452 4.62173 14.7037 4.75115C15.0731 4.80668 15.573 5.14453 15.2933 5.60435ZM22.3906 7.26318L22.4597 7.26574C22.7889 7.94964 23.0737 8.67407 23.4888 9.27768C23.2108 9.92553 21.3826 10.4989 21.4107 9.33552C21.806 9.16275 22.4885 9.30025 22.839 9.07951C22.6365 8.52336 22.344 8.04982 22.3906 7.26318ZM16.0391 7.28088C16.3514 7.85344 16.4532 8.455 16.8971 8.88776C17.097 9.08259 17.4858 9.32 17.293 9.86179C17.248 9.98954 16.9189 10.2744 16.7287 10.3303C16.0346 10.5352 14.4174 10.3727 14.9651 9.50727C15.5393 9.53408 16.3105 9.88 16.7396 9.46353C16.4103 8.93675 15.823 7.89487 16.0391 7.28088ZM22.13 13.0999C21.085 13.7714 19.9197 14.5012 18.2074 14.3319C17.8415 14.0138 17.7021 13.3059 18.0575 12.8384C18.2426 13.1565 18.1262 13.7415 18.6418 13.8296C19.6134 13.9958 20.7443 13.2352 21.4434 12.9692C21.8765 12.2386 21.4058 11.9699 21.0155 11.4997C20.2164 10.5362 19.1441 9.34207 19.183 7.89975C19.5062 7.66554 19.5339 8.25734 19.5803 8.36509C19.9977 9.34168 21.0479 10.591 21.8146 11.4269C22.0027 11.6327 22.3126 11.8302 22.3471 11.9663C22.4465 12.3624 22.0885 12.8366 22.1301 13.0999H22.13ZM8.35321 12.3932C8.02576 12.2062 7.94765 11.3827 7.56311 11.3594C7.01376 11.3259 7.11394 12.4274 7.11599 13.0717C6.73787 12.7285 6.6713 11.6709 6.94912 11.128C6.63231 10.9725 6.49083 11.2996 6.31537 11.4148C6.54111 9.7747 8.71466 10.6542 8.35334 12.3932H8.35321ZM22.7954 13.7829C22.309 14.7088 21.6209 15.7285 20.1934 15.7582C20.1645 15.4592 20.1421 15.0041 20.195 14.8239C21.2862 14.7192 21.9599 14.1639 22.7954 13.7829ZM15.9569 14.3832C16.8672 14.8621 18.5404 14.9134 19.7779 14.8771C19.8442 15.1483 19.8426 15.4832 19.8452 15.8138C18.2545 15.8931 16.3739 15.4996 15.9569 14.3832ZM15.7838 15.2759C16.4134 16.8566 18.5772 16.6746 20.4019 16.631C20.3216 16.8362 20.1474 17.0786 19.931 17.1664C19.3461 17.4043 17.7335 17.5848 16.9216 17.1535C16.4067 16.88 16.0762 16.2616 15.794 15.8991C15.6579 15.7241 14.9795 15.2768 15.7838 15.2758" fill="#ADB5BD"></path> <path d="M22.0547 23.995C21.3159 25.2603 20.6092 26.56 19.7325 27.6761C20.1 26.5955 20.2573 24.7872 20.3128 23.4085C21.0816 23.0489 21.7399 23.4896 22.0547 23.995Z" fill="white"></path> <path d="M26.0298 28.543C25.2026 28.7086 24.6215 29.5125 23.8146 29.4608C24.258 28.8357 25.0351 28.5721 26.0298 28.543ZM26.3947 29.8374C25.7206 29.9088 24.9287 30.0179 24.2449 29.9615C24.5685 29.4671 25.8158 29.6377 26.3947 29.8374ZM26.6283 30.9535C25.8706 30.9699 24.9288 30.9548 24.2089 30.8945C24.6347 30.4369 26.1369 30.7246 26.6283 30.9535Z" fill="#ADB5BD"></path> <path d="M19.4069 19.9835C19.0264 20.2318 18.7024 20.5421 18.337 20.8072C17.5267 20.8474 17.0845 20.7512 16.4893 20.2858C16.499 20.2486 16.5588 20.2653 16.5611 20.2194C17.4284 20.6057 18.5311 20.0616 19.4069 19.9834" fill="white"></path> <path d="M14.8535 25.8955C15.0918 24.863 16.0256 24.3281 16.8735 23.7593C17.7488 24.87 18.2811 26.2986 18.8672 27.6771C17.4823 27.2596 16.0673 26.5822 14.8535 25.8955Z" fill="white"></path> <path d="M19.7237 34.1452C19.6883 34.9896 19.8067 36.3435 19.8464 37.2293C20.4079 37.2301 20.6484 37.1066 21.0674 36.9651C21.1147 35.923 20.7374 34.9588 20.6288 34.0072C20.4069 33.9481 19.9999 34.1636 19.7237 34.1452ZM10.9836 29.3436C11.3538 32.7463 11.8898 35.6065 12.8729 38.6197C15.0555 39.2823 17.6861 39.34 19.6151 38.7422C19.2611 37.0415 19.4156 34.9711 19.2088 33.1562C19.0527 31.7921 19.1323 30.4197 18.9184 29.0281C16.581 28.5419 13.2774 28.9145 10.9836 29.3436ZM19.4708 29.0497C19.4512 30.5109 19.5362 31.9523 19.6478 33.4155C20.2091 33.3314 20.5899 33.2751 21.111 33.1608C20.9418 31.7522 20.9626 30.1672 20.6177 28.9211C20.2193 28.9248 19.8683 28.9165 19.4709 29.0497H19.4708ZM22.3176 28.814C22.0512 28.7531 21.7412 28.8115 21.4867 28.8165C21.6064 30.0079 21.8965 31.3225 21.9986 32.5729C22.399 32.5853 22.6129 32.3965 22.9422 32.333C22.9598 31.2353 22.846 29.7231 22.3176 28.814ZM26.6279 32.7522C27.4624 32.5496 27.987 31.5275 27.7536 30.4777C27.597 29.7722 27.3181 28.4439 27.0195 27.9926C26.7989 27.6591 26.2008 27.222 25.7231 27.5276C24.9461 28.0253 23.5773 28.1696 23.0109 28.7718C23.295 29.7177 23.3831 31.017 23.5003 32.2156C24.4709 32.2763 25.665 31.9486 26.4723 32.2965C25.9087 32.4788 25.1775 32.4803 24.6907 32.7463C25.0887 32.9384 26.0203 32.8997 26.6279 32.7522ZM18.8674 27.6771C18.2813 26.2986 17.7489 24.87 16.8737 23.7593C16.0258 24.3281 15.092 24.8628 14.8537 25.8955C16.0675 26.5822 17.4825 27.2596 18.8674 27.6771ZM20.3123 23.4085C20.2568 24.787 20.0995 26.5954 19.7321 27.6758C20.6086 26.5599 21.3155 25.2602 22.0543 23.9949C21.7394 23.4893 21.0811 23.0486 20.3123 23.4083V23.4085ZM18.6744 22.8264C18.3423 22.7905 18.0605 23.2081 17.6286 23.0275C17.5298 23.1369 17.4399 23.2554 17.3391 23.3623C18.2927 24.5115 18.726 26.142 19.4626 27.4927C19.8578 26.1954 19.8122 24.7741 19.8993 23.3581C19.3563 23.3923 19.055 22.8668 18.6744 22.8264ZM17.6212 21.4363C17.5857 21.8299 17.6773 21.9588 17.7567 22.4099C19.0504 22.8144 18.8245 20.634 17.6212 21.4364V21.4363ZM16.1864 20.9653C15.6289 20.6607 14.7912 20.3287 14.0712 20.1915C13.1786 20.0207 13.2624 21.4091 13.3002 22.2372C13.3299 22.8931 13.6709 23.5865 13.8191 24.0219C13.8888 24.2254 13.9043 24.4412 14.0782 24.4816C14.3856 24.5532 15.3995 24.1478 15.6886 23.9901C16.2996 23.657 16.7737 23.128 17.2926 22.7727C17.2994 22.5998 17.306 22.427 17.3129 22.2541C17.0008 22.0989 16.6403 21.9883 16.1823 21.9683C16.4929 21.8118 16.95 21.8142 17.2332 21.6282C17.2358 21.5589 17.2388 21.49 17.2412 21.4213C16.7242 21.3818 16.5272 21.1516 16.1864 20.9653ZM10.8614 19.9978C10.3986 20.4677 12.159 21.1078 12.7198 21.1424C12.7166 20.845 12.8891 20.565 12.8545 20.3517C12.1885 20.2349 11.3137 20.3119 10.8613 19.9978H10.8614ZM16.5614 20.2184C16.5591 20.2644 16.4993 20.2477 16.4896 20.2851C17.0848 20.7503 17.5271 20.8465 18.3373 20.8064C18.7028 20.5413 19.0268 20.2311 19.4072 19.9827C18.5313 20.0609 17.4287 20.605 16.5614 20.2184ZM21.7933 21.805C21.7682 21.283 21.6311 20.21 21.3085 20.0222C20.6314 19.6268 19.428 20.82 18.9181 21.0021C18.9735 21.1617 19.0651 21.2881 19.072 21.4923C19.3737 21.4182 19.7409 21.4689 20.0022 21.5975C19.7001 21.6313 19.3649 21.6291 19.165 21.7729C19.0917 21.9846 19.183 22.2732 19.1342 22.5674C19.8515 22.7698 20.6708 22.8776 21.5776 22.9041C21.7539 22.6745 21.814 22.2378 21.7931 21.8049L21.7933 21.805ZM10.0825 20.4523C9.93726 20.3486 8.95425 19.0697 8.8197 19.1228C7.04108 19.8243 5.37802 21.0373 3.89171 22.1843C5.30876 25.2248 5.88081 28.9498 5.98175 32.54C7.60492 33.2993 9.0307 34.3938 11.2334 34.508C10.9784 32.7046 10.7456 31.0957 10.601 29.3978C10.0476 29.1644 9.25362 29.4084 8.73569 29.3254C8.73146 28.7014 9.52682 29.0519 9.593 28.6324C9.6429 28.3149 9.15524 28.2909 9.31403 27.791C9.71908 27.9382 9.93161 28.2631 10.3633 28.3853C10.758 27.5221 10.358 25.9948 10.4147 25.2733C10.4254 25.1378 10.4824 24.5229 10.7857 24.6307C11.0543 24.7261 10.7705 26.2664 10.7998 26.9493C10.8266 27.5784 10.7238 28.187 10.9786 28.5821C13.1072 28.2922 15.2699 28.1049 17.5729 28.0418C17.0662 27.8244 16.4644 27.6188 15.8045 27.2469C15.4467 27.0452 14.319 26.6256 14.2157 26.2858C14.0512 25.7444 14.6478 25.4559 14.7499 24.9917C13.6756 25.5779 13.4659 24.4302 13.2118 23.6173C12.9816 22.8809 12.8504 22.3308 12.7939 21.9061C11.8685 21.4649 10.879 21.018 10.0825 20.4523ZM20.8532 19.2775C22.3352 18.559 22.6022 21.9632 22.0213 23.0598C22.1111 23.3869 22.4199 23.5121 22.5459 23.8062C21.719 25.2876 20.8005 26.6706 19.9567 28.1344C20.5844 27.7436 21.4809 28.0645 22.2196 27.7722C22.4896 27.6654 22.6849 27.0474 22.8894 26.553C23.4517 25.1925 24.0418 23.4775 24.3046 22.1792C24.3639 21.8835 24.5255 21.239 24.4893 20.9757C24.4247 20.5043 23.7852 20.1548 23.4599 19.8634C22.8605 19.325 22.4832 18.8514 21.8579 18.348C21.6046 18.7219 21.0605 18.9733 20.8532 19.2775ZM6.69323 6.1358C5.98688 6.91256 6.13477 8.3686 6.22032 9.40432C7.4968 8.60114 9.19077 9.46756 9.17473 10.8334C9.78411 10.8171 9.4024 10.0722 9.29222 9.59236C8.93206 8.02498 9.89916 6.32216 9.33609 4.88882C8.2429 4.97181 7.34481 5.41829 6.69323 6.1358ZM11.7458 1.62645C10.1474 2.07948 8.09848 3.24103 7.44164 4.67719C7.95034 4.60318 8.30332 4.34666 8.80508 4.31497C8.99491 4.30266 9.24323 4.39437 9.46115 4.34024C9.89544 4.2325 10.2619 3.25873 10.5896 2.89639C10.909 2.54251 11.293 2.39129 11.5558 2.0687C11.7245 1.98726 11.9741 1.99303 11.9837 1.73945C11.9105 1.66121 11.8334 1.60157 11.7458 1.62645ZM20.0673 2.05254C18.4081 1.11661 15.5996 0.412444 13.8347 1.29207C12.4106 2.00239 10.4855 3.17715 9.829 4.6659C10.4421 6.10283 9.64738 7.4192 9.59672 8.8778C9.56979 9.65379 9.96214 10.3314 9.99216 11.1763C9.78219 11.5226 9.14139 11.5652 8.6976 11.5414C8.5483 10.7941 8.2869 9.95393 7.51706 9.86953C6.42798 9.75038 5.63185 10.6518 5.58221 11.5938C5.5236 12.7015 6.43298 14.5374 7.7219 14.41C8.21956 14.3608 8.34218 13.8617 8.88448 13.8669C9.17845 14.4535 8.43094 14.6377 8.35398 15.0573C8.33397 15.1656 8.41606 15.5893 8.46364 15.788C8.69772 16.7551 9.21963 18.0069 9.73332 18.7434C10.3852 19.6777 11.6662 19.8183 13.0443 19.9098C13.2903 19.3796 14.197 19.4233 14.7878 19.5621C14.0798 19.2816 13.4215 18.6018 12.876 18.0001C12.2495 17.3098 11.6148 16.5692 11.5827 15.6669C12.7669 17.3096 13.7453 18.7444 15.8983 19.4668C17.5276 20.0133 19.4304 19.2164 20.682 18.3373C21.2015 17.9719 21.5116 17.3922 21.8807 16.8615C23.2621 14.8742 23.9069 12.0376 23.7653 9.2885C23.7069 8.15453 23.7094 7.02466 23.3291 6.26188C22.9315 5.46408 21.5866 4.75056 20.7993 5.47204C20.6535 4.69643 21.454 4.21647 22.3943 4.49583C21.724 3.63005 21.0203 2.59035 20.0673 2.05254ZM23.1586 27.6358C24.4552 26.9912 26.8777 25.9009 27.6907 27.6382C27.9907 28.2786 28.3425 29.361 28.498 30.0222C28.7173 30.9547 28.26 32.9151 27.3013 33.228C26.4547 33.5044 25.4667 33.4878 24.4469 33.2827C24.3268 33.1828 24.1931 33.0087 24.0996 32.8272C23.3714 32.799 22.6894 32.8665 22.1142 33.1657C22.1687 33.7041 21.8044 33.7906 21.463 33.9015C21.2098 34.9053 21.9695 36.2164 21.7876 37.1317C21.6579 37.7838 20.8557 37.8846 20.2659 38.0066C20.2467 38.3689 20.2918 38.6715 20.332 38.9781C20.1973 39.475 19.5924 39.7578 19.0192 39.827C17.1341 40.0534 14.2714 40.1554 12.4581 39.5032C11.9521 38.2618 11.5534 36.7519 11.1319 35.3349C9.36328 35.5238 7.93276 34.5717 6.58433 33.9481C6.11746 33.7316 5.4714 33.6123 5.29721 33.2407C5.12804 32.8807 5.19717 32.1913 5.15523 31.5397C5.04851 29.8761 4.95706 28.2713 4.51776 26.5678C4.32049 25.8034 3.97649 25.1287 3.73664 24.3922C3.515 23.7096 3.12777 22.8659 3.02657 22.1852C2.87689 21.1763 3.82681 21.1201 4.43426 20.6829C5.37353 20.0069 6.11066 19.6329 7.12766 19.0228C7.42895 18.8419 8.33718 18.3847 8.44056 18.1739C8.64591 17.7563 8.08796 17.1674 7.93879 16.84C7.70279 16.3223 7.57978 15.8825 7.54592 15.3715C6.69272 15.2368 6.04601 14.7289 5.65532 14.1565C5.00901 13.209 4.56073 11.4559 5.11995 10.1223C5.16382 10.0174 5.38264 9.81092 5.41496 9.64969C5.47845 9.33211 5.29503 8.90961 5.28375 8.5719C5.225 6.83881 5.57696 5.34557 6.74364 4.82277C7.21731 2.93576 8.91257 2.30843 10.5098 1.3707C11.1069 1.02015 11.765 0.796207 12.4448 0.546094C14.8831 -0.351234 18.624 -0.182312 20.6477 1.34825C21.5058 1.99726 22.8773 3.36762 23.3679 4.35974C24.6638 6.97887 24.5717 11.3565 23.6655 14.5425C23.5437 14.9704 23.3669 15.5992 23.1201 16.1131C22.9481 16.4719 22.4134 17.1899 22.4783 17.5067C22.5451 17.8342 23.6976 18.7092 23.9445 18.9473C24.3896 19.3765 25.2348 19.9463 25.3032 20.4879C25.3768 21.0642 25.0492 21.8526 24.8831 22.409C24.3289 24.2653 23.7876 25.981 23.1586 27.6358Z" fill="#ADB5BD"></path> <path d="M14.5079 14.7874C14.5782 14.6938 14.9649 14.5517 15.506 14.8122C15.506 14.8122 14.8647 14.9189 14.9182 15.9883L14.651 15.9347C14.6509 15.9347 14.3746 14.9653 14.5079 14.7874Z" fill="white"></path> <path d="M19.1942 23.9774C19.1942 24.0554 19.1633 24.1301 19.1081 24.1852C19.053 24.2403 18.9783 24.2713 18.9004 24.2713C18.8224 24.2713 18.7477 24.2403 18.6926 24.1852C18.6375 24.1301 18.6065 24.0554 18.6065 23.9774C18.6065 23.8995 18.6375 23.8248 18.6926 23.7697C18.7477 23.7146 18.8224 23.6836 18.9004 23.6836C18.9783 23.6836 19.053 23.7146 19.1081 23.7697C19.1633 23.8248 19.1942 23.8995 19.1942 23.9774ZM19.4882 25.3402C19.4882 25.4182 19.4571 25.493 19.402 25.5481C19.3468 25.6032 19.272 25.6342 19.194 25.6342C19.116 25.6341 19.0413 25.6031 18.9861 25.5479C18.931 25.4928 18.9001 25.418 18.9001 25.34C18.9001 25.262 18.9311 25.1873 18.9863 25.1321C19.0415 25.077 19.1162 25.0461 19.1942 25.0461C19.2722 25.0462 19.3469 25.0772 19.4021 25.1323C19.4572 25.1875 19.4881 25.2623 19.4881 25.3402" fill="#ADB5BD"></path> <path d="M50.2933 13.3845C49.9928 13.4222 49.7371 13.4597 49.5268 13.4974C49.2882 13.5412 49.0513 13.5938 48.8166 13.6552C48.5083 13.7379 48.311 13.8848 48.2248 14.0951C48.1383 14.3058 48.0951 14.5465 48.0951 14.8172V23.6392C48.0951 24.4516 47.9316 25.1961 47.6046 25.873C47.2777 26.5498 46.8285 27.1177 46.2575 27.5763C45.6788 28.0278 45.0325 28.3681 44.3185 28.5973C43.6044 28.8266 42.8417 28.9414 42.0302 28.9414C40.6247 28.9414 39.4919 28.6033 38.6312 27.9269C37.7706 27.2504 37.3405 26.3224 37.3405 25.1424C37.3405 24.4435 37.5378 23.8649 37.9323 23.4064C38.3269 22.948 38.8698 22.7187 39.5613 22.7187C40.215 22.7187 40.7353 22.9104 41.1225 23.2936C41.5096 23.6771 41.703 24.1504 41.703 24.714C41.703 25.1951 41.5356 25.6402 41.2015 26.0499C40.867 26.4595 40.4855 26.8373 40.0571 27.1828V27.3293C40.125 27.4797 40.2718 27.6075 40.4981 27.7127C40.7238 27.818 40.9538 27.8704 41.1876 27.8704C42.0919 27.8704 42.8021 27.5471 43.3183 26.9002C43.8346 26.2535 44.0929 25.2757 44.0929 23.9669V14.9301C44.0929 14.6593 44.0514 14.4337 43.9683 14.2533C43.8849 14.0728 43.6848 13.9146 43.368 13.7795C43.1413 13.6816 42.8678 13.5989 42.5467 13.5313C42.2258 13.4635 41.9594 13.4147 41.7481 13.3845V12.5053H50.2932V13.3845H50.2933ZM63.6632 25.8076C63.4001 26.236 63.0828 26.64 62.7107 27.0197C62.3387 27.3991 61.9157 27.7242 61.4422 27.9947C60.9386 28.2804 60.4294 28.4962 59.9148 28.6428C59.4 28.7894 58.808 28.8627 58.1391 28.8627C57.0268 28.8627 56.0665 28.7049 55.259 28.3893C54.4511 28.0736 53.784 27.6492 53.258 27.1155C52.732 26.5819 52.3392 25.9525 52.08 25.2272C51.8208 24.5021 51.6911 23.715 51.6911 22.8656C51.6911 22.0991 51.8321 21.3645 52.1139 20.6617C52.3915 19.9656 52.7989 19.3287 53.3144 18.7848C53.8255 18.2512 54.4701 17.819 55.2478 17.4883C56.0258 17.1578 56.8955 16.9923 57.8575 16.9923C58.9096 16.9923 59.7739 17.1202 60.4503 17.3756C61.1268 17.6312 61.6866 17.9844 62.1301 18.4353C62.5585 18.8637 62.8703 19.369 63.0657 19.9513C63.2612 20.5339 63.3588 21.1446 63.3588 21.7833V22.5161H55.7382C55.7382 24.0568 56.0351 25.2294 56.6289 26.0333C57.2226 26.8375 58.1658 27.2395 59.4583 27.2395C60.1648 27.2395 60.7998 27.0462 61.3636 26.659C61.9273 26.2719 62.4083 25.7817 62.8065 25.1878L63.6632 25.8076ZM59.3569 21.5238C59.3569 21.073 59.3343 20.6106 59.2893 20.1373C59.2443 19.664 59.1653 19.2767 59.0524 18.9762C58.9246 18.6229 58.7497 18.3561 58.5283 18.1758C58.3065 17.9955 58.0265 17.9052 57.6883 17.9052C57.1097 17.9052 56.6474 18.1982 56.3018 18.7844C55.9561 19.3706 55.7682 20.2989 55.7381 21.5689L59.3569 21.5238ZM79.626 28.5017H72.8508V27.6788C72.9935 27.6639 73.1665 27.6449 73.3694 27.6224C73.5723 27.5998 73.7262 27.5625 73.8315 27.5096C73.9893 27.4272 74.1021 27.3067 74.1697 27.149C74.2373 26.9912 74.271 26.7583 74.271 26.45V21.1743C74.271 20.4077 74.1297 19.831 73.8471 19.4438C73.5646 19.0568 73.1481 18.8633 72.5979 18.8633C72.2964 18.8633 72.0159 18.9083 71.7559 18.9986C71.4961 19.0888 71.2416 19.2204 70.9928 19.3931C70.7742 19.5436 70.599 19.6975 70.4672 19.8554C70.3525 19.9916 70.2413 20.1308 70.1337 20.2726V26.3261C70.1337 26.5892 70.1712 26.8092 70.2464 26.9855C70.3214 27.1623 70.4454 27.2957 70.6184 27.3857C70.7384 27.4534 70.889 27.5137 71.0692 27.5661C71.2496 27.6189 71.4261 27.6562 71.5991 27.6789V28.5017H64.7451V27.6788C64.9354 27.6636 65.1252 27.6429 65.3143 27.6167C65.5059 27.5904 65.6696 27.5548 65.8048 27.5096C66.0453 27.4272 66.2106 27.2993 66.3009 27.1264C66.391 26.9536 66.4362 26.7281 66.4362 26.4499V19.8887C66.4362 19.656 66.3759 19.4266 66.2558 19.2013C66.1356 18.9758 65.9778 18.7917 65.7825 18.6488C65.647 18.5587 65.4762 18.4836 65.2694 18.4233C65.0627 18.3633 64.8355 18.322 64.5874 18.2994V17.4765L69.9647 17.1834L70.1338 17.3526V18.9871H70.1789C70.4334 18.7604 70.6889 18.535 70.9454 18.3107C71.246 18.0478 71.524 17.8336 71.7797 17.6681C72.0575 17.4877 72.4223 17.3337 72.8731 17.2059C73.324 17.0781 73.8049 17.0142 74.3161 17.0142C75.541 17.0142 76.4596 17.362 77.0723 18.057C77.6848 18.7522 77.9909 19.6748 77.9909 20.8247V26.3486C77.9909 26.6268 78.0321 26.8486 78.1148 27.0136C78.1976 27.1791 78.3517 27.3106 78.5771 27.4082C78.6972 27.461 78.8458 27.5136 79.0223 27.5659C79.1989 27.6188 79.3999 27.6561 79.6255 27.6788V28.5016L79.626 28.5017ZM95.1378 28.5017H89.8241C89.1709 27.3551 88.5739 26.3822 88.0336 25.584C87.5295 24.8392 87.0189 24.0988 86.5016 23.3631L85.8374 23.9249V26.3825C85.8374 26.6531 85.8768 26.8747 85.9557 27.0475C86.0346 27.2204 86.1868 27.3483 86.4123 27.4307C86.5476 27.491 86.7054 27.5436 86.8859 27.5885C87.0663 27.6334 87.2465 27.6639 87.4269 27.6787V28.5016H80.4263V27.6787C80.616 27.6637 80.8052 27.643 80.9937 27.6166C81.1829 27.5903 81.3494 27.5545 81.493 27.5095C81.7349 27.4269 81.8998 27.2991 81.9868 27.1261C82.0739 26.9535 82.1173 26.7279 82.1173 26.4498V13.8803C82.1173 13.6322 82.0626 13.3749 81.9538 13.1081C81.8447 12.8415 81.6849 12.6403 81.4747 12.505C81.3319 12.4149 81.1177 12.3398 80.8321 12.2795C80.5465 12.2194 80.2872 12.1819 80.0542 12.1668V11.3439L85.6679 11.0508L85.8372 11.2311V22.8646C86.3926 22.3685 87.0175 21.7936 87.7117 21.1398C88.406 20.4862 88.9633 19.9451 89.3839 19.5167C89.632 19.2613 89.7688 19.0677 89.7952 18.9363C89.8214 18.8048 89.8348 18.724 89.8348 18.6939C89.8348 18.5585 89.716 18.4458 89.4788 18.3557C89.2414 18.2656 88.8843 18.1864 88.4074 18.1188V17.3185H94.1344V18.0964C93.3838 18.307 92.8116 18.5043 92.4178 18.6882C92.0241 18.8724 91.5944 19.1185 91.1291 19.4265C90.8233 19.6282 90.525 19.841 90.2348 20.0645C89.9463 20.2869 89.6148 20.5639 89.2401 20.8956C89.9753 21.9625 90.6542 22.9499 91.2769 23.8589C91.8997 24.7679 92.5523 25.7292 93.235 26.7433C93.4676 27.0964 93.7564 27.333 94.1017 27.4531C94.447 27.5735 94.7924 27.6487 95.1377 27.6785V28.5017H95.1378ZM102.386 28.5017H95.2617V27.6788C95.4572 27.6639 95.6488 27.6449 95.8367 27.6224C96.0243 27.5998 96.1862 27.5625 96.3213 27.5096C96.5618 27.4196 96.7309 27.2899 96.8286 27.1207C96.926 26.9516 96.9752 26.7282 96.9752 26.4499V19.8887C96.9752 19.6258 96.9149 19.3947 96.7948 19.1955C96.6745 18.9967 96.5242 18.8367 96.344 18.7164C96.2087 18.6264 96.0038 18.5399 95.7296 18.4573C95.4551 18.3746 95.2053 18.3219 94.9799 18.2996V17.4765L100.504 17.1834L100.673 17.3526V26.3034C100.673 26.5664 100.729 26.7899 100.842 26.9743C100.955 27.1584 101.116 27.2956 101.327 27.3856C101.477 27.4533 101.642 27.5136 101.823 27.5659C102.003 27.6188 102.191 27.6561 102.386 27.6788V28.5016V28.5017ZM100.74 13.1254C100.74 13.6967 100.52 14.1832 100.081 14.5852C99.6412 14.9873 99.1209 15.1884 98.5197 15.1884C97.9108 15.1884 97.3868 14.9873 96.9469 14.5852C96.5074 14.1832 96.2875 13.6965 96.2875 13.1254C96.2875 12.5543 96.5074 12.0659 96.9469 11.6599C97.3865 11.254 97.9108 11.051 98.5196 11.051C99.1283 11.051 99.6509 11.2541 100.087 11.6599C100.522 12.0659 100.74 12.5543 100.74 13.1254ZM118.304 28.5017H111.529V27.6788C111.672 27.6639 111.845 27.6449 112.047 27.6224C112.25 27.5998 112.404 27.5625 112.51 27.5096C112.667 27.4272 112.78 27.3067 112.848 27.149C112.915 26.9912 112.949 26.7583 112.949 26.45V21.1743C112.949 20.4077 112.808 19.831 112.525 19.4438C112.243 19.0568 111.826 18.8633 111.276 18.8633C110.975 18.8633 110.694 18.9083 110.434 18.9986C110.174 19.0888 109.92 19.2204 109.671 19.3931C109.452 19.5436 109.277 19.6975 109.145 19.8554C109.031 19.9916 108.919 20.1308 108.812 20.2726V26.3261C108.812 26.5892 108.849 26.8092 108.924 26.9855C108.999 27.1623 109.123 27.2957 109.296 27.3857C109.417 27.4534 109.567 27.5137 109.747 27.5661C109.928 27.6189 110.104 27.6562 110.277 27.6789V28.5017H103.423V27.6788C103.613 27.6636 103.803 27.6429 103.992 27.6167C104.184 27.5904 104.348 27.5548 104.483 27.5096C104.723 27.4272 104.889 27.2993 104.979 27.1264C105.069 26.9536 105.114 26.7281 105.114 26.4499V19.8887C105.114 19.656 105.054 19.4266 104.934 19.2013C104.814 18.9758 104.656 18.7917 104.46 18.6488C104.325 18.5587 104.154 18.4836 103.948 18.4233C103.741 18.3633 103.513 18.322 103.266 18.2994V17.4765L108.643 17.1834L108.812 17.3526V18.9871H108.857C109.111 18.7604 109.367 18.535 109.624 18.3107C109.924 18.0478 110.202 17.8336 110.458 17.6681C110.736 17.4877 111.1 17.3337 111.551 17.2059C112.002 17.0781 112.483 17.0142 112.994 17.0142C114.219 17.0142 115.138 17.362 115.75 18.057C116.363 18.7522 116.669 19.6748 116.669 20.8247V26.3486C116.669 26.6268 116.71 26.8486 116.793 27.0136C116.876 27.1791 117.03 27.3106 117.255 27.4082C117.375 27.461 117.524 27.5136 117.7 27.5659C117.877 27.6188 118.078 27.6561 118.304 27.6788V28.5016L118.304 28.5017ZM124.572 28.8851C123.848 28.8859 123.128 28.7775 122.436 28.5638C121.74 28.3496 121.201 28.1225 120.818 27.8818L120.48 28.6483H119.601L119.454 24.4434H120.277C120.39 24.7815 120.577 25.1631 120.841 25.5876C121.104 26.0122 121.404 26.3936 121.743 26.732C122.096 27.0701 122.5 27.3557 122.954 27.5888C123.409 27.8218 123.896 27.9383 124.414 27.9383C125.098 27.9383 125.607 27.8049 125.942 27.5381C126.276 27.2713 126.443 26.8598 126.443 26.3037C126.443 26.0032 126.368 25.7552 126.218 25.5596C126.068 25.3643 125.861 25.1951 125.598 25.0524C125.305 24.902 124.984 24.7743 124.634 24.6689C124.285 24.5639 123.854 24.4362 123.343 24.2856C122.832 24.1354 122.394 23.983 122.03 23.829C121.665 23.6751 121.288 23.4327 120.897 23.1019C120.559 22.8088 120.288 22.4558 120.086 22.0424C119.883 21.6291 119.781 21.1369 119.781 20.5655C119.781 19.506 120.227 18.6492 121.117 17.9953C122.008 17.3414 123.175 17.0145 124.618 17.0145C125.301 17.0145 125.931 17.0841 126.506 17.2232C127.081 17.3624 127.563 17.5143 127.954 17.6798L128.191 17.0148H129.048L129.228 20.8588H128.439C128.176 20.0774 127.725 19.403 127.086 18.8355C126.447 18.268 125.76 17.9842 125.023 17.9842C124.445 17.9842 123.99 18.1045 123.659 18.345C123.328 18.5856 123.163 18.9198 123.163 19.3482C123.163 19.9195 123.405 20.3329 123.889 20.5883C124.373 20.8441 125.05 21.0843 125.92 21.3098C127.263 21.6556 128.246 22.1271 128.869 22.7245C129.492 23.3221 129.803 24.083 129.803 25.0072C129.803 26.2398 129.32 27.1944 128.354 27.8706C127.388 28.5469 126.128 28.8851 124.572 28.8851H124.572Z" fill="#ADB5BD"></path> </svg> 