<?xml version="1.0" encoding="UTF-8"?> <svg xmlns="http://www.w3.org/2000/svg" width="183" height="26" viewBox="0 0 183 26" fill="none"> <path d="M47.9944 1.88086C52.8484 1.88086 55.1844 4.27754 55.1844 8.10009C55.1844 10.9822 53.8799 12.7114 51.2102 13.3789C54.7294 13.9553 56.4586 15.8666 56.4586 19.234C56.4586 23.0263 53.8799 25.6353 48.5708 25.6353H38.7717V1.88086H47.9944ZM42.0179 5.00564V12.0743H47.5393C50.6034 12.0743 51.8776 10.6788 51.8776 8.37313C51.8776 6.0978 50.5124 4.97531 47.5393 4.97531L42.0179 5.00564ZM42.0179 14.9564V22.3588H48.6618C51.7563 22.3588 53.1822 21.2363 53.1822 18.8397C53.1822 16.3216 51.8473 14.9261 48.6012 14.9261L42.0179 14.9564Z" fill="#ADB5BD"></path> <path d="M61.7373 0.636626C62.8598 0.545613 63.8306 1.39507 63.8912 2.51757C63.8912 2.60858 63.8912 2.6996 63.8912 2.82095C63.8912 4.00412 62.9204 4.97493 61.7373 4.97493C60.5541 4.97493 59.5833 4.00412 59.5833 2.82095C59.4923 1.69845 60.3417 0.727641 61.4642 0.666966C61.5552 0.60629 61.6462 0.606288 61.7373 0.636626ZM60.1597 7.55364H63.2541V25.6046H60.1597V7.55364Z" fill="#ADB5BD"></path> <path d="M75.116 22.5708C75.7834 22.5404 76.4205 22.4797 77.0576 22.3281V25.3315C76.3902 25.5135 75.6621 25.6349 74.9643 25.6045C71.1114 25.6045 69.2305 23.3292 69.2305 19.9617V10.4357H66.3181V7.55358H69.2305V3.70068H72.2339V7.52324H77.0273V10.4053H72.2339V19.901C72.2642 21.5089 73.2047 22.5708 75.116 22.5708Z" fill="#ADB5BD"></path> <path d="M89.8905 25.9691C87.2512 25.9691 85.2185 24.7859 84.1567 22.4196V25.6051H81.0623V0H84.187V10.8002C85.3399 8.40355 87.5242 7.19005 90.2849 7.19005C95.0783 7.19005 97.5053 11.2553 97.5053 16.5947C97.475 21.6915 94.9266 25.9691 89.8905 25.9691ZM89.4051 10.0721C86.6141 10.0721 84.1567 11.8317 84.1567 15.8666V17.3228C84.1567 21.3274 86.432 23.1174 89.0714 23.1174C92.5906 23.1174 94.3805 20.8117 94.3805 16.6251C94.3502 12.2565 92.6209 10.0721 89.4051 10.0721Z" fill="#ADB5BD"></path> <path d="M100.721 7.5542H103.815V18.4758C103.815 21.7219 105.12 23.1781 108.063 23.1781C110.945 23.1781 112.947 21.2668 112.947 17.6263V7.58453H116.042V25.6355H112.947V22.6624C111.825 24.7557 109.61 26.0299 107.244 25.9995C103.087 25.9995 100.691 23.1175 100.691 18.1724L100.721 7.5542Z" fill="#ADB5BD"></path> <path d="M133.516 25.1505C132.424 25.7269 130.756 25.9696 129.117 25.9696C122.686 25.9696 119.682 22.056 119.682 16.5346C119.682 11.0738 122.686 7.19055 129.117 7.19055C130.604 7.16021 132.091 7.46359 133.425 8.07034V10.9524C132.151 10.3457 130.725 10.0726 129.33 10.103C124.627 10.103 122.716 13.0761 122.716 16.5649C122.716 20.0841 124.658 23.0268 129.39 23.0268C130.786 23.0572 132.182 22.8448 133.486 22.3898L133.516 25.1505Z" fill="#ADB5BD"></path> <path d="M137.15 25.6051V0H140.245V16.0183L148.011 7.5541H152.046L143.552 16.4127L152.41 25.6051H148.193L140.245 17.1408V25.6051H137.15Z" fill="#ADB5BD"></path> <path d="M162.641 25.97C155.875 25.97 152.932 22.0564 152.932 16.5349C152.932 11.0741 155.966 7.19092 161.457 7.19092C167.009 7.19092 169.254 11.0438 169.254 16.5349V17.9305H156.057C156.482 20.9946 158.484 22.9969 162.732 22.9969C164.613 22.9969 166.463 22.6632 168.223 22.0261V24.9082C166.736 25.6969 164.461 25.97 162.641 25.97ZM156.027 15.3214H166.099C165.917 11.9539 164.4 10.0427 161.306 10.0427C157.999 10.0123 156.361 12.136 156.027 15.3214Z" fill="#ADB5BD"></path> <path d="M180.085 22.5708C180.752 22.5404 181.389 22.4797 182.027 22.3281V25.3315C181.359 25.5135 180.631 25.6349 179.933 25.6045C176.08 25.6045 174.199 23.3292 174.199 19.9617V10.4357H171.287V7.55358H174.199V3.70068H177.233V7.52324H182.027V10.4053H177.233V19.901C177.233 21.5089 178.143 22.5708 180.085 22.5708Z" fill="#ADB5BD"></path> <path d="M0.819118 2.5791C0.364052 2.5791 0 2.94316 0 3.39822C0 3.4589 0 3.48924 0 3.54991L3.48884 24.6953C3.57985 25.2414 4.03492 25.6358 4.581 25.6358H21.2971C21.6915 25.6358 22.0555 25.3627 22.1162 24.938L25.605 3.54991C25.6657 3.09485 25.3623 2.67012 24.9376 2.60944C24.8769 2.60944 24.8466 2.60944 24.7859 2.60944L0.819118 2.5791ZM15.5026 17.8693H10.1631L8.70693 10.3152H16.7768L15.5026 17.8693Z" fill="#ADB5BD"></path> <path d="M24.5128 10.3149H16.807L15.5025 17.869H10.1631L3.85281 25.3625C4.06518 25.5445 4.30788 25.6355 4.58092 25.6355H21.297C21.6914 25.6355 22.0555 25.3625 22.1161 24.9377L24.5128 10.3149Z" fill="url(#paint0_linear)"></path> <defs> <linearGradient id="paint0_linear" x1="26.2886" y1="12.4388" x2="13.5558" y2="22.3764" gradientUnits="userSpaceOnUse"> <stop offset="0.18" stop-color="#9BA4AD"></stop> <stop offset="1" stop-color="#ADB5BD"></stop> </linearGradient> </defs> </svg> 