<?xml version="1.0" encoding="UTF-8"?> <svg xmlns="http://www.w3.org/2000/svg" width="128" height="30" viewBox="0 0 128 30" fill="none"> <path d="M26.4521 17.2896C29.0583 17.2896 32.8292 16.7521 32.8292 13.6521C32.837 13.4128 32.8153 13.1735 32.7646 12.9396L31.2125 6.19792C30.8542 4.71458 30.5396 4.04167 27.9354 2.73958C25.9146 1.70625 21.5125 0 20.2104 0C18.9979 0 18.6458 1.5625 17.2 1.5625C15.8083 1.5625 14.775 0.395833 13.4729 0.395833C12.2229 0.395833 11.4083 1.24792 10.7792 3C10.7792 3 9.02708 7.94167 8.80208 8.65833C8.76632 8.78994 8.75087 8.92623 8.75625 9.0625C8.75625 10.9833 16.3188 17.2812 26.4521 17.2812V17.2896ZM33.2292 14.9104C33.5896 16.6167 33.5896 16.7958 33.5896 17.0208C33.5896 19.9375 30.3104 21.5562 26 21.5562C16.2583 21.5625 7.725 15.8542 7.725 12.0813C7.72444 11.5561 7.8315 11.0364 8.03958 10.5542C4.53542 10.7292 0 11.3542 0 15.3583C0 21.9167 15.5396 30 27.8438 30C37.2771 30 39.6563 25.7333 39.6563 22.3646C39.6563 19.7146 37.3646 16.7062 33.2333 14.9104" fill="#ADB5BD"></path> <path d="M33.2293 14.9103C33.5897 16.6165 33.5897 16.7957 33.5897 17.0207C33.5897 19.9373 30.3105 21.5561 26.0001 21.5561C16.2584 21.5623 7.7251 15.854 7.7251 12.0811C7.72454 11.5559 7.8316 11.0362 8.03968 10.554L8.80218 8.6665C8.76726 8.79543 8.75181 8.92885 8.75635 9.06234C8.75635 10.9832 16.3188 17.2811 26.4522 17.2811C29.0584 17.2811 32.8293 16.7436 32.8293 13.6436C32.8371 13.4043 32.8154 13.165 32.7647 12.9311L33.2293 14.9103Z" fill="#9BA4AD"></path> <path d="M120.675 19.2293C120.675 21.7064 122.165 22.9105 124.881 22.9105C125.718 22.8897 126.549 22.7723 127.358 22.5605V19.6876C126.841 19.8516 126.301 19.9331 125.758 19.9293C124.64 19.9293 124.225 19.5793 124.225 18.5272V14.1251H127.467V11.1668H124.225V7.4168L120.683 8.18346V11.1668H118.331V14.1251H120.675V19.2293ZM109.633 19.296C109.633 18.5293 110.402 18.1564 111.563 18.1564C112.272 18.1605 112.978 18.2486 113.667 18.4189V19.9085C112.988 20.2791 112.225 20.4679 111.452 20.4564C110.315 20.4564 109.633 20.0189 109.633 19.296ZM110.717 22.9543C111.967 22.9543 112.975 22.6918 113.917 22.0564V22.7585H117.421V15.3293C117.421 12.5043 115.517 10.9543 112.34 10.9543C110.565 10.9543 108.81 11.371 106.923 12.2251L108.194 14.8335C109.552 14.2626 110.694 13.9126 111.7 13.9126C113.158 13.9126 113.913 14.4814 113.913 15.6439V16.2126C113.054 15.9904 112.17 15.8797 111.283 15.8835C108.302 15.8835 106.506 17.1335 106.506 19.3689C106.506 21.4064 108.127 22.9605 110.713 22.9605L110.717 22.9543ZM91.4543 22.7647H95.223V16.7543H101.533V22.7585H105.313V7.42096H101.548V13.3147H95.2376V7.42096H91.4688L91.4543 22.7647ZM77.1084 16.9522C77.1084 15.2855 78.423 14.0147 80.1542 14.0147C81.0549 13.9965 81.9296 14.3177 82.6042 14.9147V18.9668C82.2774 19.2756 81.8926 19.5168 81.4721 19.6762C81.0516 19.8357 80.6037 19.9104 80.1542 19.896C78.4459 19.896 77.1084 18.6251 77.1084 16.9605V16.9522ZM82.6522 22.7668H86.1584V6.6543L82.6167 7.42096V11.7814C81.7152 11.2703 80.6948 11.0058 79.6584 11.0147C76.2855 11.0147 73.6334 13.621 73.6334 16.9522C73.6237 17.7338 73.7698 18.5096 74.0632 19.2341C74.3566 19.9587 74.7914 20.6175 75.3422 21.1722C75.893 21.7269 76.5488 22.1663 77.2712 22.4647C77.9937 22.7632 78.7684 22.9148 79.5501 22.9105C80.6677 22.9159 81.7577 22.5632 82.6605 21.9043L82.6522 22.7668ZM66.5626 13.8543C67.6792 13.8543 68.6209 14.5772 68.9938 15.6939H64.1605C64.5105 14.5418 65.3876 13.8543 66.5626 13.8543ZM60.5897 16.9793C60.5897 20.3543 63.3501 22.9835 66.898 22.9835C68.848 22.9835 70.273 22.4564 71.7417 21.2293L69.3959 19.146C68.848 19.7168 68.0376 20.023 67.0751 20.023C66.4698 20.0401 65.8736 19.8735 65.3649 19.5451C64.8562 19.2167 64.4588 18.742 64.2251 18.1835H72.4855V17.3022C72.4855 13.621 70.0105 10.971 66.6355 10.971C65.8421 10.959 65.0544 11.1058 64.3185 11.4027C63.5827 11.6996 62.9137 12.1406 62.3508 12.6998C61.7879 13.259 61.3425 13.9251 61.0408 14.659C60.739 15.3928 60.5871 16.1796 60.5938 16.973L60.5897 16.9793ZM54.4792 10.6418C55.7292 10.6418 56.4292 11.4293 56.4292 12.373C56.4292 13.3168 55.7292 14.1043 54.4792 14.1043H50.7522V10.6418H54.4792ZM46.9792 22.7585H50.748V17.171H53.6167L56.5105 22.7585H60.7292L57.3542 16.623C58.212 16.2742 58.9457 15.6767 59.461 14.9075C59.9763 14.1382 60.2497 13.2323 60.2459 12.3064C60.2459 9.54596 58.0772 7.42096 54.8292 7.42096H46.9792V22.7585Z" fill="#ADB5BD"></path> </svg> 