<?xml version="1.0" encoding="UTF-8"?> <svg xmlns="http://www.w3.org/2000/svg" width="125" height="30" viewBox="0 0 125 30" fill="none"> <path d="M38.5784 3.92021V2.30924H37.0822V3.92021H36.354V0.054863H37.1071V1.67582H38.6034V0.054863H39.3565V3.92021H38.5784ZM42.0697 3.92021H41.4712L41.4163 3.73069C41.163 3.89354 40.8696 3.98329 40.5684 3.99004C40.0398 3.99004 39.8103 3.64091 39.8103 3.16211C39.8103 2.59353 40.0647 2.37906 40.6582 2.37906H41.3565V2.06983C41.3565 1.7606 41.2667 1.65088 40.8029 1.65088C40.5331 1.65341 40.2642 1.6818 39.9999 1.73567L39.9001 1.20699C40.2257 1.12127 40.5609 1.07769 40.8976 1.07731C41.8104 1.07731 42.0797 1.38654 42.0797 2.07482L42.0697 3.92021ZM41.3565 2.86784H40.8178C40.5784 2.86784 40.5136 2.93268 40.5136 3.14216C40.5136 3.35163 40.5784 3.42146 40.8079 3.42146C40.9998 3.4185 41.1881 3.36886 41.3565 3.27682V2.86784ZM43.6059 3.99004C43.2675 3.98465 42.9316 3.9309 42.6084 3.83044L42.7081 3.29677C42.9893 3.37376 43.2794 3.41399 43.571 3.41647C43.8951 3.41647 43.94 3.34665 43.94 3.13717C43.94 2.92769 43.9051 2.87782 43.4413 2.77308C42.733 2.60849 42.6483 2.43392 42.6483 1.89527C42.6483 1.35661 42.8926 1.07232 43.7256 1.07232C44.0193 1.07335 44.312 1.1068 44.5984 1.17207L44.5286 1.72569C44.265 1.67904 43.9982 1.65236 43.7306 1.64589C43.4163 1.64589 43.3615 1.71572 43.3615 1.88529C43.3615 2.05487 43.3615 2.1247 43.7705 2.22445C44.5834 2.42894 44.6582 2.53367 44.6582 3.10724C44.6582 3.68081 44.4837 3.99004 43.6059 3.99004ZM46.9376 3.93518V1.99502C46.9376 1.84539 46.8727 1.77058 46.7031 1.77058C46.4383 1.79586 46.1809 1.87207 45.945 1.99502V3.92021H45.2168V0L45.945 0.109726V1.34165C46.2765 1.17879 46.6384 1.08705 47.0074 1.07232C47.5061 1.07232 47.6657 1.39651 47.6657 1.89527V3.92021L46.9376 3.93518ZM48.2742 0.75312V0.054863H49.0024V0.738157L48.2742 0.75312ZM48.2742 3.93518V1.13217H49.0024V3.92021L48.2742 3.93518ZM49.581 1.17207C49.581 0.473817 50.0049 0.0648381 50.9924 0.0648381C51.3552 0.0644519 51.7167 0.106296 52.0697 0.189527L51.985 0.81297C51.664 0.753708 51.3387 0.720351 51.0124 0.713219C50.5136 0.713219 50.3291 0.882796 50.3291 1.29177V2.74315C50.3291 3.14714 50.4937 3.32171 51.0124 3.32171C51.3387 3.31458 51.664 3.28122 51.985 3.22196L52.0697 3.8454C51.7167 3.92863 51.3552 3.97047 50.9924 3.97009C49.9949 3.97009 49.581 3.5661 49.581 2.86285V1.17207ZM53.6807 3.99004C52.6832 3.99004 52.4189 3.46136 52.4189 2.89278V2.17457C52.4189 1.601 52.6882 1.07731 53.6807 1.07731C54.6732 1.07731 54.9426 1.60599 54.9426 2.17457V2.87782C54.9476 3.45138 54.6782 3.99004 53.6807 3.99004ZM53.6807 1.6808C53.2917 1.6808 53.1421 1.84539 53.1421 2.17956V2.92769C53.1421 3.24191 53.2917 3.42645 53.6807 3.42645C54.0697 3.42645 54.2194 3.26186 54.2194 2.92769V2.14963C54.2194 1.83542 54.0697 1.67083 53.6807 1.67083V1.6808ZM56.9924 1.72569C56.7266 1.84089 56.4699 1.97593 56.2244 2.12968V3.9252H55.4962V1.13217H56.1097L56.1595 1.4414C56.3973 1.28788 56.6537 1.16552 56.9226 1.07731L56.9924 1.72569ZM59.9002 2.99253C59.9222 3.12498 59.9129 3.26074 59.8732 3.38899C59.8335 3.51725 59.7644 3.63447 59.6714 3.73133C59.5784 3.82818 59.4641 3.902 59.3376 3.94692C59.2111 3.99183 59.0758 4.0066 58.9426 3.99004C58.683 3.98756 58.4242 3.96085 58.1695 3.91024V5.03742L57.4413 5.14715V1.15711H58.0199L58.0897 1.39153C58.3572 1.19972 58.6782 1.09679 59.0074 1.09726C59.591 1.09726 59.9002 1.43143 59.9002 2.06485V2.99253ZM58.1645 3.30674C58.3761 3.3524 58.5915 3.37745 58.8079 3.38156C59.0723 3.38156 59.172 3.26186 59.172 3.00749V2.00998C59.172 1.78055 59.0822 1.65587 58.8129 1.65587C58.5742 1.6646 58.3455 1.75431 58.1645 1.91023V3.30674ZM40.7879 9.74567H36.354V7.09728H48.2293V9.74567H43.7904V22.9776H40.7979L40.7879 9.74567Z" fill="#ADB5BD"></path> <path d="M50.9677 20.8329C52.172 20.8268 53.3688 20.642 54.5188 20.2843L54.9727 22.4788C53.6035 22.9721 52.1586 23.222 50.7033 23.217C47.0574 23.217 45.7906 21.5262 45.7906 18.7282V15.6608C45.7906 13.207 46.8879 11.1321 50.6086 11.1321C54.3293 11.1321 55.1622 13.3017 55.1622 15.8055V18.2993H48.6784V18.8978C48.7033 20.2843 49.2021 20.8329 50.9677 20.8329ZM48.7033 15.9601H52.3991V15.3716C52.3991 14.2743 52.0649 13.5112 50.6335 13.5112C49.2021 13.5112 48.7033 14.2743 48.7033 15.3716V15.9601ZM62.9378 13.8005C61.8666 14.2836 60.8344 14.8488 59.8505 15.4913V22.9726H56.9427V11.3666H59.3966L59.5861 12.6533C60.5322 12.0128 61.5585 11.4997 62.6385 11.1272L62.9378 13.8005ZM70.04 13.8005C68.9723 14.284 67.9435 14.8493 66.9627 15.4913V22.9726H64.055V11.3666H66.5089L66.6984 12.6533C67.6444 12.0128 68.6707 11.4997 69.7508 11.1272L70.04 13.8005ZM79.7708 22.9776H77.3867L77.1722 22.1895C76.1436 22.8589 74.9431 23.2157 73.7159 23.217C71.5962 23.217 70.6884 21.7606 70.6884 19.7606C70.6884 17.4015 71.7159 16.4938 74.075 16.4938H76.863V15.2768C76.863 13.99 76.5039 13.5361 74.6436 13.5361C73.5619 13.5483 72.4843 13.6686 71.4266 13.8952L71.0675 11.6758C72.3672 11.3162 73.709 11.1317 75.0575 11.1272C78.7034 11.1272 79.7807 12.4139 79.7807 15.3217L79.7708 22.9776ZM76.863 18.5885H74.7184C73.7657 18.5885 73.5014 18.8529 73.5014 19.7307C73.5014 20.6085 73.7658 20.8978 74.6685 20.8978C75.4387 20.886 76.1935 20.6802 76.863 20.2993V18.5885ZM88.7084 8.71817C88.1591 8.60014 87.5994 8.53666 87.0376 8.52865C85.8955 8.52865 85.7259 9.0274 85.7259 9.9102V11.3666H88.6835L88.5189 13.6808H85.7309V22.9776H82.8231V13.6808H80.9628V11.3666H82.8231V9.74561C82.8231 7.33662 83.9453 6.1446 86.5189 6.1446C87.3615 6.14141 88.2006 6.25384 89.0127 6.47876L88.7084 8.71817ZM94.3843 23.217C90.3942 23.217 89.3319 21.0225 89.3319 18.6384V15.7057C89.3319 13.3217 90.4042 11.1272 94.3843 11.1272C98.3643 11.1272 99.4367 13.3217 99.4367 15.7057V18.6384C99.4416 21.0225 98.3643 23.217 94.3843 23.217ZM94.3843 13.606C92.8331 13.606 92.2396 14.2992 92.2396 15.601V18.7232C92.2396 20.0349 92.8381 20.7182 94.3843 20.7182C95.9304 20.7182 96.5289 20.0249 96.5289 18.7232V15.611C96.5289 14.2992 95.9354 13.606 94.3843 13.606ZM106.923 13.8005C105.855 14.284 104.826 14.8493 103.846 15.4913V22.9726H100.938V11.3666H103.392L103.581 12.6533C104.527 12.0128 105.554 11.4996 106.634 11.1272L106.923 13.8005ZM114.913 22.9776V14.8728C114.913 14.2544 114.649 13.9451 113.985 13.9451C112.92 14.0717 111.89 14.4109 110.958 14.9426V22.9776H108.05V11.3666H110.27L110.554 12.3641C112.003 11.631 113.59 11.2097 115.212 11.1272C115.661 11.0849 116.112 11.1813 116.505 11.4034C116.897 11.6254 117.212 11.9625 117.407 12.3691C118.858 11.6253 120.451 11.2018 122.08 11.1272C124.01 11.1272 124.704 12.4838 124.704 14.5586V22.9776H121.796V14.8728C121.796 14.2544 121.532 13.9451 120.868 13.9451C119.8 14.0627 118.769 14.4025 117.841 14.9426V22.9776H114.913Z" fill="#ADB5BD"></path> <path d="M18.1546 10.0749V19.5163L26.3342 14.7981V5.34668L18.1546 10.0749Z" fill="#9BA4AD"></path> <path d="M9.07751 5.34668L17.2571 10.0749V19.5163L9.07751 14.7931V5.34668Z" fill="#ADB5BD"></path> <path d="M0 0.074707V9.52112L8.17958 14.2443V4.79792L0 0.074707ZM9.07734 25.2768L17.2569 30V20.5536L9.07734 15.8304V25.2768Z" fill="#ADB5BD"></path> </svg> 