<?xml version="1.0" encoding="UTF-8"?> <svg xmlns="http://www.w3.org/2000/svg" width="178" height="30" viewBox="0 0 178 30" fill="none"> <path d="M28.3203 6.67216C28.1428 6.10432 27.717 5.64295 27.1846 5.35903L16.3601 0.177451C16.0762 0.0354902 15.7568 0 15.4728 0C15.1889 0 14.8695 0 14.5856 0.0709805L3.76105 5.28804C3.2287 5.53648 2.83831 5.99785 2.69635 6.60118L0.0345802 18.2775C-0.0718905 18.8808 0.0700705 19.4841 0.424973 19.981L7.91341 29.2439C8.33929 29.6698 8.94263 29.9538 9.54596 29.9892H21.4707C22.1095 30.0602 22.7128 29.7763 23.1032 29.2439L30.5917 19.981C30.9466 19.4841 31.0885 18.8808 31.0176 18.2775L28.3203 6.67216Z" fill="#ADB5BD"></path> <path d="M26.6524 17.816C26.6169 17.816 26.5814 17.816 26.5814 17.7805C26.5814 17.745 26.5104 17.745 26.4395 17.745C26.2975 17.7095 26.1555 17.7095 26.0136 17.7095C25.9426 17.7095 25.8716 17.7095 25.8006 17.674H25.7651C25.3748 17.6385 24.9489 17.5675 24.5585 17.4611C24.452 17.4256 24.3455 17.3191 24.31 17.2126C24.3455 17.2126 24.31 17.2126 24.31 17.2126L24.0261 17.1417C24.1681 16.1124 24.0971 15.0477 23.8842 14.0185C23.6357 12.9893 23.2098 11.9956 22.642 11.1083L22.8549 10.8954V10.8599C22.8549 10.7534 22.8904 10.6115 22.9614 10.5405C23.2808 10.2566 23.6002 10.0436 23.9551 9.83067C24.0261 9.79518 24.0971 9.75969 24.1681 9.7242C24.31 9.65322 24.4165 9.58224 24.5585 9.51126C24.594 9.47577 24.6295 9.47577 24.6649 9.44028C24.7004 9.40479 24.6649 9.40479 24.6649 9.36929C24.9844 9.12086 25.0553 8.69498 24.8069 8.37557C24.7004 8.23361 24.4875 8.12714 24.31 8.12714C24.1326 8.12714 23.9551 8.19812 23.8132 8.30459L23.7777 8.34008C23.7422 8.37557 23.7067 8.41106 23.6712 8.41106C23.5647 8.51753 23.4583 8.624 23.3873 8.73047C23.3518 8.80145 23.2808 8.83694 23.2453 8.87243C22.9969 9.15635 22.6775 9.44028 22.3581 9.65322C22.2871 9.68871 22.2161 9.7242 22.1451 9.7242C22.1096 9.7242 22.0387 9.7242 22.0032 9.68871H21.9677L21.6838 9.86616C21.3998 9.58224 21.0804 9.29831 20.7965 9.01439C19.4834 7.98518 17.8508 7.34635 16.1828 7.1689L16.1473 6.88498V6.92047C16.0408 6.84949 16.0053 6.74302 15.9698 6.63655C15.9698 6.24615 15.9698 5.85576 16.0408 5.42988V5.39439C16.0408 5.32341 16.0763 5.25243 16.0763 5.18145C16.1118 5.03949 16.1118 4.89752 16.1473 4.75556V4.54262C16.1828 4.18772 15.8989 3.83282 15.544 3.79733C15.331 3.76184 15.1181 3.86831 14.9406 4.04576C14.7987 4.18772 14.7277 4.36517 14.7277 4.54262V4.72007C14.7277 4.86203 14.7632 5.004 14.7987 5.14596C14.8342 5.21694 14.8342 5.28792 14.8342 5.3589V5.39439C14.9051 5.78478 14.9051 6.17517 14.9051 6.60106C14.8696 6.70753 14.8342 6.814 14.7277 6.88498V6.95596L14.6922 7.23988C14.3018 7.27537 13.9114 7.34635 13.4855 7.41733C11.8175 7.77223 10.2914 8.65949 9.12022 9.90165L8.90728 9.75969H8.87179C8.8363 9.75969 8.80081 9.79518 8.72983 9.79518C8.65885 9.79518 8.58787 9.75969 8.51689 9.7242C8.19748 9.47577 7.87807 9.19184 7.62963 8.90792C7.59414 8.83694 7.52316 8.80145 7.48767 8.76596C7.3812 8.65949 7.31022 8.55302 7.20375 8.44655C7.16826 8.41106 7.13277 8.41106 7.09728 8.37557C7.06179 8.34008 7.06179 8.34008 7.06179 8.34008C6.91983 8.23361 6.74238 8.16263 6.56493 8.16263C6.35199 8.16263 6.17454 8.23361 6.06806 8.41106C5.85512 8.73047 5.9261 9.15635 6.21003 9.40479C6.24552 9.40479 6.24552 9.44028 6.24552 9.44028C6.24552 9.44028 6.3165 9.51126 6.35199 9.51126C6.45846 9.58224 6.60042 9.65322 6.74238 9.7242C6.81336 9.75969 6.88434 9.79518 6.95532 9.83067C7.31022 10.0436 7.66512 10.2566 7.94905 10.5405C8.02003 10.6115 8.09101 10.7534 8.05552 10.8599V10.8244L8.26846 11.0373C8.23297 11.1083 8.19748 11.1438 8.16199 11.2148C7.06179 12.9538 6.60042 15.0122 6.91983 17.0352L6.63591 17.1062C6.63591 17.1417 6.60042 17.1417 6.60042 17.1417C6.56493 17.2481 6.45846 17.3191 6.35199 17.3901C5.96159 17.4966 5.5712 17.5675 5.14532 17.603C5.07434 17.603 5.00336 17.603 4.93238 17.6385C4.79042 17.6385 4.64845 17.674 4.50649 17.674C4.471 17.674 4.43551 17.7095 4.36453 17.7095C4.32904 17.7095 4.32904 17.7095 4.29355 17.745C3.90316 17.816 3.65473 18.1709 3.72571 18.5613C3.79669 18.8807 4.1161 19.0936 4.43551 19.0581C4.50649 19.0581 4.54198 19.0581 4.61296 19.0226C4.64845 19.0226 4.64845 19.0226 4.64845 18.9871C4.64845 18.9517 4.75493 18.9871 4.79042 18.9871C4.93238 18.9517 5.07434 18.8807 5.18081 18.8452C5.25179 18.8097 5.32277 18.7742 5.39375 18.7742H5.42924C5.81963 18.6322 6.17454 18.5258 6.60042 18.4548H6.63591C6.74238 18.4548 6.84885 18.4903 6.91983 18.5613C6.95532 18.5613 6.95532 18.5968 6.95532 18.5968L7.27473 18.5613C7.80709 20.1938 8.80081 21.6489 10.1849 22.7136C10.5043 22.9621 10.7883 23.175 11.1432 23.3524L10.9657 23.6009C10.9657 23.6364 11.0012 23.6364 11.0012 23.6364C11.0722 23.7428 11.0722 23.8848 11.0367 23.9913C10.8947 24.3462 10.6818 24.7011 10.4689 25.0205V25.056C10.4334 25.127 10.3979 25.1625 10.3269 25.2334C10.2559 25.3044 10.1849 25.4464 10.0785 25.5883C10.043 25.6238 10.043 25.6593 10.0075 25.6948C10.0075 25.6948 10.0075 25.7303 9.97199 25.7303C9.79454 26.0852 9.9365 26.5111 10.2559 26.6885C10.3269 26.724 10.4334 26.7595 10.5043 26.7595C10.7883 26.7595 11.0367 26.5821 11.1787 26.3336C11.1787 26.3336 11.1787 26.2981 11.2141 26.2981C11.2141 26.2626 11.2496 26.2272 11.2851 26.1917C11.3206 26.0497 11.3916 25.9432 11.4271 25.8013L11.4981 25.5883C11.6045 25.1979 11.782 24.843 11.9594 24.4881C12.0304 24.3817 12.1369 24.3107 12.2434 24.2752C12.2789 24.2752 12.2789 24.2752 12.2789 24.2397L12.4208 23.9558C13.4145 24.3462 14.4438 24.5236 15.5085 24.5236C16.1473 24.5236 16.7861 24.4526 17.4249 24.2752C17.8153 24.2042 18.2057 24.0623 18.5606 23.9558L18.7026 24.2042C18.7381 24.2042 18.7381 24.2042 18.7381 24.2397C18.8445 24.2752 18.951 24.3462 19.022 24.4526C19.1995 24.8075 19.3769 25.1625 19.4834 25.5528V25.5883L19.5544 25.8013C19.5898 25.9432 19.6253 26.0852 19.6963 26.1917C19.7318 26.2272 19.7318 26.2626 19.7673 26.2981C19.7673 26.2981 19.7673 26.3336 19.8028 26.3336C19.9447 26.5821 20.1932 26.7595 20.4771 26.7595C20.5836 26.7595 20.6546 26.724 20.761 26.6885C20.903 26.6175 21.0449 26.4756 21.0804 26.2981C21.1159 26.1207 21.1159 25.9432 21.0449 25.7658C21.0449 25.7303 21.0095 25.7303 21.0095 25.7303C21.0095 25.6948 20.974 25.6593 20.9385 25.6238C20.8675 25.4819 20.7965 25.3754 20.69 25.2689C20.6546 25.1979 20.6191 25.1625 20.5481 25.0915V25.0205C20.2996 24.7011 20.1222 24.3462 19.9802 23.9913C19.9447 23.8848 19.9447 23.7428 20.0157 23.6364C20.0157 23.6009 20.0512 23.6009 20.0512 23.6009L19.9447 23.317C21.7547 22.2168 23.1389 20.5132 23.7777 18.4903L24.0616 18.5258C24.0971 18.5258 24.0971 18.4903 24.0971 18.4903C24.1681 18.4193 24.2746 18.3838 24.381 18.3838H24.4165C24.8069 18.4548 25.1973 18.5613 25.5522 18.7032H25.5877C25.6587 18.7387 25.7297 18.7742 25.8006 18.7742C25.9426 18.8452 26.0491 18.9162 26.191 18.9517C26.2265 18.9517 26.262 18.9871 26.333 18.9871C26.3685 18.9871 26.3685 18.9871 26.404 19.0226C26.475 19.0581 26.5104 19.0581 26.5814 19.0581C26.9008 19.0581 27.1848 18.8452 27.2912 18.5613C27.2557 18.1709 26.9718 17.887 26.6524 17.816ZM16.3957 16.7158L15.4375 17.1771L14.4792 16.7158L14.2308 15.6866L14.9051 14.8348H15.9698L16.6442 15.6866L16.3957 16.7158ZM22.1806 14.4089C22.3581 15.1542 22.3936 15.8995 22.3226 16.6448L18.951 15.6866C18.6316 15.6156 18.4542 15.2962 18.5251 14.9768C18.5606 14.8703 18.5961 14.7993 18.6671 14.7283L21.3289 12.315C21.7193 12.9538 22.0032 13.6636 22.1806 14.4089ZM20.2642 11.0018L17.354 13.0603C17.1055 13.2022 16.7506 13.1668 16.5732 12.9183C16.5022 12.8473 16.4667 12.7764 16.4667 12.6699L16.2538 9.08537C17.8153 9.26282 19.1995 9.93714 20.2642 11.0018ZM13.8404 9.19184L14.5502 9.04988L14.3728 12.5989C14.3728 12.9183 14.0889 13.1667 13.7694 13.1667C13.663 13.1667 13.592 13.1313 13.4855 13.0958L10.5398 11.0018C11.4626 10.1146 12.5983 9.47577 13.8404 9.19184ZM9.51062 12.315L12.1369 14.6573C12.3853 14.8703 12.4208 15.2252 12.2079 15.4736C12.1369 15.5801 12.0659 15.6156 11.924 15.6511L8.4814 16.6448C8.37493 15.1542 8.72983 13.6281 9.51062 12.315ZM8.90728 18.3128L12.4208 17.7095C12.7047 17.7095 12.9887 17.887 13.0242 18.1709C13.0596 18.2773 13.0596 18.4193 12.9887 18.5258L11.64 21.7909C10.3979 20.9746 9.40415 19.7324 8.90728 18.3128ZM16.9636 22.7136C16.4667 22.8201 15.9698 22.8911 15.4375 22.8911C14.6922 22.8911 13.9114 22.7491 13.2016 22.5362L14.9406 19.3775C15.1181 19.1646 15.402 19.0936 15.6504 19.2356C15.7569 19.3066 15.8279 19.3775 15.9343 19.484L17.6379 22.5717C17.4249 22.6072 17.212 22.6426 16.9636 22.7136ZM21.2934 19.626C20.761 20.4777 20.0157 21.223 19.164 21.7554L17.7798 18.4193C17.7089 18.1354 17.8508 17.8515 18.0993 17.745C18.2057 17.7095 18.3122 17.674 18.4187 17.674L21.9677 18.2773C21.7902 18.7742 21.5773 19.2356 21.2934 19.626Z" fill="white"></path> <path d="M171.949 22.1815C172.446 22.217 172.978 22.146 173.44 21.9686C173.724 21.8266 173.901 21.5072 173.866 21.1878C173.83 20.8329 173.617 20.5135 173.298 20.407C172.766 20.0876 172.162 19.8037 171.559 19.6262C170.955 19.4133 170.423 19.1648 169.926 18.9164C169.465 18.7035 169.075 18.4195 168.684 18.0646C168.329 17.7097 168.081 17.3194 167.903 16.858C167.69 16.3256 167.619 15.7578 167.619 15.1899C167.584 14.0188 168.116 12.8831 169.039 12.1733C169.997 11.428 171.275 11.0731 172.907 11.0731C173.688 11.0731 174.505 11.144 175.285 11.3215C175.889 11.428 176.492 11.5699 177.095 11.7829L176.421 14.7995C175.924 14.6221 175.463 14.5156 174.966 14.3737C174.398 14.2317 173.795 14.1962 173.227 14.1962C172.02 14.1962 171.417 14.5156 171.417 15.1899C171.417 15.3319 171.452 15.4739 171.488 15.6158C171.559 15.7578 171.665 15.8643 171.807 15.9707C171.949 16.0772 172.162 16.1837 172.411 16.3256C172.659 16.4676 173.014 16.6095 173.44 16.7515C174.15 16.9999 174.859 17.3193 175.498 17.6743C175.995 17.9227 176.421 18.2421 176.776 18.668C177.095 18.9874 177.308 19.3778 177.45 19.8392C177.592 20.336 177.663 20.8329 177.663 21.3297C177.734 22.5364 177.166 23.7076 176.137 24.3819C175.143 25.0562 173.724 25.4111 171.878 25.4111C170.849 25.4466 169.855 25.3401 168.862 25.0917C168.294 24.9497 167.761 24.7723 167.229 24.5948L167.868 21.4717C168.507 21.7201 169.181 21.9331 169.855 22.075C170.565 22.1105 171.239 22.1815 171.949 22.1815ZM152.394 18.2776C152.359 17.2129 152.572 16.1482 152.926 15.1544C153.246 14.3027 153.743 13.5574 154.382 12.8831C154.985 12.2797 155.659 11.8184 156.44 11.5344C157.221 11.215 158.037 11.0731 158.853 11.0731C160.77 11.0731 162.296 11.6764 163.396 12.8476C164.496 14.0188 165.064 15.7578 165.064 18.0292C165.064 18.2421 165.064 18.4905 165.029 18.7745C165.029 19.0584 164.993 19.2713 164.993 19.4843H156.334C156.405 20.2295 156.795 20.9394 157.434 21.3652C158.215 21.8621 159.137 22.1105 160.06 22.075C160.734 22.075 161.444 22.0041 162.118 21.8976C162.686 21.7911 163.254 21.6137 163.786 21.3652L164.319 24.4884C164.07 24.6303 163.786 24.7013 163.503 24.8078C163.112 24.9143 162.722 25.0207 162.331 25.0562C161.905 25.1272 161.48 25.1982 160.983 25.2692C160.521 25.3047 160.025 25.3401 159.528 25.3401C158.427 25.3756 157.363 25.1982 156.334 24.8078C155.482 24.4884 154.736 23.9915 154.098 23.3527C153.494 22.7139 153.068 21.9331 152.785 21.1168C152.536 20.1586 152.394 19.2003 152.394 18.2776ZM161.373 16.8225C161.373 16.5031 161.302 16.1837 161.196 15.8643C161.125 15.5448 160.947 15.2964 160.77 15.048C160.557 14.7995 160.308 14.5866 160.024 14.4446C159.67 14.2672 159.315 14.1962 158.924 14.1962C158.534 14.1962 158.179 14.2672 157.824 14.4446C157.54 14.5866 157.256 14.7641 157.043 15.0125C156.83 15.2609 156.653 15.5448 156.546 15.8643C156.44 16.1837 156.369 16.5031 156.334 16.8225H161.373ZM141.995 8.02091L145.828 7.41758V11.3925H150.442V14.5866H145.828V19.3423C145.793 20.0166 145.935 20.6909 146.254 21.2588C146.538 21.7201 147.106 21.9686 147.993 21.9686C148.419 21.9686 148.845 21.9331 149.235 21.8621C149.661 21.7911 150.052 21.6846 150.442 21.5427L150.974 24.5239C150.478 24.7368 149.945 24.8788 149.413 25.0207C148.739 25.1627 148.029 25.2337 147.319 25.2337C146.432 25.2692 145.544 25.1272 144.728 24.8078C144.089 24.5594 143.522 24.1335 143.096 23.6366C142.67 23.1043 142.386 22.4654 142.208 21.7911C142.031 21.0103 141.96 20.1941 141.995 19.4133V8.02091ZM126.486 18.2776C126.451 17.2129 126.664 16.1482 127.019 15.1544C127.338 14.3027 127.835 13.5574 128.474 12.8831C129.077 12.2797 129.751 11.8184 130.532 11.5344C131.313 11.215 132.129 11.0731 132.945 11.0731C134.862 11.0731 136.388 11.6764 137.488 12.8476C138.588 14.0188 139.156 15.7578 139.156 18.0292C139.156 18.2421 139.156 18.4905 139.121 18.7745C139.085 19.0584 139.085 19.2713 139.085 19.4843H130.39C130.461 20.2295 130.852 20.9394 131.49 21.3652C132.271 21.8621 133.194 22.1105 134.117 22.075C134.791 22.075 135.501 22.0041 136.175 21.8976C136.743 21.7911 137.311 21.6137 137.879 21.3652L138.411 24.4884C138.163 24.6303 137.879 24.7013 137.595 24.8078C137.204 24.9143 136.814 25.0207 136.423 25.0562C135.998 25.1272 135.572 25.1982 135.075 25.2692C134.613 25.3047 134.117 25.3401 133.62 25.3401C132.52 25.3756 131.455 25.1982 130.426 24.8078C129.574 24.4884 128.829 23.9915 128.19 23.3527C127.586 22.7139 127.161 21.9331 126.877 21.1168C126.593 20.1586 126.451 19.2003 126.486 18.2776ZM135.465 16.8225C135.465 16.5031 135.394 16.1837 135.288 15.8643C135.217 15.5448 135.039 15.2964 134.862 15.048C134.649 14.7995 134.401 14.5866 134.117 14.4446C133.762 14.2672 133.407 14.1962 133.016 14.1962C132.626 14.1962 132.271 14.2672 131.916 14.4446C131.632 14.5866 131.384 14.7641 131.171 15.0125C130.958 15.2609 130.781 15.5448 130.674 15.8643C130.568 16.1837 130.497 16.5031 130.461 16.8225H135.465ZM111.935 11.8539C112.752 11.6409 113.603 11.4635 114.455 11.3215C115.52 11.144 116.62 11.0731 117.685 11.0731C118.643 11.0376 119.601 11.215 120.524 11.5344C121.234 11.7829 121.873 12.2088 122.334 12.7766C122.795 13.3444 123.115 14.0188 123.292 14.7286C123.505 15.5448 123.576 16.3966 123.576 17.2484V24.8788H119.779V17.7452C119.779 16.5031 119.601 15.6513 119.282 15.119C118.962 14.6221 118.359 14.3382 117.472 14.3382C117.188 14.3382 116.904 14.3382 116.584 14.3737C116.265 14.3737 116.017 14.4092 115.768 14.4446V24.8788H111.935V11.8539ZM109.238 14.7995C108.883 14.7286 108.493 14.6221 108.031 14.5511C107.534 14.4446 107.038 14.4092 106.541 14.4092C106.257 14.4092 105.973 14.4446 105.653 14.4801C105.405 14.5156 105.157 14.5511 104.908 14.6221V24.9498H101.075V12.1023C101.856 11.8184 102.672 11.6054 103.489 11.428C104.518 11.1795 105.582 11.0731 106.612 11.1086C106.86 11.1086 107.109 11.144 107.357 11.144C107.641 11.144 107.925 11.1795 108.244 11.2505C108.528 11.286 108.812 11.3215 109.132 11.3925C109.38 11.428 109.628 11.499 109.877 11.6054L109.238 14.7995ZM85.424 18.2776C85.3885 17.2129 85.6015 16.1482 85.9564 15.1544C86.2758 14.3027 86.7727 13.5574 87.4115 12.8831C88.0148 12.2797 88.6891 11.8184 89.4699 11.5344C90.2507 11.215 91.067 11.0731 91.8832 11.0731C93.7997 11.0731 95.3258 11.6764 96.426 12.8476C97.5262 14.0188 98.094 15.7578 98.094 17.9937C98.094 18.2066 98.094 18.455 98.0586 18.739C98.0231 19.0229 98.0231 19.2358 98.0231 19.4488H89.328C89.3989 20.1941 89.7893 20.9039 90.4282 21.3297C91.2089 21.8266 92.1317 22.075 93.0544 22.0396C93.7287 22.0396 94.4385 21.9686 95.1129 21.8621C95.6807 21.7556 96.2486 21.5782 96.7809 21.3652L97.3133 24.4884C97.0648 24.6303 96.7809 24.7013 96.497 24.8078C96.1066 24.9143 95.7162 25.0207 95.3258 25.0562C94.8999 25.1272 94.474 25.1982 93.9772 25.2692C93.5158 25.3047 93.0189 25.3401 92.5221 25.3401C91.4219 25.3756 90.3572 25.1982 89.328 24.8078C88.4762 24.4884 87.7309 23.9915 87.0921 23.3527C86.4887 22.7139 86.0629 21.9331 85.7789 21.1168C85.566 20.1586 85.424 19.2358 85.424 18.2776ZM94.4385 16.8225C94.4385 16.5031 94.3676 16.1837 94.2611 15.8643C94.1901 15.5448 94.0127 15.2964 93.8352 15.048C93.6223 14.7995 93.3738 14.5866 93.0899 14.4446C92.735 14.2672 92.3801 14.1962 91.9897 14.1962C91.5993 14.1962 91.2444 14.2672 90.8895 14.4446C90.6056 14.5866 90.3217 14.7641 90.1087 15.0125C89.8958 15.2609 89.7183 15.5448 89.6119 15.8643C89.5054 16.1837 89.4344 16.5031 89.3989 16.8225H94.4385ZM79.2132 18.0646C79.2132 15.5803 78.2905 14.3737 76.4805 14.3737C76.0901 14.3737 75.6997 14.4092 75.3093 14.5156C74.9899 14.5866 74.6705 14.7286 74.3866 14.906V21.8621C74.564 21.8976 74.8125 21.9331 75.0964 21.9686C75.3803 22.0041 75.6997 22.0041 76.0546 22.0041C76.9774 22.075 77.8646 21.6846 78.4324 20.9394C78.9648 20.0876 79.2487 19.0939 79.2132 18.0646ZM83.1172 18.2066C83.1172 19.2003 82.9752 20.1941 82.6203 21.1523C82.3364 22.0041 81.875 22.7494 81.2717 23.3882C80.6328 24.027 79.8876 24.5239 79.0713 24.8433C78.113 25.1982 77.1193 25.3401 76.0901 25.3401C75.6287 25.3401 75.1319 25.3047 74.635 25.2692C74.1381 25.2337 73.6413 25.1627 73.1444 25.1272C72.683 25.0562 72.2217 24.9852 71.7603 24.8788C71.2989 24.8078 70.9085 24.7013 70.5891 24.5594V5.57208L74.4221 4.96875V11.7119C74.8479 11.5344 75.3093 11.3925 75.7707 11.286C76.2675 11.1795 76.7644 11.144 77.2613 11.144C78.1485 11.144 79.0003 11.286 79.8166 11.6764C80.5264 11.9958 81.1652 12.4927 81.6621 13.096C82.1944 13.7703 82.5848 14.5156 82.7978 15.3319C83.0107 16.2192 83.1172 17.2129 83.1172 18.2066ZM66.9336 24.4529C66.1173 24.6658 65.2656 24.8433 64.4138 24.9498C63.3491 25.1272 62.2489 25.1982 61.1842 25.1982C60.1905 25.2337 59.2322 25.0562 58.3095 24.7368C57.5997 24.4529 56.9963 24.027 56.4995 23.4592C56.0381 22.8558 55.7187 22.1815 55.5412 21.4362C55.3283 20.6199 55.2573 19.7327 55.2573 18.8809V11.3925H59.0903V18.455C59.0903 19.6972 59.2677 20.5845 59.5871 21.1168C59.9066 21.6492 60.5099 21.9331 61.3971 21.9331C61.6811 21.9331 61.965 21.9331 62.2844 21.8976C62.6038 21.8621 62.8522 21.8621 63.1007 21.7911V11.3925H66.9336V24.4529ZM44.5748 16.2901C44.9652 15.8643 45.3201 15.4384 45.7459 15.0125C46.1363 14.5511 46.5267 14.1252 46.9171 13.6993C47.3075 13.238 47.6624 12.8476 47.9818 12.4572C48.3012 12.0668 48.6207 11.7119 48.8691 11.428H53.4118C52.4891 12.4572 51.6018 13.4864 50.7501 14.4446C49.8628 15.4029 48.9401 16.3966 47.9108 17.3903C48.4787 17.9227 49.011 18.455 49.5079 19.0584C50.0403 19.6972 50.5726 20.336 51.105 21.0458C51.6018 21.7201 52.0987 22.4299 52.5246 23.1043C52.9505 23.7786 53.3054 24.4174 53.5893 24.9852H49.1885C48.9046 24.5239 48.5852 24.0625 48.2303 23.5301C47.8754 22.9978 47.485 22.4654 47.1301 21.8976C46.7397 21.3652 46.3138 20.8329 45.8524 20.336C45.462 19.8746 45.0361 19.4488 44.5748 19.0939V25.0207H40.7418V5.57208L44.5748 4.96875V16.2901Z" fill="#ADB5BD"></path> </svg> 