<?xml version="1.0" encoding="UTF-8"?> <svg xmlns="http://www.w3.org/2000/svg" width="158" height="35" viewBox="0 0 158 35" fill="none"> <path d="M43.2011 22.4673C41.5561 22.4673 40.3008 21.9478 39.3485 20.9522C38.4394 19.9133 37.9633 18.5281 37.9633 16.7533C37.9633 14.9352 38.3961 13.4635 39.2619 12.4246C40.1276 11.3857 41.2964 10.8662 42.7682 10.8662C44.1534 10.8662 45.2356 11.2991 46.058 12.2081C46.8805 13.1172 47.2701 14.3292 47.2701 15.9309V17.2295H40.2575C40.3008 18.3117 40.5605 19.1342 41.08 19.7402C41.5994 20.3462 42.3353 20.6059 43.2876 20.6059C43.8937 20.6059 44.4997 20.5626 45.0191 20.4328C45.5386 20.3029 46.1446 20.0865 46.7506 19.8268V21.7747C46.1879 22.0344 45.6685 22.2509 45.1057 22.3807C44.543 22.424 43.937 22.4673 43.2011 22.4673ZM42.8115 12.6843C42.1189 12.6843 41.5128 12.944 41.1233 13.4202C40.6904 13.8963 40.4307 14.5889 40.3441 15.5413H45.1057C45.1057 14.6322 44.8893 13.8963 44.4997 13.4202C44.0668 12.9007 43.5041 12.6843 42.8115 12.6843Z" fill="#ADB5BD"></path> <path d="M52.0751 6.49268H49.8242V22.2927H52.0751V6.49268Z" fill="#ADB5BD"></path> <path d="M61.815 22.293L61.3821 20.7347H61.2956C60.7761 21.4273 60.2999 21.9034 59.7805 22.1199C59.261 22.3796 58.6117 22.5095 57.7893 22.5095C56.7503 22.5095 55.9712 22.2064 55.3651 21.6004C54.8024 20.9944 54.4994 20.1719 54.4994 19.0897C54.4994 17.921 54.889 17.0552 55.7114 16.4925C56.5339 15.8865 57.746 15.5834 59.3909 15.5401L61.209 15.4969V14.8908C61.209 14.1549 61.0358 13.6355 60.7328 13.2892C60.4298 12.9429 59.9536 12.7697 59.261 12.7697C58.7416 12.7697 58.2221 12.8563 57.7027 13.0295C57.2265 13.2026 56.7503 13.4191 56.2742 13.6355L55.5383 11.9473C56.101 11.6443 56.7504 11.3845 57.3997 11.2114C58.0923 11.0382 58.6983 10.9517 59.3043 10.9517C60.6462 10.9517 61.6419 11.2547 62.3345 11.904C63.0271 12.51 63.3734 13.5056 63.3734 14.8475V22.4229H61.815V22.293ZM58.5251 20.6481C59.3476 20.6481 59.9969 20.3884 60.4731 19.9122C60.9492 19.436 61.209 18.7434 61.209 17.8777V16.8821L59.8671 16.9254C58.8282 16.9686 58.049 17.1418 57.5728 17.4881C57.0967 17.8344 56.8369 18.3538 56.8369 19.0464C56.8369 19.5659 56.9668 19.9555 57.2698 20.2152C57.5295 20.5182 57.9624 20.6481 58.5251 20.6481Z" fill="#ADB5BD"></path> <path d="M73.5889 19.0891C73.5889 20.1713 73.1993 21.037 72.4634 21.5997C71.7276 22.2058 70.6454 22.4655 69.2602 22.4655C67.875 22.4655 66.7495 22.2491 65.8837 21.7729V19.6951C67.1391 20.3011 68.2645 20.6041 69.3467 20.6041C70.7319 20.6041 71.4245 20.1713 71.4245 19.2622C71.4245 18.9592 71.338 18.7428 71.2081 18.5696C71.035 18.3965 70.8185 18.18 70.4722 17.9636C70.1259 17.7471 69.6498 17.5307 69.0004 17.271C67.7884 16.7515 66.9659 16.2754 66.533 15.7559C66.1002 15.2365 65.8837 14.5871 65.8837 13.808C65.8837 12.8556 66.23 12.1198 66.9659 11.557C67.7018 11.0376 68.6974 10.7778 69.9095 10.7778C71.1648 10.7778 72.3336 11.0376 73.4158 11.6003L72.6799 13.3751C71.5544 12.8556 70.6021 12.6392 69.8229 12.6392C68.6541 12.6392 68.0481 12.9855 68.0481 13.7214C68.0481 14.0677 68.2213 14.3707 68.5243 14.6304C68.8273 14.8902 69.5199 15.1932 70.5155 15.6261C71.3813 15.9724 72.0306 16.3187 72.4202 16.6217C72.8098 16.9247 73.1128 17.271 73.2859 17.6606C73.5024 18.0934 73.5889 18.5263 73.5889 19.0891Z" fill="#ADB5BD"></path> <path d="M79.9521 20.562C80.5148 20.562 81.0343 20.4754 81.597 20.3022V22.077C81.3373 22.2069 81.0343 22.2935 80.6447 22.3801C80.2551 22.4666 79.8655 22.5099 79.4326 22.5099C77.3115 22.5099 76.2726 21.2979 76.2726 18.917V12.8568H74.8441V11.8179L76.4025 10.9521L77.1817 8.57129H78.5669V11.082H81.5537V12.9001H78.5669V18.917C78.5669 19.4798 78.6967 19.9127 78.9564 20.1724C79.1296 20.4321 79.5192 20.562 79.9521 20.562Z" fill="#ADB5BD"></path> <path d="M83.5452 8.09533C83.5452 7.66245 83.6751 7.35944 83.8915 7.09971C84.108 6.88328 84.411 6.75342 84.8439 6.75342C85.2334 6.75342 85.5365 6.88328 85.7529 7.09971C85.9693 7.31615 86.0992 7.66245 86.0992 8.09533C86.0992 8.48492 85.9693 8.83122 85.7529 9.04766C85.5365 9.2641 85.2334 9.39396 84.8439 9.39396C84.4543 9.39396 84.108 9.2641 83.8915 9.04766C83.6318 8.83122 83.5452 8.48492 83.5452 8.09533ZM85.926 22.2937H83.6751V11.0822H85.926V22.2937Z" fill="#ADB5BD"></path> <path d="M93.3282 22.4662C91.7266 22.4662 90.5145 21.99 89.6921 20.9944C88.8696 19.9988 88.4367 18.5703 88.4367 16.7089C88.4367 14.8042 88.8696 13.3757 89.7353 12.3368C90.6011 11.3412 91.8564 10.8218 93.5014 10.8218C94.6268 10.8218 95.6225 11.0382 96.4882 11.4711L95.7956 13.3757C94.8433 12.9862 94.0641 12.7697 93.4581 12.7697C91.64 12.7697 90.731 14.0683 90.731 16.6223C90.731 17.8777 90.9474 18.83 91.4236 19.4793C91.8564 20.1286 92.549 20.4316 93.4148 20.4316C94.4104 20.4316 95.3627 20.1719 96.2285 19.6525V21.7303C95.8389 21.99 95.406 22.1631 94.9299 22.2497C94.4537 22.3363 93.9775 22.4662 93.3282 22.4662Z" fill="#ADB5BD"></path> <path d="M105.795 19.0891C105.795 20.1713 105.405 21.037 104.669 21.5997C103.934 22.1625 102.851 22.4655 101.466 22.4655C100.081 22.4655 98.9555 22.2491 98.0897 21.7729V19.6951C99.3451 20.3011 100.471 20.6041 101.553 20.6041C102.938 20.6041 103.631 20.1713 103.631 19.2622C103.631 18.9592 103.544 18.7428 103.414 18.5696C103.241 18.3965 103.025 18.18 102.678 17.9636C102.332 17.7471 101.856 17.5307 101.206 17.271C99.9944 16.7515 99.1719 16.2754 98.739 15.7559C98.3062 15.2365 98.0897 14.5871 98.0897 13.808C98.0897 12.8556 98.436 12.1198 99.1719 11.557C99.9078 11.0376 100.903 10.7778 102.115 10.7778C103.371 10.7778 104.54 11.0376 105.622 11.6003L104.886 13.3751C103.76 12.8556 102.808 12.6392 102.029 12.6392C100.86 12.6392 100.254 12.9855 100.254 13.7214C100.254 14.0677 100.427 14.3707 100.73 14.6304C101.033 14.8902 101.726 15.1932 102.721 15.6261C103.587 15.9724 104.237 16.3187 104.626 16.6217C105.016 16.9247 105.319 17.271 105.492 17.6606C105.708 18.0934 105.795 18.5263 105.795 19.0891Z" fill="#ADB5BD"></path> <path d="M112.808 22.4673C111.163 22.4673 109.907 21.9478 108.955 20.9522C108.046 19.9133 107.57 18.5281 107.57 16.7533C107.57 14.9352 108.003 13.4635 108.868 12.4246C109.734 11.3857 110.903 10.8662 112.375 10.8662C113.76 10.8662 114.842 11.2991 115.665 12.2081C116.487 13.1172 116.877 14.3292 116.877 15.9309V17.2295H109.864C109.907 18.3117 110.167 19.1342 110.686 19.7402C111.206 20.3462 111.942 20.6059 112.894 20.6059C113.5 20.6059 114.106 20.5626 114.626 20.4328C115.145 20.3029 115.751 20.0865 116.357 19.8268V21.7747C115.794 22.0344 115.275 22.2509 114.712 22.3807C114.149 22.424 113.5 22.4673 112.808 22.4673ZM112.418 12.6843C111.725 12.6843 111.119 12.944 110.73 13.4202C110.297 13.8963 110.037 14.5889 109.951 15.5413H114.712C114.712 14.6322 114.496 13.8963 114.106 13.4202C113.673 12.9007 113.111 12.6843 112.418 12.6843Z" fill="#ADB5BD"></path> <path d="M126.01 22.293L125.577 20.7347H125.491C124.971 21.4273 124.495 21.9034 123.976 22.1199C123.456 22.3796 122.807 22.5095 121.984 22.5095C120.945 22.5095 120.166 22.2064 119.56 21.6004C118.954 20.9944 118.695 20.1719 118.695 19.0897C118.695 17.921 119.084 17.0552 119.907 16.4925C120.729 15.8865 121.941 15.5834 123.586 15.5401L125.404 15.4969V14.8908C125.404 14.1549 125.231 13.6355 124.928 13.2892C124.625 12.9429 124.149 12.7697 123.456 12.7697C122.937 12.7697 122.417 12.8563 121.898 13.0295C121.422 13.2026 120.945 13.4191 120.469 13.6355L119.733 11.9473C120.296 11.6443 120.945 11.3845 121.595 11.2114C122.287 11.0382 122.893 10.9517 123.499 10.9517C124.841 10.9517 125.837 11.2547 126.53 11.904C127.222 12.51 127.568 13.5056 127.568 14.8475V22.4229H126.01V22.293ZM122.677 20.6481C123.499 20.6481 124.149 20.3884 124.625 19.9122C125.101 19.436 125.361 18.7434 125.361 17.8777V16.8821L124.019 16.9254C122.98 16.9686 122.201 17.1418 121.725 17.4881C121.248 17.8344 120.989 18.3538 120.989 19.0464C120.989 19.5659 121.119 19.9555 121.422 20.2152C121.725 20.5182 122.114 20.6481 122.677 20.6481Z" fill="#ADB5BD"></path> <path d="M136.053 10.8662C136.486 10.8662 136.876 10.9095 137.179 10.9528L136.962 13.1605C136.659 13.0739 136.313 13.0306 135.967 13.0306C135.057 13.0306 134.365 13.3336 133.802 13.9829C133.239 14.5889 132.98 15.4114 132.98 16.407V22.2509H130.729V11.0394H132.46L132.763 13.0306H132.893C133.239 12.3813 133.716 11.8185 134.278 11.4289C134.798 11.0394 135.404 10.8662 136.053 10.8662Z" fill="#ADB5BD"></path> <path d="M143.369 22.4662C141.767 22.4662 140.555 21.99 139.732 20.9944C138.91 19.9988 138.477 18.5703 138.477 16.7089C138.477 14.8042 138.91 13.3757 139.776 12.3368C140.641 11.3412 141.897 10.8218 143.542 10.8218C144.667 10.8218 145.663 11.0382 146.529 11.4711L145.836 13.3757C144.884 12.9862 144.105 12.7697 143.498 12.7697C141.68 12.7697 140.771 14.0683 140.771 16.6223C140.771 17.8777 140.988 18.83 141.464 19.4793C141.897 20.1286 142.589 20.4316 143.455 20.4316C144.451 20.4316 145.403 20.1719 146.269 19.6525V21.7303C145.879 21.99 145.446 22.1631 144.97 22.2497C144.494 22.3363 144.018 22.4662 143.369 22.4662Z" fill="#ADB5BD"></path> <path d="M158 22.2927H155.749V15.4099C155.749 14.5442 155.576 13.8949 155.273 13.462C154.927 13.0291 154.407 12.8127 153.714 12.8127C152.762 12.8127 152.07 13.1157 151.637 13.7217C151.204 14.3277 150.987 15.3234 150.987 16.7086V22.2927H148.736V6.49268H150.987V10.5184C150.987 11.1677 150.944 11.8603 150.857 12.5962H150.987C151.29 12.0335 151.723 11.6439 152.243 11.3409C152.762 11.0379 153.411 10.908 154.147 10.908C156.701 10.908 157.957 12.2932 157.957 15.0203V22.2927H158Z" fill="#ADB5BD"></path> <path d="M22.3365 12.1206H13.8521C13.8954 12.337 13.982 12.5535 14.0253 12.7266C14.285 13.7655 14.4581 14.8477 14.5447 15.9732C14.588 16.4061 14.588 16.8822 14.588 17.3151C14.588 17.748 14.588 18.2242 14.5447 18.657C14.4581 19.7825 14.285 20.8647 14.0253 21.9036C13.982 22.1201 13.8954 22.3365 13.8521 22.5096H22.3365C25.0203 22.5096 27.1847 20.1721 27.1847 17.3151C27.1847 14.4581 25.0203 12.1206 22.3365 12.1206Z" fill="#ADB5BD"></path> <path d="M14.5446 18.657C14.5879 18.2242 14.5879 17.748 14.5879 17.3151C14.5879 16.8822 14.5879 16.4061 14.5446 15.9732C14.4581 14.8477 14.2849 13.7655 14.0252 12.7266C13.9819 12.5102 13.8953 12.2938 13.852 12.1206H0.735889C0.259725 13.7655 0 15.497 0 17.3151C0 19.1332 0.259725 20.8647 0.735889 22.5096H13.852C13.8953 22.2932 13.9819 22.0768 14.0252 21.9036C14.2849 20.8647 14.4581 19.7825 14.5446 18.657Z" fill="#9BA4AD"></path> <path d="M23.808 24.2412H13.2458C12.9428 25.0204 12.5532 25.7563 12.1636 26.4489C11.5576 27.5311 10.8217 28.4834 9.99926 29.3924C9.73954 29.6955 9.43652 29.9552 9.1768 30.2582C8.61406 30.8209 7.96474 31.2971 7.31543 31.7733C9.8694 33.5913 12.9428 34.6302 16.2327 34.6302C21.8601 34.6302 26.8382 31.5568 29.7384 26.9251C28.2234 25.2801 26.1455 24.2412 23.808 24.2412Z" fill="#ADB5BD"></path> <path d="M12.1641 26.4489C12.5969 25.7563 12.9432 25.0204 13.2463 24.2412H1.34216C2.5975 27.3146 4.67531 29.9552 7.27257 31.7733C7.92189 31.2971 8.52791 30.8209 9.13394 30.2582C9.43695 29.9985 9.69668 29.6955 9.9564 29.3924C10.8222 28.5267 11.5148 27.5311 12.1641 26.4489Z" fill="#9BA4AD"></path> <path d="M9.99943 5.23775C9.73971 4.93474 9.43669 4.67501 9.17697 4.372C8.61423 3.80926 7.96492 3.3331 7.3156 2.85693C4.71834 4.67501 2.64053 7.31556 1.38519 10.389H13.2893C12.9863 9.6098 12.5967 8.87391 12.2071 8.18131C11.5145 7.09912 10.8219 6.10351 9.99943 5.23775Z" fill="#9BA4AD"></path> <path d="M16.2327 0C12.9428 0 9.8694 1.03891 7.31543 2.85699C7.96474 3.33315 8.57077 3.80932 9.1768 4.37205C9.47981 4.63178 9.73954 4.93479 9.99926 5.23781C10.8217 6.14685 11.5576 7.09917 12.1636 8.18136C12.5965 8.87396 12.9428 9.60986 13.2458 10.389H23.808C26.1455 10.389 28.2234 9.35013 29.7384 7.7052C26.7949 3.07342 21.8601 0 16.2327 0Z" fill="#ADB5BD"></path> </svg> 