<?xml version="1.0" encoding="UTF-8"?> <svg xmlns="http://www.w3.org/2000/svg" width="157" height="30" viewBox="0 0 157 30" fill="none"> <path d="M33.4645 9.0668C32.8437 7.84044 31.7482 6.93666 30.4336 6.5228C29.8771 6.34747 29.2978 6.25519 28.7143 6.24892H19.5577V9.88842H28.7295C28.9445 9.88142 29.1587 9.91708 29.3598 9.99334C29.5609 10.0696 29.7448 10.1849 29.9011 10.3327C30.2054 10.6446 30.388 11.0935 30.3682 11.5256V13.1232H23.3235C22.4743 13.0968 21.6315 13.2775 20.8678 13.6496C20.2333 13.9539 19.6719 14.4195 19.2245 14.9703C18.8157 15.4806 18.5079 16.0641 18.3177 16.6897C18.1401 17.2479 18.0458 17.8293 18.0377 18.4151C18.0129 19.2633 18.1941 20.1049 18.5657 20.8678C18.87 21.5023 19.3356 22.0637 19.8864 22.511C20.3939 22.9188 20.9743 23.2266 21.5966 23.4179C22.1519 23.5959 22.7317 23.6917 23.3159 23.6978H28.7204C29.5702 23.724 30.4136 23.5428 31.1777 23.1699C31.8121 22.8655 32.3736 22.4 32.8209 21.8492C33.2284 21.3414 33.5361 20.7612 33.7277 20.139C33.9097 19.5799 34.0072 18.9968 34.0168 18.409V11.5165C34.0402 10.6672 33.8553 9.82509 33.4782 9.06375L33.4645 9.0668ZM30.353 18.3816C30.3667 18.8145 30.2137 19.236 29.9254 19.5593C29.7698 19.721 29.5809 19.8471 29.3718 19.9288C29.1627 20.0105 28.9384 20.0459 28.7143 20.0325H23.3433C22.9157 20.0433 22.4989 19.8972 22.1717 19.6216C22.0062 19.4758 21.8758 19.2943 21.7904 19.0909C21.7051 18.8875 21.6669 18.6673 21.6788 18.447C21.6653 18.0118 21.8176 17.5876 22.1048 17.2602C22.259 17.0962 22.4471 16.9677 22.656 16.8836C22.8649 16.7995 23.0895 16.7619 23.3144 16.7733H30.3591L30.353 18.3816ZM64.808 16.8555C65.6617 16.8814 66.5089 16.6986 67.276 16.323C68.4932 15.7144 69.4335 14.5976 69.8321 13.2753C70.0101 12.7169 70.106 12.1342 70.1136 11.5499C70.1389 10.6963 69.9561 9.84928 69.5811 9.08201C69.2585 8.44601 68.8203 7.88609 68.2528 7.43876C67.7411 7.02529 67.1549 6.71384 66.5258 6.52128C65.9693 6.34633 65.3899 6.25505 64.8065 6.25044H59.3701C58.5164 6.22453 57.6692 6.40733 56.9022 6.78298C56.2662 7.10554 55.7062 7.54375 55.2589 8.11128C54.8492 8.62186 54.5394 9.20517 54.346 9.8306C54.168 10.3905 54.0721 10.9718 54.0645 11.5606V18.4805C54.0386 19.3326 54.2228 20.1816 54.597 20.9484C54.9034 21.5601 55.3319 22.1026 55.8561 22.5422C56.3802 22.9819 56.989 23.3094 57.6447 23.5046C58.2026 23.6841 58.7841 23.78 59.3701 23.7891H69.5674V20.1101H59.399C58.9612 20.1242 58.5346 19.9707 58.2061 19.681C58.0438 19.528 57.9166 19.3415 57.8336 19.1345C57.7506 18.9274 57.7136 18.7048 57.7253 18.482V16.857L64.808 16.8555ZM57.7238 11.5788C57.7109 11.1394 57.8653 10.7114 58.1559 10.3814C58.3109 10.2166 58.5004 10.0881 58.7108 10.0049C58.9212 9.92183 59.1474 9.8862 59.3731 9.90059H64.808C65.2364 9.89079 65.6525 10.0442 65.972 10.3297C66.1344 10.48 66.2617 10.6643 66.3448 10.8694C66.4279 11.0746 66.4648 11.2955 66.4528 11.5165C66.4669 11.9542 66.3135 12.3809 66.0237 12.7093C65.8681 12.8733 65.6785 13.0013 65.4683 13.0843C65.258 13.1674 65.0322 13.2035 64.8065 13.1901H57.7207L57.7238 11.5788ZM96.4985 23.7283H90.6664C88.5971 23.7283 87.386 22.8868 86.7409 22.1793C85.4476 20.7704 85.4369 18.9507 85.4598 18.4668V11.4921C85.4598 9.47305 86.2814 8.27864 86.9737 7.63199C88.3887 6.30522 90.245 6.2824 90.6938 6.29913H97.9606V0H101.663V18.5627C101.663 20.4646 100.883 21.627 100.223 22.2645C98.7975 23.6644 96.8864 23.745 96.5015 23.745L96.4985 23.7283ZM89.1525 18.6555C89.1525 18.8472 89.1936 19.3828 89.4568 19.684C89.72 19.9853 90.2541 20.0249 90.6512 20.0249H96.4893C97.9439 20.0035 97.9439 18.9141 97.9439 18.552V9.97667H90.5143C90.3089 9.97667 89.7535 10.0375 89.4857 10.3221C89.2636 10.5275 89.151 10.9231 89.151 11.4708L89.1525 18.6555ZM3.7034 30H0V11.3917C0 9.48978 0.782066 8.32429 1.43937 7.67916C2.88938 6.24892 4.8552 6.21088 5.18994 6.21241H11.0128C13.0852 6.21241 14.3024 7.05533 14.946 7.76437C16.2438 9.17482 16.2515 10.9991 16.2286 11.4845V18.4911C16.2286 20.5148 15.407 21.7092 14.7132 22.3558C13.2982 23.6841 11.4419 23.707 10.9885 23.6902H3.68514L3.7034 30ZM11.1589 19.9914C11.3537 19.9914 11.909 19.9366 12.2118 19.6445C12.4339 19.4391 12.5465 19.0404 12.5465 18.4881V11.2913C12.5465 11.098 12.5055 10.5609 12.2422 10.2627C11.979 9.9645 11.4404 9.91885 11.025 9.91885H5.16407C3.7034 9.94016 3.7034 11.0372 3.7034 11.3978V19.9914H11.1589ZM75.2944 23.7283H71.5941V11.413C71.5941 9.51717 72.3731 8.36994 73.0334 7.71111C74.4911 6.27175 76.4797 6.22914 76.7946 6.22914H83.9915V9.93102H76.7718C75.2959 9.95537 75.2959 11.0539 75.2959 11.416L75.2944 23.7283ZM108.768 23.7283C108.487 23.7283 106.477 23.6735 105.01 22.2067C104.362 21.5631 103.589 20.4007 103.589 18.5216V6.21697H107.291V18.5307C107.291 19.3402 107.571 19.6064 107.869 19.7479C108.154 19.8948 108.467 19.9798 108.788 19.9975H116.03V6.20176H119.735V23.6993L108.768 23.7283ZM46.7018 29.8357H37.877V26.1338H46.6653C47.5904 26.1338 47.916 25.7717 48.1047 25.4187C48.2762 25.0884 48.3782 24.7264 48.4044 24.3551V23.6476H41.413C40.9459 23.6628 38.9862 23.6476 37.4874 22.2478C36.7602 21.5677 35.8944 20.3094 35.8944 18.1747V11.7264C35.8792 11.2806 35.9051 9.29198 37.3338 7.79023C38.0139 7.07055 39.2692 6.21089 41.381 6.21089H46.6364C48.832 6.21089 52.1139 7.66699 52.1139 11.6884V24.4008C52.1093 26.6024 50.638 29.8478 46.679 29.8478L46.7018 29.8357ZM39.648 11.5956V18.1762C39.648 18.8244 39.7895 19.2869 40.0588 19.5456C40.4955 19.9564 41.2761 19.9564 41.2761 19.9564H48.4212V11.6747C48.4212 10.6918 48.0256 10.3631 47.6376 10.1532C47.3301 10.0076 46.9985 9.9199 46.6592 9.89451H41.41C40.78 9.89451 40.3449 10.0467 40.0634 10.3053C39.6982 10.6811 39.6267 11.3369 39.6298 11.5804L39.648 11.5956ZM150.668 29.8844H141.889V26.1825H150.668C151.588 26.1825 151.913 25.8249 152.107 25.475C152.277 25.1475 152.378 24.7886 152.404 24.4205V23.7404H145.397C143.264 23.7404 142.004 22.8732 141.32 22.1474C139.911 20.6456 139.889 18.6737 139.908 18.2112V6.25197H143.61V18.3633C143.61 18.6068 143.673 19.2534 144.033 19.6262C144.297 19.9001 144.757 20.037 145.397 20.037H152.401V6.22154H156.103V24.4464C156.088 26.6374 154.627 29.8813 150.666 29.8813L150.668 29.8844ZM131.649 23.745H127.947V9.94016H121.648V6.23827H127.947V1.48349H131.649V6.23827H137.972V9.94016H131.634L131.649 23.745Z" fill="#ADB5BD"></path> </svg> 