<?xml version="1.0" encoding="UTF-8"?> <svg xmlns="http://www.w3.org/2000/svg" width="95" height="30" viewBox="0 0 95 30" fill="none"> <path d="M51.5069 9.29103C51.5069 10.0359 50.8951 10.7005 50.0974 10.7005C49.4856 10.7005 48.9539 10.8602 48.5018 11.2059C47.9967 11.5253 47.5977 11.9771 47.2787 12.4823C46.6404 13.3334 46.3219 14.3437 46.1886 14.7157V19.7682C46.1886 20.5394 45.5239 21.1777 44.7262 21.1777C44.3532 21.175 43.9962 21.0256 43.7325 20.7619C43.4687 20.4981 43.3193 20.1412 43.3167 19.7682V9.29144C43.3167 8.52022 43.9545 7.90867 44.7262 7.90867C45.5239 7.90867 46.1886 8.52042 46.1886 9.29144V9.47766C46.348 9.29144 46.559 9.07888 46.747 8.94575C47.6246 8.36095 48.7677 7.88192 50.0974 7.90867C50.8951 7.90867 51.5069 8.52042 51.5069 9.29144V9.29103ZM50.7262 14.5295C50.7529 10.9131 53.5716 7.88172 57.2141 7.88172C60.671 7.88172 63.4077 10.461 63.6228 14.0507V14.1836C63.6228 14.2371 63.6228 14.3696 63.596 14.4229C63.5137 15.0612 62.9577 15.4867 62.2132 15.4867H53.7574C53.8903 16.0985 54.1827 16.7897 54.6615 17.2419C55.22 17.8802 56.2836 18.3584 57.2141 18.4383C58.1713 18.5179 59.3129 18.2788 59.9796 17.7736C60.5379 17.1884 61.6282 17.2685 61.9739 17.6913C62.3196 18.0617 62.5855 18.8618 61.9739 19.4198C60.6708 20.6161 59.102 21.175 57.2139 21.175C53.5714 21.1489 50.7527 18.144 50.726 14.5276L50.7262 14.5295ZM53.6247 13.2266H61.1496C60.8838 12.1627 59.5275 10.5942 57.2141 10.4079C54.9541 10.5141 53.8395 12.1364 53.6244 13.2266H53.6247ZM77.1708 19.7412C77.1708 20.5124 76.5325 21.1775 75.7345 21.1775C75.0143 21.1775 74.4583 20.6723 74.325 20.034C73.3167 20.7254 72.0383 21.1775 70.7086 21.1775C67.119 21.1775 64.2471 18.1461 64.2471 14.5562C64.2471 10.9131 67.119 7.88172 70.7086 7.88172C72.0117 7.88172 73.2879 8.30704 74.2717 8.99843V3.99947C74.2717 3.22825 74.91 2.56321 75.7341 2.56321C76.5319 2.56321 77.1704 3.22784 77.1704 3.99947V19.7414L77.1708 19.7412ZM70.7092 10.78C69.752 10.78 68.8744 11.1788 68.21 11.8701C67.5453 12.5348 67.1461 13.492 67.1461 14.5558C67.1461 15.5641 67.5449 16.5234 68.21 17.1882C68.8746 17.8796 69.752 18.2788 70.7092 18.2788C71.6928 18.2788 72.5441 17.88 73.2087 17.1882C73.8733 16.5236 74.2725 15.5662 74.2725 14.5558C74.2725 13.492 73.8738 12.5352 73.2087 11.8701C72.5441 11.1788 71.693 10.78 70.7092 10.78ZM82.2323 4.55752C82.2323 5.35529 81.6208 6.01992 80.796 6.01992C79.9983 6.01992 79.3602 5.35529 79.3602 4.55752V3.99906C79.3594 3.81027 79.396 3.62319 79.4679 3.44862C79.5397 3.27405 79.6455 3.11543 79.779 2.98193C79.9124 2.84842 80.071 2.74267 80.2456 2.67077C80.4202 2.59887 80.6072 2.56224 80.796 2.563C81.6205 2.563 82.2323 3.20129 82.2323 3.99927V4.55772V4.55752ZM82.2323 9.37251V19.7433C82.2323 20.541 81.6208 21.1795 80.796 21.1795C80.6072 21.1803 80.4202 21.1437 80.2456 21.0718C80.071 20.9999 79.9124 20.8941 79.779 20.7606C79.6455 20.6271 79.5397 20.4685 79.4679 20.2939C79.396 20.1193 79.3594 19.9323 79.3602 19.7435V9.37272C79.3602 8.52187 79.9981 7.91011 80.796 7.91011C81.6208 7.91011 82.2323 8.52187 82.2323 9.37272V9.37251ZM84.0581 17.3749C84.5367 16.737 85.4676 16.6571 86.0524 17.1623C86.7438 17.7475 87.9405 18.3586 88.9774 18.3323C89.6976 18.3323 90.3602 18.0932 90.7857 17.8272C91.1561 17.5082 91.2641 17.2424 91.2641 17.0294C91.2641 16.8965 91.2374 16.8434 91.1845 16.7633C91.1577 16.6837 91.0516 16.5773 90.8388 16.4444C90.4684 16.1783 89.6688 15.8857 88.7116 15.6995H88.6848C87.8603 15.54 87.0625 15.3291 86.3713 15.0081C85.6512 14.6624 85.0133 14.184 84.5365 13.4661C84.2443 12.9875 84.0846 12.4023 84.0846 11.7911C84.0846 10.5678 84.776 9.53075 85.6534 8.86591C86.5841 8.22802 87.7008 7.88233 88.9243 7.88233C90.759 7.88233 92.0619 8.75994 92.913 9.34473C93.5512 9.77026 93.7373 10.6479 93.3383 11.3123C92.9129 11.9506 92.0353 12.1368 91.3707 11.6827C90.5198 11.1244 89.7752 10.6987 88.9221 10.6987C88.2574 10.6987 87.6722 10.9115 87.3265 11.1773C86.9808 11.4168 86.9012 11.6561 86.9012 11.7891C86.9012 11.8952 86.9012 11.922 86.9543 12.0016C86.981 12.0547 87.0607 12.1611 87.2469 12.2675C87.5926 12.5068 88.284 12.7461 89.1881 12.9058L89.2149 12.9325H89.2416C90.1192 13.0918 90.9433 13.3313 91.7145 13.7035C92.4347 14.0225 93.1508 14.5278 93.6027 15.2723C93.9216 15.804 94.1078 16.4158 94.1078 17.0275C94.1078 18.3305 93.3877 19.4206 92.4325 20.1141C91.4752 20.7787 90.2785 21.1779 88.9756 21.1779C86.9014 21.1511 85.3061 20.1943 84.2425 19.3433C83.6573 18.8646 83.5778 17.9605 84.056 17.3753L84.0581 17.3749Z" fill="#ADB5BD"></path> <path d="M33.6326 23.1321C31.7646 24.1058 22.0877 28.0845 20.0275 29.1584C17.9674 30.2324 16.8229 30.2223 15.1954 29.4445C13.568 28.6667 3.27011 24.5068 1.4151 23.6202C0.487904 23.177 0.000437737 22.8033 0.000437737 22.4498V18.9116C0.000437737 18.9116 13.4067 15.9929 15.5714 15.2164C17.7361 14.4398 18.4865 14.4139 20.3284 15.0867C22.1702 15.7596 33.1836 17.7486 35.0038 18.4153L35.003 21.903C35.0032 22.2528 34.5832 22.6366 33.6326 23.1321Z" fill="#ADB5BD"></path> <path d="M33.6326 19.5931C31.7646 20.5664 22.0877 24.5456 20.0275 25.6195C17.9674 26.6934 16.8229 26.6833 15.1955 25.9055C13.568 25.1277 3.27011 20.9675 1.4151 20.0812C-0.439905 19.195 -0.478797 18.5843 1.34349 17.8709L15.5714 12.3622C17.7357 11.5861 18.4865 11.5597 20.3284 12.2326C22.1702 12.9054 31.7897 16.736 33.6097 17.4027C35.4297 18.0694 35.5003 18.6194 33.6303 19.5931H33.6326Z" fill="#9BA4AD"></path> <path d="M33.6326 17.363C31.7646 18.3367 22.0877 22.3154 20.0275 23.39C17.9674 24.4645 16.8229 24.4534 15.1954 23.6754C13.568 22.8973 3.27011 18.7377 1.4151 17.8511C0.487904 17.4078 0.000437737 17.0342 0.000437737 16.6811V13.1424C0.000437737 13.1424 13.4067 10.2236 15.5714 9.44725C17.7361 8.67089 18.4865 8.64475 20.3284 9.31762C22.1702 9.99048 33.1836 11.979 35.0038 12.6459L35.003 16.1343C35.0032 16.4841 34.5832 16.8677 33.6326 17.3632V17.363Z" fill="#ADB5BD"></path> <path d="M33.6326 13.824C31.7646 14.7977 22.0877 18.7764 20.0275 19.8509C17.9674 20.9255 16.8229 20.9144 15.1955 20.1363C13.568 19.3583 3.27011 15.1985 1.4151 14.3121C-0.439905 13.4256 -0.478797 12.8153 1.34349 12.1015L15.5714 6.59325C17.7357 5.81688 18.4865 5.79075 20.3284 6.46361C22.1702 7.13648 31.7897 10.9669 33.6097 11.6338C35.4297 12.3007 35.5003 12.8505 33.6303 13.8242L33.6326 13.824Z" fill="#9BA4AD"></path> <path d="M33.6326 11.3799C31.7646 12.3536 22.0877 16.3327 20.0275 17.4089C17.9674 18.4851 16.8229 18.4723 15.1954 17.6943C13.568 16.9163 3.27011 12.7565 1.4151 11.87C0.487904 11.4268 0.000437737 11.0531 0.000437737 10.7V7.16139C0.000437737 7.16139 13.4067 4.24071 15.5714 3.46434C17.7361 2.68797 18.4865 2.66184 20.3284 3.33471C22.1702 4.00757 33.1836 5.99612 35.0038 6.66302L35.003 10.1512C35.0032 10.5006 34.5832 10.8844 33.6326 11.3797V11.3799Z" fill="#ADB5BD"></path> <path d="M33.6326 7.84064C31.7646 8.81434 22.0877 12.7935 20.0275 13.8676C17.9674 14.9417 16.8229 14.931 15.1955 14.1532C13.568 13.3754 3.27011 9.21538 1.4151 8.32893C-0.439905 7.44248 -0.478797 6.83197 1.34349 6.11836L15.5714 0.609923C17.7357 -0.166649 18.4865 -0.192577 20.3284 0.480287C22.1702 1.15315 31.7897 4.98354 33.6097 5.65044C35.4297 6.31734 35.5003 6.86694 33.6303 7.84044L33.6326 7.84064Z" fill="#9BA4AD"></path> <path d="M19.0557 4.7474L18.3762 6.38203L17.2785 4.55892L13.7763 4.24409L16.3895 3.30105L15.6076 1.85449L18.0536 2.81173L20.3617 2.05656L19.737 3.55209L22.0889 4.43237L19.0557 4.7474ZM12.5334 10.0118L20.6448 8.76689L18.1956 12.3596L12.5334 10.0118Z" fill="white"></path> <path d="M10.3473 8.70282C12.7417 8.70282 14.6827 7.95043 14.6827 7.02231C14.6827 6.09419 12.7417 5.3418 10.3473 5.3418C7.953 5.3418 6.012 6.09419 6.012 7.02231C6.012 7.95043 7.953 8.70282 10.3473 8.70282Z" fill="white"></path> <path d="M30.4732 6.77733L25.6759 8.67123L25.6732 4.87891L30.4732 6.77733Z" fill="#9098A0"></path> <path d="M25.6734 4.87891L25.6761 8.67123L25.1565 8.87618L20.3621 6.9796L25.6734 4.87891Z" fill="#ADB5BD"></path> </svg> 