<?xml version="1.0" encoding="UTF-8"?> <svg xmlns="http://www.w3.org/2000/svg" width="110" height="32" viewBox="0 0 110 32" fill="none"> <path d="M41.4745 13.592C41.4745 10.2181 40.5119 8.48641 38.5886 8.39145C37.8229 8.35535 37.0761 8.47739 36.3487 8.75969C35.7686 8.96724 35.3776 9.17306 35.1722 9.3806V17.433C36.4028 18.2052 37.4959 18.5644 38.449 18.5081C40.4655 18.3792 41.4749 16.7378 41.4749 13.5924L41.4745 13.592ZM43.8476 13.7321C43.8476 15.4509 43.4459 16.8688 42.6372 18.0002C41.7361 19.2807 40.4875 19.9398 38.8903 19.9759C37.6872 20.0189 36.4471 19.6373 35.1709 18.8467V26.1656L33.1066 25.4292V9.18423C33.4452 8.76872 33.8814 8.41207 34.4095 8.10914C35.6384 7.39327 37.1307 7.02503 38.8869 7.00698L38.9161 7.0362C40.5218 7.01601 41.7593 7.67515 42.6286 9.01192C43.4394 10.2383 43.8459 11.8049 43.8459 13.7317L43.8476 13.7321ZM56.4621 18.5352C56.4621 20.834 56.2318 22.426 55.7712 23.3112C55.3105 24.1964 54.4275 24.9032 53.1268 25.4296C52.0724 25.8451 50.932 26.0711 49.7078 26.1094L49.3666 24.8087C50.611 24.6394 51.4871 24.4701 51.995 24.3008C52.9954 23.9622 53.682 23.4427 54.0588 22.747C54.3613 22.1798 54.51 21.0987 54.51 19.4977V18.9606C53.1175 19.5971 51.6037 19.9246 50.0726 19.9205C49.0912 19.9341 48.1378 19.5933 47.3874 18.9606C46.5203 18.2628 46.0868 17.3776 46.0868 16.3051V7.71125L48.1506 7.0044V15.6498C48.1506 16.5736 48.4488 17.2848 49.0443 17.7836C49.6399 18.2825 50.4129 18.5227 51.3591 18.5038C52.3053 18.4849 53.3193 18.1171 54.3961 17.4017V7.31894H56.46V18.5352H56.4621ZM64.5188 19.8672L63.8391 19.8964C62.6716 19.8964 61.7615 19.6189 61.1114 19.0611C60.4634 18.5034 60.1381 17.7291 60.1381 16.7511V8.62133H58.7201V7.32281H60.1381V3.87066L62.1998 3.13675V7.31894H64.5188V8.61747H62.1998V16.6905C62.1998 17.4652 62.4073 18.014 62.8228 18.3345C63.1795 18.5988 63.7467 18.75 64.5188 18.7883V19.8634V19.8672ZM77.0155 19.6979H74.9517V11.7306C74.9517 10.9198 74.7627 10.2267 74.3845 9.6397C73.9488 8.98013 73.3434 8.65055 72.567 8.65055C71.6208 8.65055 70.4374 9.14899 69.0177 10.1476V19.6928H66.9539V0.650553L69.0177 0V8.67376C70.3368 7.71383 71.7772 7.233 73.3421 7.233C74.4352 7.233 75.3204 7.60125 75.9976 8.33516C76.6774 9.06907 77.016 9.98346 77.016 11.0766V19.6941L77.0155 19.6979ZM87.9869 13.2667C87.9869 11.9704 87.7407 10.9 87.2508 10.0535C86.6681 9.02138 85.7628 8.47739 84.5386 8.42067C82.2758 8.55172 81.1466 10.1729 81.1466 13.2762C81.1466 14.701 81.3816 15.8913 81.8556 16.8426C82.4606 18.0599 83.3681 18.6602 84.579 18.64C86.8508 18.622 87.9864 16.8289 87.9864 13.2586L87.9869 13.2667ZM90.247 13.2805C90.247 15.1256 89.7752 16.6609 88.8291 17.8868C87.7926 19.2596 86.3609 19.9484 84.5339 19.9484C82.7227 19.9484 81.3112 19.2596 80.2928 17.8868C79.369 16.6604 78.9083 15.1251 78.9083 13.2805C78.9083 11.5462 79.4068 10.0879 80.4054 8.89977C81.4599 7.63949 82.846 7.00741 84.5605 7.00741C86.275 7.00741 87.6702 7.63992 88.7448 8.89977C89.743 10.0874 90.2419 11.5467 90.2419 13.2805H90.247ZM102.08 19.6936H100.016V11.2751C100.016 10.3513 99.7385 9.63111 99.1825 9.11161C98.6269 8.59469 97.8861 8.34375 96.9627 8.36395C95.983 8.382 95.0506 8.70255 94.1697 9.32388V19.6936H92.1059V9.06907C93.2936 8.2041 94.3867 7.63949 95.3844 7.37523C96.3298 7.12901 97.1569 7.00698 97.8766 7.00698C98.3665 7.00698 98.8276 7.04995 99.2611 7.14878C100.072 7.33613 100.731 7.68418 101.239 8.19422C101.807 8.75883 102.088 9.44033 102.088 10.2288V19.6928L102.08 19.6936Z" fill="#ADB5BD"></path> <path d="M12.7221 0.726389C11.6608 0.730686 10.6458 0.821781 9.75379 0.984204C7.12493 1.44827 6.64797 2.42066 6.64797 4.21334V6.57664H12.8596V7.36599H4.31733C2.51262 7.36599 0.931355 8.45096 0.437209 10.5156C-0.132992 12.8819 -0.158343 14.3584 0.437209 16.8287C0.878932 18.6677 1.9334 19.9783 3.73853 19.9783H5.8741V17.1402C5.8741 15.0897 7.64873 13.2816 9.75421 13.2816H15.959C17.6863 13.2816 19.0648 11.8636 19.0648 10.125V4.20904C19.0648 2.52551 17.6446 1.26136 15.959 0.979907C14.8891 0.805011 13.8065 0.720207 12.7225 0.726389H12.7221ZM9.36277 2.62992C10.0043 2.62992 10.5285 3.16274 10.5285 3.81716C10.5285 4.46943 10.0043 4.99709 9.36277 4.99709C8.71823 4.99709 8.19701 4.46943 8.19701 3.81716C8.19701 3.16231 8.71866 2.62992 9.36277 2.62992Z" fill="url(#paint0_linear)"></path> <path d="M19.8395 7.36572V10.1243C19.8395 12.2629 18.0262 14.0629 15.9594 14.0629H9.75464C8.0552 14.0629 6.64882 15.5174 6.64882 17.2194V23.1345C6.64882 24.8181 8.11278 25.8081 9.75464 26.2911C11.7209 26.8694 13.6064 26.9743 15.9594 26.2911C17.5235 25.8382 19.0652 24.9272 19.0652 23.1345V20.7712H12.8596V19.9819H22.171C23.9757 19.9819 24.649 18.7229 25.2768 16.8323C25.9257 14.8866 25.8977 13.0153 25.2768 10.5192C24.8308 8.72183 23.9791 7.36959 22.171 7.36959H19.8399L19.8395 7.36572ZM16.3504 22.3448C16.9949 22.3448 17.5162 22.8724 17.5162 23.5247C17.5162 24.1796 16.9945 24.7119 16.3504 24.7119C15.7089 24.7119 15.1846 24.1791 15.1846 23.5247C15.1846 22.8724 15.7089 22.3448 16.3504 22.3448Z" fill="url(#paint1_linear)"></path> <path d="M106.099 5.47833H106.461V3.20869H107.318V2.93799H105.242V3.20869H106.099V5.47833ZM107.639 5.47833H107.949V3.40549L108.62 5.4779H108.964L109.663 3.41237V5.47833H110V2.93885H109.554L108.79 5.11481L108.138 2.93885H107.64V5.47833" fill="#ADB5BD"></path> <path opacity="0.444" d="M12.9305 31.9265C17.5279 31.9265 21.2549 31.2037 21.2549 30.3121C21.2549 29.4205 17.5279 28.6978 12.9305 28.6978C8.33303 28.6978 4.60606 29.4205 4.60606 30.3121C4.60606 31.2037 8.33303 31.9265 12.9305 31.9265Z" fill="url(#paint2_radial)"></path> <defs> <linearGradient id="paint0_linear" x1="-0.0010763" y1="0.726819" x2="14.2067" y2="13.0689" gradientUnits="userSpaceOnUse"> <stop stop-color="#ADB5BD"></stop> <stop offset="1" stop-color="#9BA4AD"></stop> </linearGradient> <linearGradient id="paint1_linear" x1="16.2004" y1="23.3262" x2="11.1266" y2="16.0786" gradientUnits="userSpaceOnUse"> <stop stop-color="#9BA4AD"></stop> <stop offset="1" stop-color="#9BA4AD" stop-opacity="0.82"></stop> </linearGradient> <radialGradient id="paint2_radial" cx="0" cy="0" r="1" gradientUnits="userSpaceOnUse" gradientTransform="translate(12.9305 30.3123) rotate(-90) scale(1.61418 7.09501)"> <stop stop-color="#B8B8B8" stop-opacity="0.498"></stop> <stop offset="1" stop-color="#7F7F7F" stop-opacity="0"></stop> </radialGradient> </defs> </svg> 